<svg xmlns="http://www.w3.org/2000/svg" viewBox="0 0 323.82 322.36"><defs><style>.cls-1{fill:#fff;}</style></defs><title>Asset 1</title><g id="Layer_2" data-name="Layer 2"><g id="Layer_1-2" data-name="Layer 1"><path class="cls-1" d="M163.31,143a2.14,2.14,0,0,1-.43-1.72c0-.14.05-.37.1-.68s.09-.53.12-.68a2.11,2.11,0,0,1,1-1.5,3.06,3.06,0,0,1,3.52.57,2.11,2.11,0,0,1,.43,1.72c0,.3-.07.53-.09.69s-.07.38-.13.67a2.14,2.14,0,0,1-.94,1.5,3.17,3.17,0,0,1-3.53-.57Zm2.57-.5a1.13,1.13,0,0,0,.38-.72c.06-.31.1-.52.12-.65s.05-.35.09-.65a1.11,1.11,0,0,0-.14-.8,1,1,0,0,0-1.32-.21,1.09,1.09,0,0,0-.38.72c0,.14-.07.36-.11.64s-.08.5-.1.65a1.09,1.09,0,0,0,.14.81,1,1,0,0,0,1.32.21Z"/><path class="cls-1" d="M167.81,145.26a.22.22,0,0,1,0-.16l.93-1.82a.23.23,0,0,1,.12-.1.18.18,0,0,1,.16,0l.13.07c.21.11.46,0,.75-.34a8.64,8.64,0,0,0,1-1.54l.74-1.44a.23.23,0,0,1,.12-.1.2.2,0,0,1,.15,0l3.4,1.74a.25.25,0,0,1,.11.12.23.23,0,0,1,0,.16l-1.85,3.61.33.17a.15.15,0,0,1,.1.12.18.18,0,0,1,0,.16l-.93,1.81a.25.25,0,0,1-.12.11.23.23,0,0,1-.16,0l-1-.49a.22.22,0,0,1-.1-.13.16.16,0,0,1,0-.15l.42-.82-2.5-1.28-.42.82a.18.18,0,0,1-.12.1.22.22,0,0,1-.16,0l-1-.5A.17.17,0,0,1,167.81,145.26Zm4.36-.46,1.34-2.6-1.14-.59-.31.6a5.24,5.24,0,0,1-1.33,1.85Z"/><path class="cls-1" d="M174.23,147.57a.2.2,0,0,1,.06-.14l3.69-3.66a.2.2,0,0,1,.15-.06.2.2,0,0,1,.14.06l.77.78a.2.2,0,0,1,.06.15.2.2,0,0,1-.06.14l-1.35,1.34,1.33,1.34,1.35-1.34a.2.2,0,0,1,.15-.06.2.2,0,0,1,.14.06l.77.78a.2.2,0,0,1,.06.14.2.2,0,0,1-.06.15l-3.69,3.66a.2.2,0,0,1-.14.06.26.26,0,0,1-.15-.07l-.76-.77a.23.23,0,0,1-.07-.15.2.2,0,0,1,.06-.14l1.39-1.38-1.32-1.34-1.4,1.38a.2.2,0,0,1-.14.06.3.3,0,0,1-.15-.07l-.77-.78A.2.2,0,0,1,174.23,147.57Z"/><path class="cls-1" d="M179,152.31A2.1,2.1,0,0,1,180.1,151c.13-.08.33-.19.61-.33l.62-.31a2.08,2.08,0,0,1,1.76-.13,3,3,0,0,1,1.65,3.16,2.15,2.15,0,0,1-1.12,1.38l-.61.33c-.14.07-.35.18-.62.3a2.13,2.13,0,0,1-1.76.14,3.19,3.19,0,0,1-1.65-3.18Zm1.93,1.77a1.13,1.13,0,0,0,.81-.13l.59-.29.57-.31a1.12,1.12,0,0,0,.56-.59.86.86,0,0,0-.08-.71.91.91,0,0,0-.53-.48,1.12,1.12,0,0,0-.81.13l-.58.29c-.25.13-.45.23-.58.31a1.14,1.14,0,0,0-.57.59,1,1,0,0,0,.62,1.19Z"/><path class="cls-1" d="M180.89,157.47a.2.2,0,0,1,.12-.08l5.08-1.08a.22.22,0,0,1,.16,0,.18.18,0,0,1,.09.13l.72,3.41a.19.19,0,0,1,0,.15.21.21,0,0,1-.13.09l-.82.17a.22.22,0,0,1-.16,0,.18.18,0,0,1-.09-.13l-.45-2.14-4,.86a.19.19,0,0,1-.24-.16l-.23-1.08A.21.21,0,0,1,180.89,157.47Z"/><path class="cls-1" d="M182.14,162.58a2.12,2.12,0,0,1,1.66-.61l.69,0,.69.05a2.09,2.09,0,0,1,1.59.79,2.57,2.57,0,0,1,.47,1.81,2.64,2.64,0,0,1-.67,1.75,2.15,2.15,0,0,1-1.66.61l-.7,0c-.16,0-.38,0-.68,0a2.18,2.18,0,0,1-1.59-.78,2.72,2.72,0,0,1-.45-1.82A2.67,2.67,0,0,1,182.14,162.58Zm.77,2.5a1.11,1.11,0,0,0,.75.3l.66.06.65,0a1.2,1.2,0,0,0,.79-.22.91.91,0,0,0,.28-.65.88.88,0,0,0-.21-.69,1.09,1.09,0,0,0-.76-.3l-.64,0-.67,0a1.14,1.14,0,0,0-.78.22.92.92,0,0,0-.29.66A.88.88,0,0,0,182.91,165.08Z"/><path class="cls-1" d="M180.67,170a.16.16,0,0,1,.15,0l4.6,2.41a.21.21,0,0,1,.11.12.22.22,0,0,1,0,.16l-.42.8a.31.31,0,0,1-.29.18l-2.82.07,1.54,2.37a.29.29,0,0,1,0,.34l-.42.8a.18.18,0,0,1-.12.1.22.22,0,0,1-.16,0l-4.59-2.41a.17.17,0,0,1-.1-.12.22.22,0,0,1,0-.16l.48-.9a.18.18,0,0,1,.11-.1.22.22,0,0,1,.16,0l2.58,1.35-1-1.5a.35.35,0,0,1,0-.34l.2-.38a.34.34,0,0,1,.29-.16l1.8,0-2.58-1.35a.18.18,0,0,1-.1-.12.26.26,0,0,1,0-.15l.47-.9A.19.19,0,0,1,180.67,170Z"/><path class="cls-1" d="M177.6,175.54a.22.22,0,0,1,.12.05l.05.06,2.22,5a.31.31,0,0,1-.07.39l-.89.87a.31.31,0,0,1-.39.05l-4.91-2.39s0,0-.06,0a.16.16,0,0,1,0-.12.17.17,0,0,1,.05-.12l.75-.72a.28.28,0,0,1,.31-.07l.75.36,1.51-1.46-.34-.75a.28.28,0,0,1,.08-.32l.74-.72A.17.17,0,0,1,177.6,175.54Zm0,2.94-1,1,1.93,1Z"/><path class="cls-1" d="M173.24,179.65a.14.14,0,0,1,.1.08.16.16,0,0,1,0,.09l-.37,3.11,2.56,1.47a.23.23,0,0,1,.07.07.19.19,0,0,1,0,.13.27.27,0,0,1-.08.1l-1.09.56a.35.35,0,0,1-.34,0l-1.44-.82-.19,1.66a.35.35,0,0,1-.17.29l-1,.53a.19.19,0,0,1-.13,0,.16.16,0,0,1-.1-.08.3.3,0,0,1,0-.1l.32-2.93-2.76-1.52-.07-.07a.15.15,0,0,1,0-.13.16.16,0,0,1,.08-.1l1.12-.58a.33.33,0,0,1,.32,0l1.59.85.21-1.78a.34.34,0,0,1,.18-.27l1.09-.56A.13.13,0,0,1,173.24,179.65Z"/><path class="cls-1" d="M168.12,182.23a.16.16,0,0,1,.08.1v.07l-.92,5.38a.31.31,0,0,1-.27.29l-1.23.22a.31.31,0,0,1-.35-.17l-2.75-4.71,0-.07a.19.19,0,0,1,0-.12.16.16,0,0,1,.1-.08l1-.18a.27.27,0,0,1,.3.12l.42.71,2.07-.37.14-.82a.29.29,0,0,1,.24-.22l1-.18A.14.14,0,0,1,168.12,182.23Zm-1.64,2.43-1.4.25,1.07,1.88Z"/><path class="cls-1" d="M160.19,182.08a.2.2,0,0,1,0,.15l-.48,2a.2.2,0,0,1-.09.13.16.16,0,0,1-.15,0l-.14,0c-.24-.06-.46.11-.66.5a9.77,9.77,0,0,0-.57,1.72l-.38,1.57a.18.18,0,0,1-.09.13.26.26,0,0,1-.15,0l-3.71-.9a.25.25,0,0,1-.13-.09.23.23,0,0,1,0-.16l1-3.95-.36-.08a.25.25,0,0,1-.13-.09.18.18,0,0,1,0-.16l.48-2a.2.2,0,0,1,.09-.13.29.29,0,0,1,.16,0l1.06.26a.2.2,0,0,1,.13.09.22.22,0,0,1,0,.16l-.21.89,2.72.66.22-.89a.18.18,0,0,1,.09-.13.18.18,0,0,1,.16,0l1.07.26A.18.18,0,0,1,160.19,182.08Zm-4.14,1.46-.69,2.85,1.24.3.16-.66a5.34,5.34,0,0,1,.87-2.11Z"/><path class="cls-1" d="M152.79,181.42a2.13,2.13,0,0,1-.26,1.75c-.07.13-.19.32-.35.59s-.29.46-.37.59a2.14,2.14,0,0,1-1.45,1,2.69,2.69,0,0,1-1.83-.45,2.64,2.64,0,0,1-1.21-1.42,2.1,2.1,0,0,1,.25-1.75c.15-.27.27-.47.35-.6l.38-.58a2.06,2.06,0,0,1,1.44-1,2.64,2.64,0,0,1,1.81.46A2.75,2.75,0,0,1,152.79,181.42Zm-2.57-.52a1.12,1.12,0,0,0-.63.52c-.17.26-.29.44-.36.56s-.18.3-.32.56a1.1,1.1,0,0,0-.18.8.93.93,0,0,0,.43.56.88.88,0,0,0,.71.13,1.11,1.11,0,0,0,.63-.52l.34-.54c.15-.25.27-.44.34-.57a1.15,1.15,0,0,0,.18-.8,1,1,0,0,0-1.14-.7Z"/><path class="cls-1" d="M147.88,178a2.16,2.16,0,0,1-.75,1.6l-.52.47-.54.47a2.16,2.16,0,0,1-1.67.55,2.65,2.65,0,0,1-1.61-1,3.29,3.29,0,0,1-.67-1.1,2.17,2.17,0,0,1-.09-1.12,1.76,1.76,0,0,1,.55-.94.13.13,0,0,1,.12-.05.19.19,0,0,1,.12.07l.75.84a.27.27,0,0,1,.08.16.38.38,0,0,1-.06.17.89.89,0,0,0-.18.62,1,1,0,0,0,.28.56.88.88,0,0,0,1.38,0l.5-.44.5-.46a.88.88,0,0,0,.13-1.37,1.09,1.09,0,0,0-.52-.34.89.89,0,0,0-.63.11.37.37,0,0,1-.18,0,.26.26,0,0,1-.15-.1l-.75-.85a.17.17,0,0,1-.05-.12.14.14,0,0,1,.06-.12,1.72,1.72,0,0,1,1-.43,2.07,2.07,0,0,1,1.1.22,3.24,3.24,0,0,1,1,.8A2.71,2.71,0,0,1,147.88,178Z"/><path class="cls-1" d="M144.26,172.42a.2.2,0,0,1-.1.12l-3.7,1.77.61,1.27a.23.23,0,0,1,0,.16.25.25,0,0,1-.11.12l-.81.38a.18.18,0,0,1-.16,0,.16.16,0,0,1-.11-.1L138,172.23a.18.18,0,0,1,0-.16.23.23,0,0,1,.1-.12l.81-.39a.22.22,0,0,1,.16,0,.17.17,0,0,1,.11.11l.61,1.26,3.69-1.77a.3.3,0,0,1,.16,0,.23.23,0,0,1,.11.11l.49,1A.2.2,0,0,1,144.26,172.42Z"/><path class="cls-1" d="M142.73,169.18a.15.15,0,0,1-.11.07h-.07l-5.36-1a.32.32,0,0,1-.29-.28l-.2-1.23a.34.34,0,0,1,.18-.36l4.76-2.67.07,0a.19.19,0,0,1,.12,0,.17.17,0,0,1,.07.1l.17,1a.28.28,0,0,1-.13.3l-.72.41.34,2.07.81.15a.29.29,0,0,1,.22.24l.17,1A.18.18,0,0,1,142.73,169.18Zm-2.41-1.68-.23-1.41-1.9,1Z"/><path class="cls-1" d="M142.07,161.55a.16.16,0,0,1-.15,0l-4.07-.48-.16,1.4a.25.25,0,0,1-.08.14.19.19,0,0,1-.15,0l-.89-.11a.19.19,0,0,1-.14-.07.23.23,0,0,1,0-.16l.51-4.31a.22.22,0,0,1,.08-.14.19.19,0,0,1,.16,0l.89.1a.22.22,0,0,1,.13.08.2.2,0,0,1,0,.15l-.17,1.4,4.07.49a.19.19,0,0,1,.14.07.22.22,0,0,1,0,.16l-.13,1.1A.17.17,0,0,1,142.07,161.55Z"/><path class="cls-1" d="M142.5,157a2.13,2.13,0,0,1-1.77,0l-.63-.26-.64-.28a2.12,2.12,0,0,1-1.22-1.28,2.65,2.65,0,0,1,.17-1.87,2.6,2.6,0,0,1,1.22-1.42,2.14,2.14,0,0,1,1.77,0l.65.26.63.28a2.15,2.15,0,0,1,1.22,1.28,2.65,2.65,0,0,1-.19,1.86A2.74,2.74,0,0,1,142.5,157Zm.13-2.61a1.13,1.13,0,0,0-.6-.55l-.61-.27-.6-.24a1.2,1.2,0,0,0-.82-.06.9.9,0,0,0-.49.52.88.88,0,0,0,0,.71,1.12,1.12,0,0,0,.61.55l.59.26.62.25a1.07,1.07,0,0,0,.81.06.9.9,0,0,0,.49-.52A.88.88,0,0,0,142.63,154.35Z"/><path class="cls-1" d="M147.11,149.93a.23.23,0,0,1-.15-.05l-1.29-1.08a1.27,1.27,0,0,1-.14.52,2.71,2.71,0,0,1-.37.56,2.07,2.07,0,0,1-1.36.84,2.19,2.19,0,0,1-1.51-.61L140.94,149a.21.21,0,0,1-.07-.14.2.2,0,0,1,0-.15l.7-.84a.19.19,0,0,1,.14-.07.21.21,0,0,1,.15,0l1.29,1.08a.71.71,0,0,0,.56.22.91.91,0,0,0,.55-.36,1.56,1.56,0,0,0,.28-.52.36.36,0,0,0-.1-.42L143,146.55a.21.21,0,0,1-.07-.14.2.2,0,0,1,0-.15l.7-.84a.19.19,0,0,1,.14-.07.17.17,0,0,1,.15,0l4,3.33a.21.21,0,0,1,.07.14.25.25,0,0,1-.05.15l-.7.84A.25.25,0,0,1,147.11,149.93Z"/><path class="cls-1" d="M149.07,147.87a.2.2,0,0,1-.13-.09l-2.82-4.36a.21.21,0,0,1,0-.15.18.18,0,0,1,.09-.13l.92-.6a.21.21,0,0,1,.15,0,.22.22,0,0,1,.13.1l1,1.59,1.59-1-1-1.59a.22.22,0,0,1,0-.16.2.2,0,0,1,.09-.13l.91-.59a.22.22,0,0,1,.16,0,.18.18,0,0,1,.13.09l2.82,4.36a.21.21,0,0,1,0,.15.18.18,0,0,1-.09.13l-.92.59a.21.21,0,0,1-.15,0,.18.18,0,0,1-.13-.09l-1.07-1.65-1.58,1,1.07,1.64a.21.21,0,0,1-.07.28l-.92.6A.21.21,0,0,1,149.07,147.87Z"/><path class="cls-1" d="M154.69,144.19a2.06,2.06,0,0,1-1.1-1.37c-.05-.15-.11-.37-.19-.66s-.15-.53-.18-.68a2.08,2.08,0,0,1,.24-1.75,3.08,3.08,0,0,1,3.44-1,2.09,2.09,0,0,1,1.1,1.39q.15.43.21.66l.16.67a2.11,2.11,0,0,1-.23,1.75,2.66,2.66,0,0,1-1.57,1A2.71,2.71,0,0,1,154.69,144.19Zm2.13-1.52a1.14,1.14,0,0,0,.05-.81c-.08-.3-.13-.52-.17-.65s-.09-.33-.18-.62a1.13,1.13,0,0,0-.47-.67.88.88,0,0,0-.7-.07.91.91,0,0,0-.58.43,1.08,1.08,0,0,0-.05.81c0,.15.09.36.16.63s.14.49.19.64a1.12,1.12,0,0,0,.46.67.88.88,0,0,0,.72.06A.89.89,0,0,0,156.82,142.67Z"/><path class="cls-1" d="M163.83,130a.3.3,0,0,1-.05-.21l1-7.06a.27.27,0,0,1,.11-.19.23.23,0,0,1,.2-.06l1.49.22a.29.29,0,0,1,.25.32l-.37,2.58L169,126l.38-2.58a.25.25,0,0,1,.11-.19.3.3,0,0,1,.21,0l1.48.21a.29.29,0,0,1,.19.11.29.29,0,0,1,.05.22l-1,7.06a.33.33,0,0,1-.11.19.29.29,0,0,1-.22,0l-1.48-.21a.32.32,0,0,1-.19-.1.3.3,0,0,1,0-.21l.38-2.67-2.57-.37-.38,2.67a.25.25,0,0,1-.11.18.26.26,0,0,1-.21.05l-1.49-.22A.26.26,0,0,1,163.83,130Z"/><path class="cls-1" d="M172.86,131.64a.22.22,0,0,1,0-.18.12.12,0,0,1,0-.08l5.3-5.31a.44.44,0,0,1,.54-.1l1.55.72a.43.43,0,0,1,.26.48l-.66,7.47a.22.22,0,0,1,0,.1.21.21,0,0,1-.13.11.25.25,0,0,1-.17,0l-1.3-.61a.38.38,0,0,1-.24-.37l.1-1.14-2.62-1.22-.81.8a.36.36,0,0,1-.44.06l-1.29-.6A.25.25,0,0,1,172.86,131.64Zm3.78-1.43,1.78.83.29-2.95Z"/><path class="cls-1" d="M185,139.1a.29.29,0,0,1,.07-.2l1.54-1.75a1.67,1.67,0,0,1-.72-.2,4.1,4.1,0,0,1-.75-.53,2.84,2.84,0,0,1-1.11-1.9,3,3,0,0,1,.9-2.05l1.6-1.82a.25.25,0,0,1,.19-.09.28.28,0,0,1,.21.07l1.12,1a.32.32,0,0,1,.1.19.27.27,0,0,1-.07.21l-1.53,1.74a1,1,0,0,0-.32.76,1.21,1.21,0,0,0,.48.76,2,2,0,0,0,.7.42.5.5,0,0,0,.58-.12l1.81-2.05a.25.25,0,0,1,.19-.09.26.26,0,0,1,.2.07l1.13,1a.3.3,0,0,1,.1.19.27.27,0,0,1-.07.21l-4.73,5.36a.27.27,0,0,1-.19.1.32.32,0,0,1-.2-.08l-1.13-1A.3.3,0,0,1,185,139.1Z"/><path class="cls-1" d="M188.25,142.34a.24.24,0,0,1,.1-.15.18.18,0,0,1,.09,0l7.32-1.61a.43.43,0,0,1,.51.2l.92,1.45a.43.43,0,0,1,0,.54l-4.58,5.94a.28.28,0,0,1-.08.06.25.25,0,0,1-.17,0,.27.27,0,0,1-.15-.1l-.76-1.21a.38.38,0,0,1,0-.44l.69-.91-1.54-2.43-1.11.23a.37.37,0,0,1-.41-.18l-.76-1.21A.2.2,0,0,1,188.25,142.34Zm3.95.83,1.05,1.66,1.84-2.33Z"/><path class="cls-1" d="M194.63,155.9a.31.31,0,0,1,.17-.13l5.39-1.47-.53-1.91-.89.24a13.62,13.62,0,0,1-2.86.54,2.55,2.55,0,0,1-1.71-.47,3.26,3.26,0,0,1-1-1.7.3.3,0,0,1,0-.22.26.26,0,0,1,.16-.13l1.18-.33a.29.29,0,0,1,.35.19c.17.36.55.54,1.15.54a9.1,9.1,0,0,0,2.42-.41l2.14-.59a.28.28,0,0,1,.22,0,.35.35,0,0,1,.13.18l1.44,5.27a.28.28,0,0,1,0,.22.23.23,0,0,1-.17.13l-6.89,1.89a.26.26,0,0,1-.21,0,.31.31,0,0,1-.13-.17l-.4-1.46A.31.31,0,0,1,194.63,155.9Z"/><path class="cls-1" d="M196,161.66a2.89,2.89,0,0,1,2.26-.9h.94l1,0a2.94,2.94,0,0,1,2.21,1,4.23,4.23,0,0,1-.13,4.91,2.91,2.91,0,0,1-2.26.9h-1l-.94,0a2.92,2.92,0,0,1-2.21-1,4.39,4.39,0,0,1,.13-4.92Zm1.15,3.41a1.54,1.54,0,0,0,1,.39l.91,0H200a1.56,1.56,0,0,0,1.07-.34,1.4,1.4,0,0,0,.05-1.84,1.54,1.54,0,0,0-1.05-.39l-.89,0c-.4,0-.7,0-.91,0a1.51,1.51,0,0,0-1.07.33,1.23,1.23,0,0,0-.37.92A1.21,1.21,0,0,0,197.18,165.07Z"/><path class="cls-1" d="M193.69,174.22a.3.3,0,0,1,.21,0l.75.35a.65.65,0,0,1,.38.47l.49,1.35c.19.86.34,1.51.46,1.95a4.82,4.82,0,0,0,.38,1.07,1.15,1.15,0,0,0,.5.54.72.72,0,0,0,1.08-.4.85.85,0,0,0,0-.71,1.4,1.4,0,0,0-.46-.55.33.33,0,0,1-.07-.44l.61-1.32a.2.2,0,0,1,.13-.12.19.19,0,0,1,.18,0,2.5,2.5,0,0,1,1,.91,2.68,2.68,0,0,1,.41,1.35,3.42,3.42,0,0,1-.34,1.58,3.85,3.85,0,0,1-.94,1.32,2.19,2.19,0,0,1-1.18.58,2.38,2.38,0,0,1-2.38-1.25,8,8,0,0,1-.64-1.93l-.45-1.21-1.16,2.52a.22.22,0,0,1-.15.15.26.26,0,0,1-.21,0l-1.07-.49a.28.28,0,0,1-.15-.15.34.34,0,0,1,0-.22l2.39-5.2A.29.29,0,0,1,193.69,174.22Z"/><path class="cls-1" d="M189.54,183.23a3.1,3.1,0,0,1,2.15.69l.83.67.83.73a3.27,3.27,0,0,1,.85,1.27,2.61,2.61,0,0,1,.09,1.47,3.75,3.75,0,0,1-.82,1.54,3.54,3.54,0,0,1-1.39,1.05,2.58,2.58,0,0,1-1.47.16,3.31,3.31,0,0,1-1.38-.63c-.17-.12-.45-.35-.86-.7s-.65-.56-.8-.7a3.12,3.12,0,0,1-1-2,3.22,3.22,0,0,1,.89-2.29A3.18,3.18,0,0,1,189.54,183.23Zm-1.08,3.12a1.65,1.65,0,0,0,.54.83c.16.15.41.37.78.68s.62.52.78.64a1.66,1.66,0,0,0,.9.4.9.9,0,0,0,.76-.36c.43-.51.33-1-.3-1.63l-.77-.67-.79-.66c-.68-.52-1.24-.54-1.66,0A.85.85,0,0,0,188.46,186.35Z"/><path class="cls-1" d="M183.17,188.93a.27.27,0,0,1,.19.1l.84,1.1a.23.23,0,0,1,.05.21.27.27,0,0,1-.1.18l-1.15.88a.29.29,0,0,1-.21.06.24.24,0,0,1-.19-.1l-.84-1.1a.29.29,0,0,1-.06-.21.3.3,0,0,1,.12-.19L183,189A.24.24,0,0,1,183.17,188.93Zm2.35,3a.29.29,0,0,1,.18.11l.84,1.1a.25.25,0,0,1,.06.2.28.28,0,0,1-.11.18l-1.15.89a.37.37,0,0,1-.21.06.27.27,0,0,1-.18-.11l-.85-1.1a.23.23,0,0,1,0-.21.29.29,0,0,1,.11-.18l1.15-.88A.26.26,0,0,1,185.52,192Z"/><path class="cls-1" d="M178.2,192.48a2.55,2.55,0,0,1,1.33.29,1.78,1.78,0,0,1,.75.74.23.23,0,0,1,0,.18.24.24,0,0,1-.13.13l-1.37.65a.43.43,0,0,1-.21,0,.52.52,0,0,1-.2-.08c-.28-.27-.7-.26-1.27,0a1.27,1.27,0,0,0-.65.59.84.84,0,0,0,0,.74c.24.5.69.59,1.35.28l1.12-.53a.28.28,0,0,1,.22,0,.33.33,0,0,1,.16.15l.27.59a.38.38,0,0,1,0,.41l-1,2.07,2.75-1.29a.25.25,0,0,1,.21,0,.26.26,0,0,1,.15.14l.47,1a.34.34,0,0,1,0,.22.26.26,0,0,1-.15.16l-4.63,2.19a.28.28,0,0,1-.22,0,.28.28,0,0,1-.15-.15l-.42-.89a.43.43,0,0,1,0-.4l.84-2h-.08a2.8,2.8,0,0,1-1.71.06,2,2,0,0,1-1.19-1.15,2.06,2.06,0,0,1-.17-1.35,2.71,2.71,0,0,1,.69-1.27,4.5,4.5,0,0,1,1.4-1A4.19,4.19,0,0,1,178.2,192.48Z"/><path class="cls-1" d="M170.25,196.06a3.14,3.14,0,0,1,1.2,1.92c.08.39.15.73.2,1.05s.1.68.16,1.08a3.31,3.31,0,0,1-.16,1.52,2.69,2.69,0,0,1-.89,1.18,3.57,3.57,0,0,1-1.61.65,3.74,3.74,0,0,1-1.75-.08,2.64,2.64,0,0,1-1.22-.83,3.16,3.16,0,0,1-.65-1.38q-.08-.3-.21-1.08c-.08-.51-.13-.86-.15-1.06a3.12,3.12,0,0,1,.51-2.2,3.73,3.73,0,0,1,4.57-.77Zm-2.84,1.69a1.66,1.66,0,0,0-.12,1c0,.21.07.55.15,1s.14.8.19,1a1.62,1.62,0,0,0,.43.88.91.91,0,0,0,.82.22c.65-.11.92-.59.81-1.45,0-.19-.07-.53-.15-1s-.14-.81-.19-1c-.17-.84-.59-1.21-1.24-1.1A.9.9,0,0,0,167.41,197.75Z"/><path class="cls-1" d="M162.07,195.48a.27.27,0,0,1,.05.18l-.44,2.19a.57.57,0,0,1-.13.27.39.39,0,0,1-.29.1l-1.33-.06a.18.18,0,0,1-.15-.07.17.17,0,0,1-.06-.16.5.5,0,0,1,0-.12l.95-2.15a.42.42,0,0,1,.42-.29l.81,0A.21.21,0,0,1,162.07,195.48Z"/><path class="cls-1" d="M146.41,192.65a.22.22,0,0,1,.14-.14.19.19,0,0,1,.18,0l1.61.65a.41.41,0,0,1,.27.35l.48,3.17.66.27,1-2.5a.25.25,0,0,1,.15-.15.28.28,0,0,1,.22,0l1.4.57a.28.28,0,0,1,.15.15.26.26,0,0,1,0,.21l-2.7,6.61a.26.26,0,0,1-.15.16.26.26,0,0,1-.21,0l-1.4-.57a.28.28,0,0,1-.15-.15.28.28,0,0,1,0-.22l1-2.41-.57-.24L146,200.29a.47.47,0,0,1-.47.05L144,199.7a.2.2,0,0,1-.13-.12.23.23,0,0,1,0-.18.18.18,0,0,1,.09-.1L147.1,197l-.7-4.2A.17.17,0,0,1,146.41,192.65Z"/><path class="cls-1" d="M143.62,191.3a2.91,2.91,0,0,1-.62,2.35l-.57.75-.6.75a2.92,2.92,0,0,1-2.13,1.17,3.63,3.63,0,0,1-2.42-.89,3.58,3.58,0,0,1-1.45-2.12,2.92,2.92,0,0,1,.61-2.36l.57-.77.6-.73a2.93,2.93,0,0,1,2.13-1.18,4.37,4.37,0,0,1,3.88,3Zm-3.43-1.1a1.47,1.47,0,0,0-.93.61c-.28.33-.47.56-.58.71l-.53.71a1.55,1.55,0,0,0-.37,1.07,1.23,1.23,0,0,0,.51.83,1.2,1.2,0,0,0,.94.29,1.49,1.49,0,0,0,.94-.61l.56-.7.55-.72a1.52,1.52,0,0,0,.36-1.06,1.23,1.23,0,0,0-.51-.85A1.21,1.21,0,0,0,140.19,190.2Z"/><path class="cls-1" d="M137.28,185.07a.29.29,0,0,1-.11.18l-5.82,4.14a.3.3,0,0,1-.21.05.29.29,0,0,1-.18-.11l-.88-1.23a.3.3,0,0,1-.05-.21.35.35,0,0,1,.12-.19l2.13-1.51-1.51-2.11-2.12,1.51a.29.29,0,0,1-.22,0,.25.25,0,0,1-.18-.12l-.87-1.22a.26.26,0,0,1,0-.21.26.26,0,0,1,.12-.19l5.81-4.14a.27.27,0,0,1,.21,0,.27.27,0,0,1,.18.12l.87,1.21a.28.28,0,0,1,0,.21.25.25,0,0,1-.11.19L132.27,183l1.5,2.11,2.2-1.56a.26.26,0,0,1,.21-.05.32.32,0,0,1,.18.13l.87,1.22A.24.24,0,0,1,137.28,185.07Z"/><path class="cls-1" d="M132,176.76a.23.23,0,0,1-.15.14l-6.74,2.38a.3.3,0,0,1-.21,0,.26.26,0,0,1-.15-.16l-1.72-4.9a.22.22,0,0,1,0-.21.29.29,0,0,1,.16-.15l1-.36a.25.25,0,0,1,.21,0,.24.24,0,0,1,.14.17l1.16,3.27,1.32-.46-1.08-3a.28.28,0,0,1,0-.22.26.26,0,0,1,.17-.14l.94-.34a.33.33,0,0,1,.22,0,.31.31,0,0,1,.15.17l1.07,3.05,1.35-.48-1.19-3.36a.33.33,0,0,1,0-.22.26.26,0,0,1,.17-.14l1-.37a.26.26,0,0,1,.21,0,.28.28,0,0,1,.14.16l1.75,5A.26.26,0,0,1,132,176.76Z"/><path class="cls-1" d="M130.74,162.91a.27.27,0,0,1-.19.1l-1.27.06.27,5.19a.24.24,0,0,1-.07.2.34.34,0,0,1-.2.09l-7.13.37a.27.27,0,0,1-.2-.07.31.31,0,0,1-.09-.19l-.08-1.51a.29.29,0,0,1,.26-.3l5.58-.29-.13-2.59-5.58.29a.24.24,0,0,1-.2-.07.25.25,0,0,1-.09-.2l-.08-1.49a.31.31,0,0,1,.07-.21.23.23,0,0,1,.19-.09l5.58-.3,0-.51a.24.24,0,0,1,.08-.2.25.25,0,0,1,.2-.09l2.81-.15a.27.27,0,0,1,.2.07.31.31,0,0,1,.09.19l.08,1.51A.26.26,0,0,1,130.74,162.91Z"/><path class="cls-1" d="M130,153.32a3.1,3.1,0,0,1-2.27.07l-1-.36-1-.42a3.24,3.24,0,0,1-1.22-.91,2.68,2.68,0,0,1-.57-1.36,3.49,3.49,0,0,1,.26-1.72,3.65,3.65,0,0,1,1-1.46,2.66,2.66,0,0,1,1.33-.64,3.33,3.33,0,0,1,1.52.14c.2.06.54.19,1,.38s.81.32,1,.4A3.14,3.14,0,0,1,131.7,149a3.21,3.21,0,0,1-.09,2.46A3.14,3.14,0,0,1,130,153.32Zm0-3.3a1.69,1.69,0,0,0-.79-.6l-1-.39-1-.34a1.71,1.71,0,0,0-1-.08.86.86,0,0,0-.6.6c-.24.61,0,1.09.83,1.43l.94.37c.44.18.77.3,1,.37.81.27,1.34.1,1.57-.52A.91.91,0,0,0,130,150Z"/><path class="cls-1" d="M135.35,144.09a.26.26,0,0,1-.21-.05l-4.2-3,.07,1.86a.31.31,0,0,1,0,.17.28.28,0,0,1-.24.11l-1.11,0a.44.44,0,0,1-.16-.06.27.27,0,0,1-.13-.24l-.13-3.22a.39.39,0,0,1,.08-.25l.84-1.19a.29.29,0,0,1,.18-.12.28.28,0,0,1,.21,0l5.84,4.13a.25.25,0,0,1,.11.18.33.33,0,0,1,0,.21l-.87,1.23A.34.34,0,0,1,135.35,144.09Z"/><path class="cls-1" d="M136,137.35a.26.26,0,0,1-.19-.09l-1-1a.32.32,0,0,1-.08-.2.31.31,0,0,1,.09-.19l1-1a.33.33,0,0,1,.2-.09.27.27,0,0,1,.2.09l1,1a.24.24,0,0,1,.08.2.27.27,0,0,1-.09.2l-1,1A.3.3,0,0,1,136,137.35Zm2.68,2.76a.26.26,0,0,1-.19-.08l-1-1a.28.28,0,0,1-.08-.2.31.31,0,0,1,.09-.18l1-1a.32.32,0,0,1,.2-.08.3.3,0,0,1,.2.08l1,1a.26.26,0,0,1,.08.2.28.28,0,0,1-.09.2l-1,1A.29.29,0,0,1,138.65,140.11Z"/><path class="cls-1" d="M142.19,136.8a.3.3,0,0,1-.17-.12l-.44-.7a.72.72,0,0,1-.06-.61l.34-1.39c.31-.82.54-1.45.68-1.88a5.16,5.16,0,0,0,.27-1.11,1.14,1.14,0,0,0-.12-.72.72.72,0,0,0-1.12-.26.82.82,0,0,0-.43.57,1.36,1.36,0,0,0,.08.71.32.32,0,0,1-.18.41l-1.23.77a.19.19,0,0,1-.18,0,.21.21,0,0,1-.15-.1,2.49,2.49,0,0,1-.35-1.32,2.64,2.64,0,0,1,.4-1.36,3.36,3.36,0,0,1,1.15-1.13,3.82,3.82,0,0,1,1.51-.59,2.24,2.24,0,0,1,1.3.16,2.4,2.4,0,0,1,1.31,2.36,7.74,7.74,0,0,1-.53,2l-.29,1.26,2.36-1.48a.32.32,0,0,1,.21,0,.27.27,0,0,1,.17.13l.62,1a.28.28,0,0,1,0,.2.31.31,0,0,1-.12.18l-4.86,3A.25.25,0,0,1,142.19,136.8Z"/><path class="cls-1" d="M150.58,131.55a3.07,3.07,0,0,1-1.42-1.76c-.13-.37-.23-.71-.32-1s-.19-.67-.29-1.07a3.26,3.26,0,0,1,0-1.52,2.65,2.65,0,0,1,.74-1.28,3.53,3.53,0,0,1,1.52-.84,3.65,3.65,0,0,1,1.74-.12,2.68,2.68,0,0,1,1.32.67,3.27,3.27,0,0,1,.81,1.3q.1.28.33,1c.15.49.24.83.28,1a3.35,3.35,0,0,1-4.69,3.55Zm2.62-2a1.65,1.65,0,0,0,0-1c0-.21-.14-.54-.27-1s-.24-.78-.31-1a1.66,1.66,0,0,0-.53-.83.9.9,0,0,0-.84-.11c-.63.18-.84.69-.64,1.53,0,.19.14.51.28,1s.23.79.3,1c.28.81.73,1.12,1.37.94A.91.91,0,0,0,153.2,129.54Z"/><path class="cls-1" d="M164.44,116a.33.33,0,0,1-.07-.29l1.57-10a.38.38,0,0,1,.16-.27.37.37,0,0,1,.31-.07l1.74.27a.57.57,0,0,1,.5.43l1.91,5.17,3.42-4.33a.59.59,0,0,1,.61-.26l1.75.28a.38.38,0,0,1,.26.16.36.36,0,0,1,.07.3l-1.57,10a.36.36,0,0,1-.16.26.45.45,0,0,1-.3.07l-2-.31a.4.4,0,0,1-.26-.16.39.39,0,0,1-.07-.29l.88-5.62-2.14,2.8a.64.64,0,0,1-.6.27l-.83-.14a.64.64,0,0,1-.49-.44L168,110.49l-.88,5.62a.42.42,0,0,1-.16.26.41.41,0,0,1-.31.06l-1.94-.3A.38.38,0,0,1,164.44,116Z"/><path class="cls-1" d="M177.57,118.73a.37.37,0,0,1,0-.31l.73-1.93a.4.4,0,0,1,.21-.23.41.41,0,0,1,.31,0l1.93.73a.37.37,0,0,1,.22.2.37.37,0,0,1,0,.31l-.73,1.94a.41.41,0,0,1-.5.23l-1.93-.73A.38.38,0,0,1,177.57,118.73Z"/><path class="cls-1" d="M187.81,122.61a4.1,4.1,0,0,1,.78-3.37c.16-.24.43-.6.78-1.09s.63-.85.82-1.08a4.16,4.16,0,0,1,3-1.76,6,6,0,0,1,5.61,4.13,4.12,4.12,0,0,1-.78,3.37c-.34.5-.6.87-.78,1.12s-.46.61-.82,1.06a4.14,4.14,0,0,1-3,1.76,5.19,5.19,0,0,1-3.45-1.2A5.29,5.29,0,0,1,187.81,122.61Zm4.9,1.42a2.13,2.13,0,0,0,1.31-.91c.38-.47.64-.82.8-1s.39-.55.72-1a2.2,2.2,0,0,0,.48-1.53,2,2,0,0,0-2.1-1.54,2.14,2.14,0,0,0-1.31.91l-.77,1q-.5.68-.75,1a2.15,2.15,0,0,0-.48,1.53,1.77,1.77,0,0,0,.77,1.17A1.74,1.74,0,0,0,192.71,124Z"/><path class="cls-1" d="M195.29,129.34a.36.36,0,0,1,.11-.23.49.49,0,0,1,.18-.08l6.07-.6,1.74-5.5a.5.5,0,0,1,.11-.16.35.35,0,0,1,.25-.06.31.31,0,0,1,.22.11l1.52,1.84a.62.62,0,0,1,.09.65l-1,3.1,3.26-.32a.62.62,0,0,1,.61.2l1.46,1.76a.31.31,0,0,1,.06.24.3.3,0,0,1-.11.22.46.46,0,0,1-.17.09l-5.73.61-1.75,5.9a.33.33,0,0,1-.11.15.3.3,0,0,1-.24.07.31.31,0,0,1-.22-.11l-1.58-1.91a.62.62,0,0,1-.1-.62l1-3.39-3.49.34a.61.61,0,0,1-.59-.22l-1.52-1.84A.34.34,0,0,1,195.29,129.34Z"/><path class="cls-1" d="M204.07,139.63a4.17,4.17,0,0,1,2.29-2.59l1.21-.59,1.23-.56a4.13,4.13,0,0,1,3.46-.13,6,6,0,0,1,3,6.3,4.15,4.15,0,0,1-2.29,2.6l-1.22.61c-.28.13-.69.32-1.23.55a4.12,4.12,0,0,1-3.44.13,5.17,5.17,0,0,1-2.47-2.69A5.27,5.27,0,0,1,204.07,139.63Zm3.65,3.59a2.18,2.18,0,0,0,1.58-.18l1.19-.53,1.13-.57a2.2,2.2,0,0,0,1.14-1.11,1.73,1.73,0,0,0-.11-1.38,1.76,1.76,0,0,0-1-1,2.18,2.18,0,0,0-1.58.18c-.27.11-.65.29-1.15.53l-1.17.56a2.18,2.18,0,0,0-1.14,1.12,1.72,1.72,0,0,0,.12,1.39A1.76,1.76,0,0,0,207.72,143.22Z"/><path class="cls-1" d="M208.1,152.39a.36.36,0,0,1,.25-.18l7.84-1.6-.56-2.7a.44.44,0,0,1,.05-.3.37.37,0,0,1,.26-.17l1.71-.36a.42.42,0,0,1,.31.06.39.39,0,0,1,.17.26l1.71,8.32a.4.4,0,0,1-.32.47l-1.72.36a.39.39,0,0,1-.3-.06.42.42,0,0,1-.16-.26l-.55-2.7L209,155.14a.39.39,0,0,1-.3-.06.43.43,0,0,1-.17-.26l-.43-2.13A.35.35,0,0,1,208.1,152.39Z"/><path class="cls-1" d="M209.48,160.44a.34.34,0,0,1,.28-.09l10.14.4a.36.36,0,0,1,.28.12.36.36,0,0,1,.11.28l-.08,2.14a.43.43,0,0,1-.13.29.39.39,0,0,1-.3.1l-3.7-.14-.14,3.68,3.7.15a.37.37,0,0,1,.28.13.39.39,0,0,1,.11.29l-.09,2.13a.34.34,0,0,1-.13.28.39.39,0,0,1-.29.11l-10.14-.41a.34.34,0,0,1-.27-.12.39.39,0,0,1-.1-.3l.08-2.12a.48.48,0,0,1,.12-.29.38.38,0,0,1,.29-.1l3.83.15.14-3.69-3.82-.15a.33.33,0,0,1-.28-.13.43.43,0,0,1-.1-.29l.09-2.14A.36.36,0,0,1,209.48,160.44Z"/><path class="cls-1" d="M205.59,182a.33.33,0,0,1,.29,0l9.6,3.33a.4.4,0,0,1,.23.21.41.41,0,0,1,0,.29l-.74,2.11a.34.34,0,0,1-.19.23.35.35,0,0,1-.3,0l-9.6-3.33a.39.39,0,0,1-.22-.2.35.35,0,0,1,0-.3l.73-2.11A.41.41,0,0,1,205.59,182Zm3.22-9.26a.37.37,0,0,1,.29,0l9.6,3.34a.38.38,0,0,1,.23.2.44.44,0,0,1,0,.3l-.7,2a.44.44,0,0,1-.2.24.37.37,0,0,1-.31,0l-3.14-1.09-.47,1.34a4.9,4.9,0,0,1-1.89,2.7,3.17,3.17,0,0,1-2.87.18A3.41,3.41,0,0,1,207.2,180a4.64,4.64,0,0,1,.1-3.31l1.31-3.75A.36.36,0,0,1,208.81,172.73Zm.64,4.65a1.21,1.21,0,0,0,.05,1,1.55,1.55,0,0,0,.85.65,1.17,1.17,0,0,0,1.68-.79l.45-1.28-2.59-.9Z"/><path class="cls-1" d="M203.12,187.12a.37.37,0,0,1,.3.08l8.15,6a.38.38,0,0,1,.16.27.4.4,0,0,1-.07.3l-1.27,1.71a.35.35,0,0,1-.26.16.4.4,0,0,1-.3-.07L204.91,192l2.44,7.16a.61.61,0,0,1-.07.61l-1.14,1.54a.35.35,0,0,1-.27.16.39.39,0,0,1-.29-.08l-8.17-6a.41.41,0,0,1-.15-.25.36.36,0,0,1,.07-.3l1.27-1.72a.44.44,0,0,1,.26-.17.41.41,0,0,1,.3.07l4.73,3.49-2.25-7a.86.86,0,0,1,0-.3.55.55,0,0,1,.13-.31l1.14-1.55A.35.35,0,0,1,203.12,187.12Zm8,9.5a2.12,2.12,0,0,1,1.73.42.31.31,0,0,1,.13.19.35.35,0,0,1-.06.23l-.78,1a.28.28,0,0,1-.2.13.36.36,0,0,1-.22-.07c-.43-.32-.83-.23-1.19.25a.75.75,0,0,0,.13,1.2.35.35,0,0,1,.12.19.33.33,0,0,1-.06.23l-.78,1.05a.28.28,0,0,1-.2.13.3.3,0,0,1-.22-.06,2.15,2.15,0,0,1-.91-1.53,3.91,3.91,0,0,1,2.51-3.41Z"/><path class="cls-1" d="M191.87,200a.44.44,0,0,1,.25.17l5.64,8.43a.45.45,0,0,1,.07.3.39.39,0,0,1-.17.25L194,211.63a5,5,0,0,1-3.16,1,3.26,3.26,0,0,1-2.47-1.61,3.14,3.14,0,0,1-.52-2.85,5.19,5.19,0,0,1,2.16-2.51l1.48-1-1.87-2.81a.36.36,0,0,1-.06-.29.35.35,0,0,1,.16-.25l1.87-1.25A.39.39,0,0,1,191.87,200Zm-.57,7.46a1.47,1.47,0,0,0-.65.84,1.25,1.25,0,0,0,.25,1,1.38,1.38,0,0,0,.82.63,1.28,1.28,0,0,0,1.07-.26l1.46-1-1.5-2.23Z"/><path class="cls-1" d="M177.76,219a.35.35,0,0,1-.19-.22l-3.44-9.57a.42.42,0,0,1,0-.29.37.37,0,0,1,.23-.21l2-.72a.39.39,0,0,1,.3,0,.36.36,0,0,1,.2.22l1.13,3.13,1.17-.42.55-3.7a.71.71,0,0,1,.48-.62l2.06-.74a.34.34,0,0,1,.26,0,.3.3,0,0,1,.17.18.35.35,0,0,1,0,.18l-.76,4.14a3.25,3.25,0,0,1,1.75.69,3.59,3.59,0,0,1,1.12,1.64,3.52,3.52,0,0,1,.17,1.94,3.26,3.26,0,0,1-1,1.71,5.2,5.2,0,0,1-2,1.22l-4,1.42A.37.37,0,0,1,177.76,219Zm1.93-3,1.51-.55a1.2,1.2,0,0,0,.77-.68,1.44,1.44,0,0,0,0-1.06,1.32,1.32,0,0,0-.63-.8,1.36,1.36,0,0,0-1,0l-1.51.55Z"/><path class="cls-1" d="M171.67,207.42a.41.41,0,0,1,.13.28l.33,4a.38.38,0,0,1-.08.3.4.4,0,0,1-.27.14l-.28,0c-.48,0-.78.49-.9,1.34a17.11,17.11,0,0,0,0,3.54l.27,3.14a.41.41,0,0,1-.1.29.4.4,0,0,1-.28.14l-7.43.61a.41.41,0,0,1-.3-.09.4.4,0,0,1-.14-.28l-.65-7.89-.72.06a.45.45,0,0,1-.3-.1.4.4,0,0,1-.14-.28l-.33-4a.41.41,0,0,1,.09-.3.42.42,0,0,1,.28-.14L163,208a.41.41,0,0,1,.3.09.4.4,0,0,1,.14.28l.15,1.77,5.46-.45-.14-1.78a.41.41,0,0,1,.09-.3.4.4,0,0,1,.28-.14l2.13-.17A.36.36,0,0,1,171.67,207.42Zm-6.78,5.26.48,5.7,2.49-.2-.11-1.31a10.31,10.31,0,0,1,.31-4.45Z"/><path class="cls-1" d="M158.9,208.94a.28.28,0,0,1,0,.25l-.82,3.07a.82.82,0,0,1-.21.36.51.51,0,0,1-.42.12l-1.88-.2a.28.28,0,0,1-.21-.12.29.29,0,0,1-.07-.23.48.48,0,0,1,0-.17l1.55-3a.6.6,0,0,1,.62-.37l1.14.13A.28.28,0,0,1,158.9,208.94Z"/><path class="cls-1" d="M148.79,208.48a.37.37,0,0,1,0,.31l-3.85,9.38a.43.43,0,0,1-.22.22.32.32,0,0,1-.3,0l-8.11-3.33a.37.37,0,0,1-.22-.22.37.37,0,0,1,0-.31l3.86-9.38a.35.35,0,0,1,.21-.22.42.42,0,0,1,.31,0l2,.81a.38.38,0,0,1,.22.21.32.32,0,0,1,0,.3l-3,7.35,3.42,1.4,3-7.34a.35.35,0,0,1,.21-.22.42.42,0,0,1,.31,0l2,.82A.37.37,0,0,1,148.79,208.48Z"/><path class="cls-1" d="M138.33,204a.34.34,0,0,1-.06.24l-.1.1-8.94,5.8a.62.62,0,0,1-.77,0l-2-1.47a.62.62,0,0,1-.23-.74l3.14-10.19a.88.88,0,0,1,.07-.12.34.34,0,0,1,.22-.12.31.31,0,0,1,.24.06l1.62,1.22a.54.54,0,0,1,.22.6l-.46,1.55,3.26,2.47,1.37-.87a.54.54,0,0,1,.63,0l1.62,1.23A.36.36,0,0,1,138.33,204Zm-5.67.85-2.22-1.68-1.3,4Z"/><path class="cls-1" d="M128.3,195.91a.36.36,0,0,1-.14.27l-7.89,6.36a.47.47,0,0,1-.3.1.41.41,0,0,1-.27-.15l-2.77-3.44a5,5,0,0,1-1.28-3.06,3.23,3.23,0,0,1,1.37-2.6,3.15,3.15,0,0,1,2.81-.77,5.1,5.1,0,0,1,2.68,1.93l1.12,1.38,2.63-2.12a.4.4,0,0,1,.28-.08.36.36,0,0,1,.27.14l1.41,1.76A.32.32,0,0,1,128.3,195.91Zm-7.48.1a1.42,1.42,0,0,0-.89-.58,1.33,1.33,0,0,0-1,.34,1.41,1.41,0,0,0-.56.88,1.38,1.38,0,0,0,.36,1l1.1,1.36,2.09-1.69Z"/><path class="cls-1" d="M117.27,178.39a.39.39,0,0,1,.28,0,.37.37,0,0,1,.19.18l1,2.24a.57.57,0,0,1,0,.63l-2.57,3.76.43.92,3.48-1.61a.35.35,0,0,1,.3,0,.43.43,0,0,1,.22.22l.9,1.94a.36.36,0,0,1,0,.3.35.35,0,0,1-.21.22l-9.2,4.27a.42.42,0,0,1-.31,0,.41.41,0,0,1-.22-.21l-.9-1.94a.38.38,0,0,1,0-.31.4.4,0,0,1,.21-.23l3.36-1.56-.36-.8-4.4-.44a.65.65,0,0,1-.53-.41l-1-2.16a.34.34,0,0,1,0-.26.33.33,0,0,1,.17-.18.28.28,0,0,1,.2,0l5.53.62,3.32-5A.28.28,0,0,1,117.27,178.39Z"/><path class="cls-1" d="M115.64,170.46a3.58,3.58,0,0,1-1,1.62,3.15,3.15,0,0,1-1.42.72h0a.25.25,0,0,1-.21-.08.33.33,0,0,1-.11-.22l-.21-2.12a.56.56,0,0,1,0-.3.93.93,0,0,1,.19-.22,1.63,1.63,0,0,0,.61-1.71,2.56,2.56,0,0,0-.42-1.25,1,1,0,0,0-.89-.38,1,1,0,0,0-.81.51,2.23,2.23,0,0,0-.17,1.25l.12,1.15a.41.41,0,0,1-.1.29.44.44,0,0,1-.28.14l-1.33.13a.41.41,0,0,1-.3-.09.37.37,0,0,1-.16-.26l-.1-1.12a1.91,1.91,0,0,0-.36-1,.94.94,0,0,0-.84-.3,1,1,0,0,0-.73.46,1.75,1.75,0,0,0-.19,1.09,2.41,2.41,0,0,0,.31,1,.93.93,0,0,0,.62.46.47.47,0,0,1,.22.15.41.41,0,0,1,.09.25l.21,2.17a.36.36,0,0,1-.07.26.27.27,0,0,1-.22.11,3.17,3.17,0,0,1-2.28-1,5.27,5.27,0,0,1-1.22-3.24,5.9,5.9,0,0,1,.2-2.34,3.69,3.69,0,0,1,1-1.63,2.54,2.54,0,0,1,1.5-.69,3.05,3.05,0,0,1,1.28.15,2.13,2.13,0,0,1,1,.85,2.61,2.61,0,0,1,1-1.28,3.09,3.09,0,0,1,1.43-.51,2.89,2.89,0,0,1,1.81.4,3.74,3.74,0,0,1,1.32,1.52,6.92,6.92,0,0,1,.66,2.45A6.45,6.45,0,0,1,115.64,170.46Z"/><path class="cls-1" d="M115.06,161.66a.32.32,0,0,1-.24.07l-.14,0-9.38-5.07a.61.61,0,0,1-.36-.68l.36-2.41a.61.61,0,0,1,.54-.56l10.44-2.14a.36.36,0,0,1,.14,0,.3.3,0,0,1,.21.13.32.32,0,0,1,.07.24l-.3,2a.53.53,0,0,1-.41.47l-1.59.34-.59,4.05,1.42.78a.55.55,0,0,1,.26.57l-.3,2A.27.27,0,0,1,115.06,161.66Zm-3.48-4.56.41-2.75-4.15.79Z"/><path class="cls-1" d="M117.33,149a.39.39,0,0,1-.3,0l-9.37-3.89a.41.41,0,0,1-.22-.21.34.34,0,0,1,0-.31l1.69-4.08a5,5,0,0,1,2.08-2.59,3.22,3.22,0,0,1,2.94,0,3.13,3.13,0,0,1,2,2.09,5.18,5.18,0,0,1-.41,3.28l-.69,1.65,3.12,1.29a.36.36,0,0,1,.21.21.32.32,0,0,1,0,.3l-.86,2.08A.36.36,0,0,1,117.33,149Zm-3.67-6.52a1.43,1.43,0,0,0,.08-1.06,1.23,1.23,0,0,0-.77-.72,1.41,1.41,0,0,0-1-.07,1.32,1.32,0,0,0-.75.81l-.67,1.62,2.48,1Z"/><path class="cls-1" d="M118.51,125.4a.39.39,0,0,1,.29.08l8.17,6a.41.41,0,0,1,.15.25.36.36,0,0,1-.07.3l-1.28,1.72a.41.41,0,0,1-.25.15.37.37,0,0,1-.29-.07l-2.68-2-.74,1,1.59,3.39a.69.69,0,0,1-.05.77l-1.3,1.76a.35.35,0,0,1-.23.14.34.34,0,0,1-.24-.06.33.33,0,0,1-.11-.14l-1.66-3.87a3.16,3.16,0,0,1-1.84.39,3.46,3.46,0,0,1-1.84-.73,3.51,3.51,0,0,1-1.22-1.53,3.25,3.25,0,0,1-.16-1.94,5.24,5.24,0,0,1,1-2.14l2.51-3.38A.38.38,0,0,1,118.51,125.4Zm0,3.54-1,1.29a1.23,1.23,0,0,0-.26,1,1.45,1.45,0,0,0,.6.87,1.34,1.34,0,0,0,1,.31,1.28,1.28,0,0,0,.85-.58l1-1.29Z"/><path class="cls-1" d="M130.06,131.63a.37.37,0,0,1-.27-.15l-2.48-3.12a.38.38,0,0,1-.1-.3.37.37,0,0,1,.15-.26l.22-.18c.37-.3.37-.83,0-1.61a16.38,16.38,0,0,0-2-2.94l-2-2.47a.35.35,0,0,1-.09-.29.45.45,0,0,1,.16-.27l5.83-4.64a.41.41,0,0,1,.3-.09.37.37,0,0,1,.27.15l4.94,6.2.56-.45a.41.41,0,0,1,.3-.09.42.42,0,0,1,.27.16l2.49,3.11a.41.41,0,0,1,.09.3.47.47,0,0,1-.16.28L137,126.29a.41.41,0,0,1-.3.09.37.37,0,0,1-.27-.15l-1.11-1.4L131,128.25l1.11,1.39a.41.41,0,0,1,.09.3.47.47,0,0,1-.16.28l-1.67,1.33A.35.35,0,0,1,130.06,131.63Zm2.7-8.14L129.2,119l-2,1.56.82,1a10.65,10.65,0,0,1,2.22,3.87Z"/><path class="cls-1" d="M139.59,121.88a.43.43,0,0,1-.22-.2l-4.13-9.29a.39.39,0,0,1,0-.3.38.38,0,0,1,.2-.21l2-.87a.37.37,0,0,1,.31,0,.35.35,0,0,1,.22.21l1.35,3,1.45-.64a4.89,4.89,0,0,1,3.26-.47,3.2,3.2,0,0,1,2.09,2,3.38,3.38,0,0,1,.06,2.91,4.58,4.58,0,0,1-2.48,2.19l-3.77,1.67A.35.35,0,0,1,139.59,121.88Zm3.1-3.71a1.21,1.21,0,0,0,.72-.75,1.51,1.51,0,0,0-.11-1.07,1.36,1.36,0,0,0-.71-.77,1.31,1.31,0,0,0-1,.09l-1.39.61,1.11,2.5Z"/><path class="cls-1" d="M149.84,117.73a.36.36,0,0,1-.16-.25l-1.87-10a.39.39,0,0,1,.05-.3.37.37,0,0,1,.26-.17l7.25-1.36a.39.39,0,0,1,.3.06.41.41,0,0,1,.17.27l.29,1.52a.36.36,0,0,1-.07.3.42.42,0,0,1-.26.16l-4.85.91.36,1.95,4.52-.85a.39.39,0,0,1,.3.06.41.41,0,0,1,.17.27l.26,1.39a.37.37,0,0,1-.06.31.39.39,0,0,1-.26.17l-4.52.84.38,2,5-.93a.4.4,0,0,1,.47.32l.28,1.52a.34.34,0,0,1-.06.3.38.38,0,0,1-.26.16l-7.38,1.39A.39.39,0,0,1,149.84,117.73Z"/><path class="cls-1" d="M164.66,99.59a.51.51,0,0,1-.11-.39l.2-1.57a1.34,1.34,0,0,1,.66-1L167.6,95c1.45-.83,2.56-1.48,3.3-2a10.54,10.54,0,0,0,1.75-1.32,2.13,2.13,0,0,0,.69-1.22A1.38,1.38,0,0,0,172,88.76a1.6,1.6,0,0,0-1.32.34,2.52,2.52,0,0,0-.74,1.14.66.66,0,0,1-.78.39l-2.76-.35a.45.45,0,0,1-.3-.18.4.4,0,0,1-.1-.32,4.8,4.8,0,0,1,1.08-2.4,5.12,5.12,0,0,1,2.25-1.52,6.5,6.5,0,0,1,3.08-.27,7.65,7.65,0,0,1,3,1,4.2,4.2,0,0,1,2.08,4.31,4.44,4.44,0,0,1-1.28,2.6A15.09,15.09,0,0,1,173,95.72l-2,1.51,5.3.68a.5.5,0,0,1,.35.2.49.49,0,0,1,.1.39l-.29,2.24a.56.56,0,0,1-.19.35.5.5,0,0,1-.4.1L165,99.79A.51.51,0,0,1,164.66,99.59Z"/><path class="cls-1" d="M182.75,102.81a4.67,4.67,0,0,1-1.33-2.34,4.27,4.27,0,0,1,.24-2.44,3.7,3.7,0,0,1,1.26-1.65,4,4,0,0,1,1.87-.74,3.21,3.21,0,0,1-.3-3.25,3.75,3.75,0,0,1,2.47-2.3,8.23,8.23,0,0,1,7.9,3.14,3.75,3.75,0,0,1,.18,3.36,3.35,3.35,0,0,1-2.42,2.19,3.4,3.4,0,0,1,.88,1.8,3.87,3.87,0,0,1-.24,2.11,4.08,4.08,0,0,1-1.52,1.92,4.71,4.71,0,0,1-2.57.77,10,10,0,0,1-6.42-2.57Zm5.71-.59a1.61,1.61,0,0,0,1.1-1,1.63,1.63,0,0,0-.09-1.49,2.91,2.91,0,0,0-3.05-1.22,1.71,1.71,0,0,0-1,2.5,2.64,2.64,0,0,0,1.34,1.09A2.54,2.54,0,0,0,188.46,102.22Zm2.18-5.93a1.39,1.39,0,0,0,1-.85,1.42,1.42,0,0,0-.09-1.3,2.28,2.28,0,0,0-1.19-1,2.18,2.18,0,0,0-1.53-.12,1.5,1.5,0,0,0-.87,2.17,2.27,2.27,0,0,0,1.2,1A2.31,2.31,0,0,0,190.64,96.29Z"/><path class="cls-1" d="M219.41,110a.48.48,0,0,1-.15.38L210,120.41a.51.51,0,0,1-.36.17.5.5,0,0,1-.38-.14l-2.13-2a.55.55,0,0,1-.16-.37.52.52,0,0,1,.13-.38l3.05-3.3-1.24-1.14-4.77,1.65a1,1,0,0,1-1-.18l-2.17-2a.41.41,0,0,1-.15-.32.43.43,0,0,1,.1-.32.54.54,0,0,1,.21-.13l5.44-1.67a4.38,4.38,0,0,1-.27-2.52,5.21,5.21,0,0,1,3.47-3.78,4.58,4.58,0,0,1,2.64.06,7.29,7.29,0,0,1,2.72,1.66l4.16,3.85A.47.47,0,0,1,219.41,110Zm-4.74-.45-1.6-1.47a1.66,1.66,0,0,0-1.3-.49,1.94,1.94,0,0,0-1.26.68,1.8,1.8,0,0,0-.55,1.26,1.75,1.75,0,0,0,.65,1.22l1.6,1.47Z"/><path class="cls-1" d="M212.84,124.39a.5.5,0,0,1,.24-.33l11.61-7.23a.57.57,0,0,1,.41-.09.5.5,0,0,1,.34.24l1.53,2.45a.54.54,0,0,1-.18.76l-4.24,2.64,2.63,4.23,4.24-2.65a.56.56,0,0,1,.42-.07.53.53,0,0,1,.34.25l1.51,2.43a.52.52,0,0,1,.08.42.57.57,0,0,1-.25.34L219.91,135a.47.47,0,0,1-.41.07.55.55,0,0,1-.33-.25l-1.52-2.44a.54.54,0,0,1-.08-.41.5.5,0,0,1,.24-.33l4.38-2.73-2.63-4.23-4.38,2.74a.5.5,0,0,1-.41.06.51.51,0,0,1-.33-.25l-1.53-2.45A.53.53,0,0,1,212.84,124.39Z"/><path class="cls-1" d="M221.5,139.63a.49.49,0,0,1,.31-.25l13.12-3.87a.51.51,0,0,1,.42,0,.53.53,0,0,1,.26.32l1.84,6.24a6.12,6.12,0,0,1,.07,4.14,3.81,3.81,0,0,1-2.62,2.13,2.86,2.86,0,0,1-1.83,0,3.39,3.39,0,0,1-1.37-.84,3.35,3.35,0,0,1-.79,1.75,3.43,3.43,0,0,1-1.72,1.13,4.1,4.1,0,0,1-3.57-.41,6,6,0,0,1-2.27-3.52l-1.9-6.43A.48.48,0,0,1,221.5,139.63Zm4.45,5.6a1.69,1.69,0,0,0,.82,1.09,1.63,1.63,0,0,0,1.25.11,1.65,1.65,0,0,0,1-.79,1.7,1.7,0,0,0,.1-1.34l-.8-2.71-3.18.93Zm5.77-1.9a1.65,1.65,0,0,0,.75,1,1.47,1.47,0,0,0,1.17.09,1.43,1.43,0,0,0,.9-.7,1.61,1.61,0,0,0,.05-1.27l-.74-2.53-2.87.84Z"/><path class="cls-1" d="M230.62,162.65a.5.5,0,0,1,.39-.13l2.11.12a.53.53,0,0,1,.37.18.56.56,0,0,1,.12.4l-.5,8.52a.52.52,0,0,1-.17.37.5.5,0,0,1-.39.13l-2.1-.12a.53.53,0,0,1-.36-.17.51.51,0,0,1-.14-.39l.5-8.53A.58.58,0,0,1,230.62,162.65Z"/><path class="cls-1" d="M223.06,182.43a.47.47,0,0,1,.4,0l1.46.61a1.28,1.28,0,0,1,.77.9l1,2.55c.42,1.62.75,2.86,1,3.7a11.11,11.11,0,0,0,.8,2,2.22,2.22,0,0,0,1,1,1.38,1.38,0,0,0,2-.84,1.57,1.57,0,0,0,0-1.35,2.61,2.61,0,0,0-.91-1,.65.65,0,0,1-.17-.85l1.09-2.56a.44.44,0,0,1,.25-.25.4.4,0,0,1,.34,0,4.81,4.81,0,0,1,2,1.68,5.18,5.18,0,0,1,.86,2.57,6.6,6.6,0,0,1-.56,3,7.51,7.51,0,0,1-1.72,2.6,4.33,4.33,0,0,1-2.23,1.17,4.56,4.56,0,0,1-4.63-2.25,14.64,14.64,0,0,1-1.34-3.67l-.93-2.29-2.08,4.91a.52.52,0,0,1-.28.3.53.53,0,0,1-.41,0l-2.08-.87a.55.55,0,0,1-.28-.28.49.49,0,0,1,0-.41l4.27-10.12A.53.53,0,0,1,223.06,182.43Z"/><path class="cls-1" d="M207.52,206.76a.49.49,0,0,1,.37.16l1,1a7.69,7.69,0,0,1,4.51-2.43,5.68,5.68,0,0,1,4.34,1.62l.56.54.53.57a5.44,5.44,0,0,1,1.5,4.37,7.58,7.58,0,0,1-2.47,4.49l.82.85a.52.52,0,0,1,.17.38.52.52,0,0,1-.16.38l-2.06,2a.53.53,0,0,1-.39.16.54.54,0,0,1-.39-.17l-.83-.84a7.66,7.66,0,0,1-4.54,2.38,5.43,5.43,0,0,1-4.32-1.61l-.58-.53-.51-.59a5.59,5.59,0,0,1-1.54-4.35,7.64,7.64,0,0,1,2.53-4.46l-1-1a.48.48,0,0,1-.15-.38.58.58,0,0,1,.17-.38l2.07-2A.5.5,0,0,1,207.52,206.76Zm-.25,8.07a2.72,2.72,0,0,0,.79,1.93,6.3,6.3,0,0,0,.49.53c.25.26.41.41.48.47a2.79,2.79,0,0,0,1.93.81,3,3,0,0,0,1.89-1L208.31,213A3,3,0,0,0,207.27,214.83Zm8.37,0a2.82,2.82,0,0,0,1-2,3.2,3.2,0,0,0-1.1-2.12l-.65-.67a2.67,2.67,0,0,0-1.92-.82,3,3,0,0,0-1.89,1Z"/><path class="cls-1" d="M196.54,216.87a.52.52,0,0,1,.31.25l6.4,12.09a.57.57,0,0,1,.06.42.53.53,0,0,1-.27.32l-8.79,4.65a.52.52,0,0,1-.42,0,.5.5,0,0,1-.32-.27l-1-1.84a.51.51,0,0,1,.24-.72l5.89-3.12-1.26-2.37-5.47,2.9a.52.52,0,0,1-.42.05.57.57,0,0,1-.32-.27l-.9-1.7a.52.52,0,0,1,0-.42.57.57,0,0,1,.27-.32l5.48-2.9-1.28-2.42-6,3.19a.48.48,0,0,1-.42,0,.52.52,0,0,1-.32-.26l-1-1.85a.46.46,0,0,1,0-.41.52.52,0,0,1,.27-.31l8.95-4.74A.5.5,0,0,1,196.54,216.87Z"/><path class="cls-1" d="M182.71,223.57a.48.48,0,0,1,.24.32l3.16,13.31a.61.61,0,0,1-.06.42.52.52,0,0,1-.33.24l-6.34,1.5a6.11,6.11,0,0,1-4.13-.15,3.83,3.83,0,0,1-2-2.73,2.84,2.84,0,0,1,.12-1.83,3.44,3.44,0,0,1,.91-1.32,3.5,3.5,0,0,1-2.73-2.67,4.07,4.07,0,0,1,.6-3.54,6.13,6.13,0,0,1,3.63-2.08l6.53-1.54A.5.5,0,0,1,182.71,223.57Zm-5.83,4.14a1.69,1.69,0,0,0-1.13.76,1.75,1.75,0,0,0,.55,2.29,1.65,1.65,0,0,0,1.34.17l2.75-.65-.76-3.22Zm1.59,5.87a1.66,1.66,0,0,0-1.08.68,1.47,1.47,0,0,0-.15,1.17,1.43,1.43,0,0,0,.64.94,1.69,1.69,0,0,0,1.28.12l2.56-.61L181,233Z"/><path class="cls-1" d="M151.76,225.77a.5.5,0,0,1,.11.4l-.6,4.41a3,3,0,0,1,1.36-.43,7.46,7.46,0,0,1,1.76,0,5.37,5.37,0,0,1,3.79,1.86,5.68,5.68,0,0,1,.75,4.22l-.62,4.59a.48.48,0,0,1-.21.36.55.55,0,0,1-.4.09l-2.84-.38a.54.54,0,0,1-.37-.2.49.49,0,0,1-.11-.39l.6-4.41a2,2,0,0,0-.3-1.57,2.49,2.49,0,0,0-1.59-.69,4,4,0,0,0-1.55.09,1,1,0,0,0-.81.81l-.69,5.18a.48.48,0,0,1-.21.35.53.53,0,0,1-.41.1l-2.84-.38a.59.59,0,0,1-.37-.2.51.51,0,0,1-.1-.4l1.83-13.58a.52.52,0,0,1,.21-.36.55.55,0,0,1,.4-.09l2.84.38A.54.54,0,0,1,151.76,225.77Z"/><path class="cls-1" d="M140.15,222.66a.49.49,0,0,1,0,.41l-4.07,10,3.43,1.4a.51.51,0,0,1,.31.28.49.49,0,0,1,0,.41l-.89,2.19a.57.57,0,0,1-.29.3.51.51,0,0,1-.42,0l-10.61-4.32a.53.53,0,0,1-.3-.29.51.51,0,0,1,0-.42l.89-2.19a.52.52,0,0,1,.29-.29.56.56,0,0,1,.42,0l3.44,1.4,4.07-10a.49.49,0,0,1,.29-.29.53.53,0,0,1,.41,0l2.72,1.1A.57.57,0,0,1,140.15,222.66Z"/><path class="cls-1" d="M130.79,216.43a.44.44,0,0,1-.1.32L127.85,220a1,1,0,0,1-.48.31.67.67,0,0,1-.58-.11l-2.14-1.38a.37.37,0,0,1-.18-.27.37.37,0,0,1,0-.31.93.93,0,0,1,.16-.18l3.65-2.63a.81.81,0,0,1,1-.08l1.29.83A.41.41,0,0,1,130.79,216.43Z"/><path class="cls-1" d="M117.51,208.49a.51.51,0,0,1-.2.36l-10.53,8.73a.54.54,0,0,1-.4.13.5.5,0,0,1-.36-.19l-7.55-9.11a.54.54,0,0,1-.13-.4.55.55,0,0,1,.2-.37l10.54-8.73a.48.48,0,0,1,.39-.12.56.56,0,0,1,.37.21l1.83,2.21a.52.52,0,0,1,.13.39.48.48,0,0,1-.19.36l-8.25,6.84,3.18,3.83,8.24-6.83a.49.49,0,0,1,.4-.12.51.51,0,0,1,.36.2l1.84,2.23A.51.51,0,0,1,117.51,208.49Z"/><path class="cls-1" d="M105.56,191.52a.49.49,0,0,1-.28.3l-9.8,4.54L97,199.73a.5.5,0,0,1,0,.41.49.49,0,0,1-.27.31l-2.15,1a.56.56,0,0,1-.42,0,.5.5,0,0,1-.3-.29l-4.82-10.39a.56.56,0,0,1,0-.42.59.59,0,0,1,.29-.31l2.14-1a.49.49,0,0,1,.41,0,.5.5,0,0,1,.3.29l1.56,3.37,9.8-4.54a.49.49,0,0,1,.41,0,.6.6,0,0,1,.3.29l1.23,2.66A.61.61,0,0,1,105.56,191.52Z"/><path class="cls-1" d="M103,180.56a.37.37,0,0,1-.29.17l-4.27.41a1,1,0,0,1-.56-.1.64.64,0,0,1-.34-.47l-.63-2.48a.41.41,0,0,1,0-.32.43.43,0,0,1,.25-.19.67.67,0,0,1,.24,0l4.47.57a.8.8,0,0,1,.76.61l.38,1.49A.38.38,0,0,1,103,180.56Z"/><path class="cls-1" d="M97.69,164.42a5.54,5.54,0,0,1-4.35,1.6c-.38,0-1,0-1.85-.07l-1.9-.12a5.57,5.57,0,0,1-4.12-2.07A7,7,0,0,1,84.23,159a8.68,8.68,0,0,1,.79-3.33,5.25,5.25,0,0,1,1.89-2.25,4.61,4.61,0,0,1,2.78-.76.37.37,0,0,1,.31.15.46.46,0,0,1,.11.33l-.16,3a.63.63,0,0,1-.14.43,1,1,0,0,1-.44.22,2.49,2.49,0,0,0-1.49.82,2.73,2.73,0,0,0-.49,1.56c-.09,1.59.76,2.46,2.52,2.61l1.75.11,1.79.07c1.77,0,2.7-.74,2.78-2.32a2.77,2.77,0,0,0-.34-1.61,2.37,2.37,0,0,0-1.38-1,.82.82,0,0,1-.42-.26.66.66,0,0,1-.09-.45l.15-3a.55.55,0,0,1,.14-.32.48.48,0,0,1,.33-.12,4.76,4.76,0,0,1,2.69,1.05A5.42,5.42,0,0,1,99,156.38a8.78,8.78,0,0,1,.44,3.39A7.1,7.1,0,0,1,97.69,164.42Z"/><path class="cls-1" d="M100.28,149.08a.51.51,0,0,1-.4,0l-13-4.14a.58.58,0,0,1-.33-.26.49.49,0,0,1,0-.41l3.09-9.73a.54.54,0,0,1,.27-.32.51.51,0,0,1,.42,0l2.11.67a.48.48,0,0,1,.32.27.55.55,0,0,1,0,.42L90.67,142l2.23.7.86-2.69a6.16,6.16,0,0,1,2.37-3.47,4,4,0,0,1,3.58-.41,4.42,4.42,0,0,1,2.06,1.33,4.35,4.35,0,0,1,1,2.3,6.74,6.74,0,0,1-.33,3l-1.9,6A.5.5,0,0,1,100.28,149.08Zm-.66-6.8a1.68,1.68,0,0,0-.1-1.38,1.9,1.9,0,0,0-1.08-.83,1.62,1.62,0,0,0-2.16,1.15l-.74,2.35,3.33,1.06Z"/><path class="cls-1" d="M106.94,135.69a.39.39,0,0,1-.33-.07L103.2,133a1,1,0,0,1-.35-.45.7.7,0,0,1,.07-.59l1.22-2.24a.42.42,0,0,1,.25-.2.44.44,0,0,1,.32,0,.54.54,0,0,1,.18.15l2.91,3.45a.8.8,0,0,1,.14,1l-.73,1.35A.37.37,0,0,1,106.94,135.69Z"/><path class="cls-1" d="M113.91,121.88a.53.53,0,0,1-.37-.16l-9.55-9.8a.53.53,0,0,1-.16-.39.45.45,0,0,1,.16-.37l4.66-4.55a6.11,6.11,0,0,1,3.62-2,3.82,3.82,0,0,1,3.12,1.32,2.88,2.88,0,0,1,.83,1.63,3.35,3.35,0,0,1-.1,1.6,3.58,3.58,0,0,1,3.72.89,4.08,4.08,0,0,1,1.3,3.35,6.09,6.09,0,0,1-2,3.64l-4.81,4.68A.5.5,0,0,1,113.91,121.88Zm-1.5-10.77A1.69,1.69,0,0,0,113,110a1.51,1.51,0,0,0-.46-1.08,1.41,1.41,0,0,0-1-.48,1.65,1.65,0,0,0-1.16.55l-1.89,1.84,2.09,2.14Zm4.37,4.21a1.67,1.67,0,0,0,.59-1.23,1.77,1.77,0,0,0-1.66-1.68,1.72,1.72,0,0,0-1.24.54l-2,2,2.31,2.37Z"/><path class="cls-1" d="M126.87,109.15a5.56,5.56,0,0,1-3.67-2.83c-.2-.32-.51-.86-.93-1.61s-.72-1.31-.9-1.66a5.59,5.59,0,0,1-.46-4.59,7,7,0,0,1,3.39-3.6,8.81,8.81,0,0,1,3.24-1.11,5.43,5.43,0,0,1,2.91.4,4.65,4.65,0,0,1,2.13,1.95.45.45,0,0,1,0,.34.47.47,0,0,1-.23.27l-2.61,1.46a.6.6,0,0,1-.43.11.94.94,0,0,1-.43-.25,2.53,2.53,0,0,0-1.48-.83,2.8,2.8,0,0,0-1.59.42q-2.09,1.17-.86,3.52c.17.34.45.85.83,1.54s.69,1.21.9,1.55q1.36,2.28,3.45,1.12a2.79,2.79,0,0,0,1.18-1.15,2.36,2.36,0,0,0,.08-1.68.9.9,0,0,1,0-.49.68.68,0,0,1,.33-.32l2.62-1.46a.45.45,0,0,1,.34,0,.4.4,0,0,1,.28.21,4.63,4.63,0,0,1,.54,2.83,5.43,5.43,0,0,1-1.18,2.7,9,9,0,0,1-2.64,2.17A7.08,7.08,0,0,1,126.87,109.15Z"/><path class="cls-1" d="M153.57,99.7a.52.52,0,0,1,0,.37.45.45,0,0,1-.28.21l-3.24.81a.75.75,0,0,1-.81-.23l-4.33-4.35-1.33.34,1.25,5a.49.49,0,0,1-.06.41.51.51,0,0,1-.34.23l-2.8.71a.53.53,0,0,1-.41-.06.5.5,0,0,1-.23-.33l-3.33-13.27a.52.52,0,0,1,0-.41.5.5,0,0,1,.33-.25l2.8-.7a.55.55,0,0,1,.67.4l1.21,4.84,1.15-.28,1.7-5.71a.89.89,0,0,1,.67-.61l3.13-.78a.41.41,0,0,1,.34,0,.43.43,0,0,1,.2.27.48.48,0,0,1,0,.27l-2.23,7.16,5.84,5.69A.53.53,0,0,1,153.57,99.7Z"/><path class="cls-1" d="M165.46,74.62a.81.81,0,0,1-.15-.68l4.25-23.06a.94.94,0,0,1,1.1-.76l4,.74a1.37,1.37,0,0,1,1.14,1L179.9,64l8.17-9.81a1.35,1.35,0,0,1,1.42-.55l4,.74a.91.91,0,0,1,.61.39.89.89,0,0,1,.15.71L190,78.49a.85.85,0,0,1-.39.59,1,1,0,0,1-.7.13l-4.51-.84a.87.87,0,0,1-.58-.38.9.9,0,0,1-.15-.67l2.39-12.93-5.14,6.33a1.41,1.41,0,0,1-1.39.58L177.62,71a1.53,1.53,0,0,1-1.09-1L174,62.17,171.64,75.1a.85.85,0,0,1-.39.59.94.94,0,0,1-.7.13L166.07,75A.91.91,0,0,1,165.46,74.62Z"/><path class="cls-1" d="M193,80.25a.74.74,0,0,1,.05-.57.94.94,0,0,1,.19-.27l18.46-16.32a1.42,1.42,0,0,1,1.77-.23l4.95,2.7a1.4,1.4,0,0,1,.77,1.61l-3.68,24.37a1,1,0,0,1-.12.3.73.73,0,0,1-.46.35.74.74,0,0,1-.57,0l-4.12-2.24a1.25,1.25,0,0,1-.7-1.29l.53-3.7-8.32-4.52-2.81,2.45a1.25,1.25,0,0,1-1.46.11l-4.13-2.24A.73.73,0,0,1,193,80.25Zm12.68-3.9,5.65,3.08,1.58-9.63Z"/><path class="cls-1" d="M216.09,93.17a.69.69,0,0,1,.21-.53.87.87,0,0,1,.38-.23l13.85-2.7,2.79-13a.94.94,0,0,1,.23-.39.83.83,0,0,1,1.08,0l3.9,3.91a1.5,1.5,0,0,1,.36,1.49L237.33,89l7.43-1.45a1.47,1.47,0,0,1,1.46.33l3.72,3.73a.8.8,0,0,1,0,1.08,1,1,0,0,1-.38.23L236.5,95.59l-2.72,14a.87.87,0,0,1-.23.38.69.69,0,0,1-.53.2.75.75,0,0,1-.54-.2l-4-4a1.41,1.41,0,0,1-.38-1.41l1.48-8L221.61,98a1.46,1.46,0,0,1-1.41-.39l-3.91-3.91A.77.77,0,0,1,216.09,93.17Z"/><path class="cls-1" d="M237.73,114.23q.78-3.8,5-6.27c.58-.34,1.48-.84,2.71-1.51s2.15-1.16,2.78-1.47a9.55,9.55,0,0,1,8-.73,13.86,13.86,0,0,1,7.69,14.16,9.56,9.56,0,0,1-4.95,6.29c-1.2.7-2.11,1.23-2.73,1.56s-1.55.82-2.76,1.42c-2.9,1.43-5.54,1.69-7.94.75s-4.41-2.9-6-5.9S237.22,116.76,237.73,114.23Zm8.87,7.8a5,5,0,0,0,3.63-.61c1.25-.63,2.14-1.08,2.67-1.37s1.38-.78,2.54-1.46a5.05,5.05,0,0,0,2.49-2.71,4,4,0,0,0-.43-3.18,4.09,4.09,0,0,0-2.45-2.13,5.07,5.07,0,0,0-3.63.62c-.6.3-1.47.76-2.59,1.37s-2,1.1-2.62,1.46a5,5,0,0,0-2.49,2.71,4.06,4.06,0,0,0,.45,3.21A4,4,0,0,0,246.6,122Z"/><path class="cls-1" d="M246.81,136.64a.88.88,0,0,1,.56-.39l22.95-4.8a.92.92,0,0,1,.71.11.88.88,0,0,1,.4.58l2.28,10.93q.94,4.49-.44,7.07a6.59,6.59,0,0,1-4.77,3.28,4.94,4.94,0,0,1-3.13-.29,5.77,5.77,0,0,1-2.22-1.62,5.76,5.76,0,0,1-1.59,2.88,5.93,5.93,0,0,1-3.1,1.69,7.06,7.06,0,0,1-6-1.19c-1.65-1.3-2.77-3.41-3.39-6.33l-2.35-11.24A.88.88,0,0,1,246.81,136.64Zm6.83,10.18a2.85,2.85,0,0,0,1.25,2,3,3,0,0,0,3.95-.84,2.9,2.9,0,0,0,.36-2.29l-1-4.74-5.55,1.16Zm10.12-2.45a2.78,2.78,0,0,0,1.13,1.87,2.55,2.55,0,0,0,2,.32,2.43,2.43,0,0,0,1.64-1.06,2.83,2.83,0,0,0,.26-2.18l-.92-4.42-5,1Z"/><path class="cls-1" d="M253,164.42c1.82-1.83,4.34-2.68,7.57-2.53.67,0,1.71.1,3.1.21s2.43.22,3.13.3a9.52,9.52,0,0,1,7.07,3.75,13.87,13.87,0,0,1-1.32,16.06,9.59,9.59,0,0,1-7.59,2.55l-3.14-.18q-1.08-.09-3.09-.33c-3.2-.39-5.56-1.62-7-3.72s-2.11-4.84-1.83-8.25S251.15,166.25,253,164.42Zm3.15,11.39a5.06,5.06,0,0,0,3.37,1.47c1.39.16,2.38.27,3,.32s1.57.1,2.92.16a5,5,0,0,0,3.57-.9,4.55,4.55,0,0,0,.49-6,5,5,0,0,0-3.37-1.47c-.67-.08-1.64-.18-2.92-.28s-2.29-.18-3-.21a5,5,0,0,0-3.57.9,4.06,4.06,0,0,0-1.38,2.94A4,4,0,0,0,256.12,175.81Z"/><path class="cls-1" d="M245.62,196.71a.87.87,0,0,1,.7.08l20.78,10.85a1,1,0,0,1,.48.54.83.83,0,0,1-.07.7l-9.38,18a.9.9,0,0,1-.55.46.91.91,0,0,1-.72-.07l-20.78-10.85a.85.85,0,0,1-.45-.54.93.93,0,0,1,.08-.71l2.28-4.36a1,1,0,0,1,.53-.48.83.83,0,0,1,.7.07l16.27,8.49,3.95-7.56-16.27-8.49a.92.92,0,0,1-.45-.54.93.93,0,0,1,.08-.71l2.3-4.39A.84.84,0,0,1,245.62,196.71Z"/><path class="cls-1" d="M232,223.32c2.57-.24,5,.73,7.43,2.91.49.46,1.24,1.17,2.23,2.16s1.74,1.72,2.22,2.23a9.55,9.55,0,0,1,3,7.41,13.85,13.85,0,0,1-11.31,11.48,9.6,9.6,0,0,1-7.46-2.91c-1-.95-1.79-1.67-2.28-2.16s-1.24-1.25-2.17-2.23c-2.21-2.36-3.22-4.81-3-7.38s1.5-5.06,3.9-7.5S229.41,223.56,232,223.32Zm-4.9,10.75a5.07,5.07,0,0,0,1.65,3.3c1,1,1.65,1.73,2.08,2.15s1.14,1.1,2.14,2a5,5,0,0,0,3.32,1.6,4.57,4.57,0,0,0,4.23-4.3,5,5,0,0,0-1.64-3.3c-.46-.49-1.15-1.18-2.06-2.08s-1.65-1.6-2.16-2.08a5.11,5.11,0,0,0-3.32-1.6,4.59,4.59,0,0,0-4.24,4.3Z"/><path class="cls-1" d="M199.37,246.08a.88.88,0,0,1,.53.43l8.72,16.15,5.73-3.09-1.45-2.67a44.51,44.51,0,0,1-3.83-8.77,8.28,8.28,0,0,1,.22-5.8,10.65,10.65,0,0,1,4.71-4.46.91.91,0,0,1,.71-.05.88.88,0,0,1,.57.43l1.9,3.53a.93.93,0,0,1-.35,1.26c-1,.79-1.31,2.16-.87,4.08a31.27,31.27,0,0,0,3.11,7.44l3.47,6.42a.87.87,0,0,1,.07.7.93.93,0,0,1-.47.54l-15.8,8.53a.91.91,0,0,1-.72.08.94.94,0,0,1-.56-.46l-11.13-20.63a.83.83,0,0,1-.07-.7.88.88,0,0,1,.46-.54l4.36-2.36A.91.91,0,0,1,199.37,246.08Z"/><path class="cls-1" d="M188.28,250.74a.86.86,0,0,1,.4.56l4.79,23a1,1,0,0,1-.11.71.83.83,0,0,1-.58.39l-16.7,3.49a.93.93,0,0,1-.71-.13.91.91,0,0,1-.4-.6l-.73-3.5a.87.87,0,0,1,.13-.69,1,1,0,0,1,.6-.39l11.18-2.33-.94-4.49-10.39,2.17a.94.94,0,0,1-1.12-.73l-.67-3.22a.93.93,0,0,1,.13-.71.91.91,0,0,1,.6-.4l10.4-2.17-1-4.6-11.46,2.39a.85.85,0,0,1-.71-.13.91.91,0,0,1-.4-.59l-.73-3.51a.83.83,0,0,1,.13-.69.92.92,0,0,1,.6-.38l17-3.55A.9.9,0,0,1,188.28,250.74Z"/><path class="cls-1" d="M156.08,255.12a.8.8,0,0,1,.14.69l-4.47,23a.92.92,0,0,1-1.1.74l-4-.78a1.36,1.36,0,0,1-1.13-1l-4-12.11-8.26,9.74a1.38,1.38,0,0,1-1.43.53l-4-.78a.87.87,0,0,1-.6-.4.9.9,0,0,1-.14-.7l4.48-23a.85.85,0,0,1,.39-.59.94.94,0,0,1,.7-.12l4.5.88a.83.83,0,0,1,.57.38.89.89,0,0,1,.15.68l-2.51,12.91,5.19-6.28a1.42,1.42,0,0,1,1.4-.58l1.92.38a1.52,1.52,0,0,1,1.08,1.05l2.43,7.76,2.51-12.91a.83.83,0,0,1,.39-.58,1,1,0,0,1,.71-.12l4.46.87A.9.9,0,0,1,156.08,255.12Z"/><path class="cls-1" d="M128.62,249.22a.7.7,0,0,1-.05.57.94.94,0,0,1-.19.27L109.76,266.2a1.43,1.43,0,0,1-1.78.21l-4.92-2.74a1.42,1.42,0,0,1-.75-1.62l3.91-24.33a1.17,1.17,0,0,1,.13-.3.72.72,0,0,1,.46-.35.74.74,0,0,1,.57.05l4.11,2.29a1.25,1.25,0,0,1,.68,1.29l-.57,3.69,8.27,4.61,2.84-2.43a1.25,1.25,0,0,1,1.46-.09l4.11,2.28A.74.74,0,0,1,128.62,249.22ZM115.91,253l-5.62-3.13-1.67,9.61Z"/><path class="cls-1" d="M105.62,236.07a.69.69,0,0,1-.21.53,1,1,0,0,1-.38.23l-13.88,2.56-2.92,13a1,1,0,0,1-.23.39.72.72,0,0,1-.54.19.73.73,0,0,1-.54-.21l-3.86-3.95a1.5,1.5,0,0,1-.35-1.48L84.35,240l-7.45,1.38a1.48,1.48,0,0,1-1.45-.35l-3.69-3.77a.8.8,0,0,1,0-1.07,1,1,0,0,1,.38-.23l13.09-2.54,2.85-13.92a1,1,0,0,1,.24-.38.72.72,0,0,1,.54-.2.69.69,0,0,1,.53.21l4,4.08a1.41,1.41,0,0,1,.37,1.41l-1.56,8,8-1.48a1.45,1.45,0,0,1,1.4.4l3.87,3.95A.72.72,0,0,1,105.62,236.07Z"/><path class="cls-1" d="M84.2,214.81c-.55,2.52-2.21,4.59-5,6.21-.58.34-1.49.84-2.73,1.49s-2.16,1.14-2.79,1.44a9.54,9.54,0,0,1-8,.65,13.87,13.87,0,0,1-7.55-14.23,9.59,9.59,0,0,1,5-6.24c1.22-.7,2.13-1.21,2.75-1.54s1.56-.8,2.78-1.39c2.9-1.4,5.55-1.63,7.94-.67s4.38,2.94,6,6S84.74,212.28,84.2,214.81Zm-8.79-7.9a5,5,0,0,0-3.64.59c-1.26.61-2.15,1.05-2.68,1.34s-1.39.76-2.55,1.43A5,5,0,0,0,64,213a4.57,4.57,0,0,0,2.83,5.33,5.05,5.05,0,0,0,3.64-.58c.61-.3,1.48-.74,2.6-1.34s2-1.09,2.63-1.44a5,5,0,0,0,2.53-2.69,4.58,4.58,0,0,0-2.83-5.33Z"/><path class="cls-1" d="M75.34,192.28a.9.9,0,0,1-.57.39l-23,4.56a.92.92,0,0,1-.71-.11.85.85,0,0,1-.39-.59L48.5,185.58q-.9-4.5.51-7.06a6.59,6.59,0,0,1,4.81-3.24,4.91,4.91,0,0,1,3.12.32,6.09,6.09,0,0,1,2.21,1.64,5.76,5.76,0,0,1,1.62-2.86,5.86,5.86,0,0,1,3.12-1.65,7,7,0,0,1,6,1.25q2.44,2,3.32,6.36l2.24,11.27A.86.86,0,0,1,75.34,192.28Zm-16.88-7.9a2.75,2.75,0,0,0-1.11-1.88,2.53,2.53,0,0,0-2-.35,2.5,2.5,0,0,0-1.65,1,2.82,2.82,0,0,0-.29,2.18l.88,4.43,5-1ZM68.6,182a2.86,2.86,0,0,0-1.22-2,3,3,0,0,0-4,.8,2.89,2.89,0,0,0-.38,2.29l.94,4.75,5.57-1.11Z"/><path class="cls-1" d="M69.45,164.46q-2.74,2.72-7.59,2.46c-.67,0-1.7-.12-3.1-.25s-2.43-.24-3.12-.33a9.56,9.56,0,0,1-7-3.82,13.87,13.87,0,0,1,1.48-16.05A9.56,9.56,0,0,1,57.69,144c1.4.08,2.44.15,3.14.22s1.75.18,3.09.35q4.8.63,7,3.79t1.75,8.27C72.36,160,71.29,162.64,69.45,164.46Zm-3-11.42a5,5,0,0,0-3.36-1.51c-1.39-.17-2.38-.29-3-.34s-1.57-.12-2.92-.2a5,5,0,0,0-3.58.87,4,4,0,0,0-1.41,2.88,4.1,4.1,0,0,0,.85,3.13,5,5,0,0,0,3.37,1.5c.67.09,1.64.19,2.91.31s2.29.2,3,.24a5.08,5.08,0,0,0,3.58-.87,4.11,4.11,0,0,0,1.41-2.92A4,4,0,0,0,66.42,153Z"/><path class="cls-1" d="M77.12,132.25a.89.89,0,0,1-.69-.08L55.75,121.11a1,1,0,0,1-.47-.54.83.83,0,0,1,.07-.7L64.91,102a.93.93,0,0,1,.55-.46,1,1,0,0,1,.72.08l20.68,11.06a.86.86,0,0,1,.44.55.87.87,0,0,1-.09.7l-2.32,4.34a.93.93,0,0,1-.54.47.87.87,0,0,1-.7-.07L67.47,110l-4,7.52,16.18,8.66a.86.86,0,0,1,.45.54.94.94,0,0,1-.1.71l-2.33,4.37A.9.9,0,0,1,77.12,132.25Z"/><path class="cls-1" d="M91,105.78q-3.85.33-7.4-3c-.49-.46-1.23-1.19-2.22-2.18s-1.71-1.74-2.19-2.25a9.56,9.56,0,0,1-2.94-7.44A13.85,13.85,0,0,1,87.69,79.56a9.58,9.58,0,0,1,7.43,3c1,1,1.78,1.68,2.27,2.17S98.61,86,99.53,87q3.28,3.55,3,7.4c-.21,2.56-1.54,5.05-4,7.46S93.59,105.57,91,105.78Zm5-10.7a5,5,0,0,0-1.61-3.31c-1-1-1.64-1.75-2.07-2.18s-1.13-1.1-2.11-2a5,5,0,0,0-3.31-1.63A4,4,0,0,0,84,87.24a4.12,4.12,0,0,0-1.35,3,5,5,0,0,0,1.62,3.31q.69.75,2,2.1c.91.93,1.63,1.63,2.14,2.1a5.07,5.07,0,0,0,3.3,1.64A4.57,4.57,0,0,0,96,95.08Z"/><path class="cls-1" d="M123.86,83.34a.86.86,0,0,1-.53-.44l-8.56-16.23-5.76,3,1.42,2.68a43.83,43.83,0,0,1,3.74,8.81,8.31,8.31,0,0,1-.27,5.8,10.63,10.63,0,0,1-4.76,4.41,1,1,0,0,1-1.27-.39L106,87.46a.94.94,0,0,1,.36-1.25q1.55-1.18.92-4.08a31.2,31.2,0,0,0-3-7.46l-3.4-6.46a.83.83,0,0,1-.07-.7,1,1,0,0,1,.48-.54l15.88-8.37a.91.91,0,0,1,.72-.07.9.9,0,0,1,.55.46l10.93,20.75a.83.83,0,0,1,.07.7.94.94,0,0,1-.47.53l-4.38,2.31A.92.92,0,0,1,123.86,83.34Z"/><path class="cls-1" d="M135,78.78a.88.88,0,0,1-.39-.57l-4.55-23a.89.89,0,0,1,.11-.7.86.86,0,0,1,.59-.4L147.5,50.8a.91.91,0,0,1,1.1.74l.7,3.51a.87.87,0,0,1-.14.69,1,1,0,0,1-.61.38l-11.2,2.21.89,4.51,10.42-2.07a.89.89,0,0,1,.71.14.91.91,0,0,1,.4.6l.64,3.22a.92.92,0,0,1-.14.71.87.87,0,0,1-.6.4L139.25,67.9l.91,4.61,11.48-2.27a.88.88,0,0,1,.71.13.93.93,0,0,1,.4.6l.69,3.51a.83.83,0,0,1-.14.69.92.92,0,0,1-.6.38l-17,3.37A.86.86,0,0,1,135,78.78Z"/><path class="cls-1" d="M180.8,33.32a1,1,0,0,1-.18-.83l.51-2.93q-6.47-1.12-9.56-4.65T169,15.65l.23-1.6.32-1.59a11.33,11.33,0,0,1,5.53-7.82q4.27-2.37,10.57-1.27L186.1,1a1.12,1.12,0,0,1,.44-.74,1,1,0,0,1,.83-.19l5.9,1a1.05,1.05,0,0,1,.74.46,1.1,1.1,0,0,1,.19.85l-.42,2.41q6.28,1.1,9.51,4.76a11.23,11.23,0,0,1,2.53,9.23c-.1.87-.16,1.41-.19,1.61s-.16.73-.37,1.58q-1.37,5.58-5.47,7.86c-2.73,1.52-6.26,1.91-10.56,1.16l-.51,2.93a1,1,0,0,1-.46.72,1.14,1.14,0,0,1-.85.16l-5.9-1A1.13,1.13,0,0,1,180.8,33.32Zm3.8-23.48a5.83,5.83,0,0,0-4.61.73A6.66,6.66,0,0,0,177.75,15l-.33,1.9a5.6,5.6,0,0,0,.93,4.22,6.22,6.22,0,0,0,3.94,2ZM194.68,24A5.59,5.59,0,0,0,197,20.29c.06-.2.16-.68.29-1.46a12.82,12.82,0,0,0,.2-1.38,5.78,5.78,0,0,0-1-4.24,6.26,6.26,0,0,0-3.94-2l-2.31,13.27A6.26,6.26,0,0,0,194.68,24Z"/><path class="cls-1" d="M208.32,38.51a1.11,1.11,0,0,1,0-.84L220.44,12a1.14,1.14,0,0,1,.62-.6,1,1,0,0,1,.85,0l18.68,8.79a1.09,1.09,0,0,1,.59.64,1.06,1.06,0,0,1-.05.87l-1.84,3.92a1,1,0,0,1-.63.57,1.17,1.17,0,0,1-.86-.06l-12.51-5.89-2.36,5,11.63,5.47a1.13,1.13,0,0,1,.55,1.51l-1.7,3.6a1.11,1.11,0,0,1-1.51.55L220.26,31l-2.42,5.15,12.82,6a1.11,1.11,0,0,1,.55,1.51l-1.84,3.92a1.07,1.07,0,0,1-.64.58,1.18,1.18,0,0,1-.86-.07l-19-8.94A1.07,1.07,0,0,1,208.32,38.51Z"/><path class="cls-1" d="M237.35,51.11q-.93-4.57,2.5-9.28c.47-.63,1.25-1.65,2.35-3s1.94-2.44,2.47-3.07q3.69-4.32,8.44-4.51c3.16-.13,6.35,1.09,9.58,3.63a18.16,18.16,0,0,1,4.69,5.32,11.2,11.2,0,0,1,1.55,5.9,9.65,9.65,0,0,1-2,5.63.84.84,0,0,1-.63.34,1,1,0,0,1-.69-.21L260.69,48a1.31,1.31,0,0,1-.55-.74,2,2,0,0,1,.16-1,5.2,5.2,0,0,0,.39-3.5A5.79,5.79,0,0,0,258.63,40q-3.88-3.06-7.43,1.16-.76.9-2.28,2.82c-1,1.28-1.77,2.27-2.27,3-2.19,2.95-2,5.45.6,7.49a5.73,5.73,0,0,0,3.14,1.36,5,5,0,0,0,3.3-1.18,1.67,1.67,0,0,1,.93-.41,1.48,1.48,0,0,1,.87.38l4.88,3.85a1,1,0,0,1,.37.62.86.86,0,0,1-.19.69,9.56,9.56,0,0,1-5,3.3,11.23,11.23,0,0,1-6.1-.13,18.17,18.17,0,0,1-6.26-3.33Q238.28,55.69,237.35,51.11Z"/><path class="cls-1" d="M262.39,77a1,1,0,0,1,.41-.74l17.48-14-4.81-6a1.15,1.15,0,0,1-.27-.82,1,1,0,0,1,.41-.75l3.82-3.06a1.12,1.12,0,0,1,.84-.25,1.08,1.08,0,0,1,.76.43l14.84,18.53a1,1,0,0,1,.25.84,1.07,1.07,0,0,1-.42.76L291.87,75a1,1,0,0,1-.81.24,1.13,1.13,0,0,1-.75-.44l-4.81-6L268,82.78a1,1,0,0,1-.82.23,1.13,1.13,0,0,1-.74-.44l-3.8-4.74A1.17,1.17,0,0,1,262.39,77Z"/><path class="cls-1" d="M275.67,94.34a1.17,1.17,0,0,1,.6-.62L302,81.8a1.1,1.1,0,0,1,.87,0,1.14,1.14,0,0,1,.64.6l2.5,5.39a1.13,1.13,0,0,1-.55,1.51l-15.52,7.2,20.87,3.62a1.68,1.68,0,0,1,1.38,1l2.26,4.88a1,1,0,0,1,0,.86,1.14,1.14,0,0,1-.61.61l-25.75,11.94a1.06,1.06,0,0,1-.82,0,1.09,1.09,0,0,1-.63-.58l-2.52-5.43a1.2,1.2,0,0,1-.06-.87,1,1,0,0,1,.58-.63L299.57,105l-20.23-3.93a2.1,2.1,0,0,1-.8-.27,1.58,1.58,0,0,1-.58-.73l-2.26-4.88A1,1,0,0,1,275.67,94.34Z"/><path class="cls-1" d="M289.3,126.44A1.07,1.07,0,0,1,290,126l27.93-5.09a1.2,1.2,0,0,1,.85.16,1,1,0,0,1,.46.71l2.42,13.3q1,5.46-.75,8.54a8,8,0,0,1-5.88,3.83,6,6,0,0,1-3.77-.45,7.25,7.25,0,0,1-2.64-2,7.38,7.38,0,0,1-5.82,5.37,8.46,8.46,0,0,1-7.28-1.63q-2.92-2.41-3.9-7.76l-2.5-13.68A1.05,1.05,0,0,1,289.3,126.44ZM297.25,139a3.54,3.54,0,0,0,1.44,2.43,3.63,3.63,0,0,0,4.82-.9,3.54,3.54,0,0,0,.5-2.76L303,132l-6.76,1.23Zm12.32-2.64a3.35,3.35,0,0,0,1.31,2.29,3.09,3.09,0,0,0,2.39.46,3,3,0,0,0,2-1.24,3.4,3.4,0,0,0,.39-2.63l-1-5.37L308.59,131Z"/><path class="cls-1" d="M294.24,155.08a.89.89,0,0,1,.65-.25,1.52,1.52,0,0,1,.39.07l27.37,11.86a1.7,1.7,0,0,1,1.16,1.82l-.41,6.81a1.71,1.71,0,0,1-1.37,1.67l-28.59,8.49a1.25,1.25,0,0,1-.4,0,.88.88,0,0,1-.62-.32.87.87,0,0,1-.24-.65l.34-5.67a1.51,1.51,0,0,1,1.05-1.43l4.33-1.31.69-11.44-4.14-1.83a1.49,1.49,0,0,1-.87-1.54l.34-5.68A.86.86,0,0,1,294.24,155.08ZM305,167l-.46,7.77,11.36-3.22Z"/><path class="cls-1" d="M285.41,208.35a1.05,1.05,0,0,1,.83-.08l21.14,6.85,2.42-7.49-3.49-1.14A52.67,52.67,0,0,1,295.62,202a10.06,10.06,0,0,1-4.66-5.25q-1.05-3.08.4-7.85a1.08,1.08,0,0,1,.57-.64,1.1,1.1,0,0,1,.86-.09l4.62,1.49a1.14,1.14,0,0,1,.74,1.4q-.33,2.32,2.65,4.3a38.38,38.38,0,0,0,8.95,3.91l8.4,2.72a1.05,1.05,0,0,1,.65.55,1.18,1.18,0,0,1,0,.87l-6.7,20.68a1.08,1.08,0,0,1-.56.66,1.05,1.05,0,0,1-.87.07l-27-8.75a1,1,0,0,1-.65-.55,1.13,1.13,0,0,1,0-.87l1.85-5.7A1.06,1.06,0,0,1,285.41,208.35Z"/><path class="cls-1" d="M279.71,222.12a1.06,1.06,0,0,1,.82.12l24.12,15a1,1,0,0,1,.5.7,1.1,1.1,0,0,1-.15.81l-3.17,5.08a1.13,1.13,0,0,1-.69.53,1,1,0,0,1-.84-.14l-7.9-4.93-2.34,3.75q-3.06,4.9-6.83,6.2T275.3,248a9.48,9.48,0,0,1-4.7-6.64q-.69-4.14,2.32-9l6.1-9.8A1.1,1.1,0,0,1,279.71,222.12Zm-1.36,13.45a3.37,3.37,0,0,0-.49,2.86,4.18,4.18,0,0,0,1.91,2.31,3.81,3.81,0,0,0,2.86.67,3.66,3.66,0,0,0,2.22-1.79l2.24-3.6L280.6,232Z"/><path class="cls-1" d="M256.1,255.27a1.06,1.06,0,0,1,.75.41l17.8,22.11a1.1,1.1,0,0,1-.17,1.59l-3.85,3.1a1.63,1.63,0,0,1-1.83.24L254.5,277l2.55,15.24a1.62,1.62,0,0,1-.62,1.73l-3.85,3.1a1.07,1.07,0,0,1-.83.25,1.09,1.09,0,0,1-.77-.42l-17.8-22.1a1.05,1.05,0,0,1-.24-.82,1.13,1.13,0,0,1,.44-.75l4.32-3.48a1.06,1.06,0,0,1,.81-.23,1.1,1.1,0,0,1,.73.39l10,12.4-1.76-9.71a1.72,1.72,0,0,1,.57-1.74l1.83-1.48a1.85,1.85,0,0,1,1.83-.18l9.07,3.81-10-12.4a1,1,0,0,1-.24-.81A1.13,1.13,0,0,1,251,259l4.29-3.46A1.15,1.15,0,0,1,256.1,255.27Z"/><path class="cls-1" d="M216,315.11a.91.91,0,0,1-.51-.49,1.88,1.88,0,0,1-.14-.85L215,292a28.13,28.13,0,0,1,.41-6.12,7.91,7.91,0,0,1,1.95-3.84,13.93,13.93,0,0,1,4.46-2.93l2.19-1a1,1,0,0,1,.83,0,1.07,1.07,0,0,1,.62.56l2,4.46a1.2,1.2,0,0,1,.06.87,1,1,0,0,1-.58.62l-1.56.71a4.2,4.2,0,0,0-1.69,1.29,4.62,4.62,0,0,0-.76,2.08L241,302.55a.53.53,0,0,1,.26.27,1,1,0,0,1,0,.76,1,1,0,0,1-.55.59l-5.85,2.66a1.45,1.45,0,0,1-1.54-.31l-10.43-8.38.16,13a1.29,1.29,0,0,1-.82,1.38l-5.49,2.5A1,1,0,0,1,216,315.11Z"/><path class="cls-1" d="M195.31,290.11a9.93,9.93,0,0,1,4.77,2.25,8.42,8.42,0,0,1,2.41,3.76v.09a.75.75,0,0,1-.16.63,1,1,0,0,1-.57.36l-5.84,1.17a1.49,1.49,0,0,1-.85,0,2,2,0,0,1-.67-.47q-1.41-1.9-4.93-1.2a6.66,6.66,0,0,0-3.35,1.52,2.63,2.63,0,0,0-.82,2.57,2.67,2.67,0,0,0,1.64,2.1,6.18,6.18,0,0,0,3.53.12l3.17-.63a1,1,0,0,1,.82.19,1.23,1.23,0,0,1,.49.75l.73,3.64a1.18,1.18,0,0,1-.16.88,1,1,0,0,1-.68.5l-3.09.62a5,5,0,0,0-2.69,1.27,2.54,2.54,0,0,0-.59,2.41,2.59,2.59,0,0,0,1.48,1.92,4.87,4.87,0,0,0,3.09.2,6.69,6.69,0,0,0,2.79-1.13,2.62,2.62,0,0,0,1.07-1.87,1.54,1.54,0,0,1,.36-.65,1.31,1.31,0,0,1,.7-.32l6-1.19a1.07,1.07,0,0,1,.74.12.71.71,0,0,1,.38.59,8.87,8.87,0,0,1-2.21,6.64q-2.53,3-8.67,4.28a16.38,16.38,0,0,1-6.56.11,10.27,10.27,0,0,1-4.83-2.29,7.14,7.14,0,0,1-2.33-4,8.14,8.14,0,0,1,.06-3.61,6,6,0,0,1,2.06-3.15,7.33,7.33,0,0,1-3.84-2.36,8.65,8.65,0,0,1-1.81-3.83,7.86,7.86,0,0,1,.62-5.14,10.34,10.34,0,0,1,3.86-4.12,19.4,19.4,0,0,1,6.63-2.51A18.32,18.32,0,0,1,195.31,290.11Z"/><path class="cls-1" d="M169.62,293.47a1.06,1.06,0,0,1,.35.78l.16,5.77a1.08,1.08,0,0,1-.3.81,1.09,1.09,0,0,1-.8.36l-5.77.16a1,1,0,0,1-.8-.3,1.16,1.16,0,0,1-.33-.8l-.16-5.77a1.08,1.08,0,0,1,.28-.78,1.06,1.06,0,0,1,.78-.35l5.77-.16A1.14,1.14,0,0,1,169.62,293.47Z"/><path class="cls-1" d="M144.12,293a1.05,1.05,0,0,1,.15.82l-6.41,27.65a1.14,1.14,0,0,1-.48.72,1.07,1.07,0,0,1-.84.14l-13.17-3.05c-3.6-.84-6.12-2.2-7.54-4.09a8,8,0,0,1-1.18-6.91,6.06,6.06,0,0,1,1.91-3.29,7.32,7.32,0,0,1,2.91-1.61,7.09,7.09,0,0,1-2.35-3.22,7.18,7.18,0,0,1-.27-4.26,8.5,8.5,0,0,1,4.38-6q3.39-1.72,8.67-.5l13.55,3.14A1,1,0,0,1,144.12,293ZM127,307.68a3.4,3.4,0,0,0-2.62.29,3.09,3.09,0,0,0-1.37,2,3,3,0,0,0,.33,2.34,3.4,3.4,0,0,0,2.26,1.4l5.33,1.24,1.4-6.05Zm2.46-12.36a3.51,3.51,0,0,0-2.8.37,3.62,3.62,0,0,0-1.08,4.77,3.48,3.48,0,0,0,2.33,1.55l5.71,1.33,1.55-6.69Z"/><path class="cls-1" d="M113.51,285.16a1.13,1.13,0,0,1-.11.86l-13.13,25.12a1.1,1.1,0,0,1-.66.56,1.15,1.15,0,0,1-.87-.08l-5.27-2.76a1.11,1.11,0,0,1-.57-.67,1.08,1.08,0,0,1,.09-.86l7.92-15.16L82.15,302a1.67,1.67,0,0,1-1.7,0l-4.77-2.49a1.06,1.06,0,0,1-.55-.66,1.12,1.12,0,0,1,.11-.85l13.15-25.16a1.09,1.09,0,0,1,.62-.53,1,1,0,0,1,.85.07l5.31,2.78a1.13,1.13,0,0,1,.58.64,1,1,0,0,1-.08.85l-7.62,14.57,18.44-9.21a2.27,2.27,0,0,1,.81-.27,1.6,1.6,0,0,1,.89.22l4.77,2.5A1,1,0,0,1,113.51,285.16Z"/><path class="cls-1" d="M79.72,265.5a9.91,9.91,0,0,1,1.07,5.17,8.4,8.4,0,0,1-1.56,4.18l-.06.07a.79.79,0,0,1-.61.25,1,1,0,0,1-.63-.25l-4.44-4a1.53,1.53,0,0,1-.49-.7,2.18,2.18,0,0,1,0-.82c.45-1.51-.21-3.06-2-4.65A6.65,6.65,0,0,0,67.75,263a2.65,2.65,0,0,0-2.56.89,2.73,2.73,0,0,0-.69,2.58,6.14,6.14,0,0,0,2,2.89l2.41,2.15a1,1,0,0,1,.34.77,1.14,1.14,0,0,1-.31.84l-2.47,2.78a1.23,1.23,0,0,1-.8.4,1,1,0,0,1-.81-.25L62.55,274a5.06,5.06,0,0,0-2.64-1.38,2.53,2.53,0,0,0-2.28,1A2.56,2.56,0,0,0,57,275.9a4.9,4.9,0,0,0,1.69,2.6A6.65,6.65,0,0,0,61.26,280a2.66,2.66,0,0,0,2.14-.26,1.6,1.6,0,0,1,.74-.11,1.3,1.3,0,0,1,.67.37l4.54,4a1.06,1.06,0,0,1,.34.67.7.7,0,0,1-.24.66,8.85,8.85,0,0,1-6.64,2.22q-4-.19-8.62-4.36a16.37,16.37,0,0,1-4-5.17,10.09,10.09,0,0,1-1.07-5.24,7.07,7.07,0,0,1,1.78-4.26,8.15,8.15,0,0,1,2.92-2.12,6,6,0,0,1,3.76-.25,7.26,7.26,0,0,1-.42-4.48,8.6,8.6,0,0,1,2-3.75,7.83,7.83,0,0,1,4.48-2.59,10.21,10.21,0,0,1,5.61.61,19.09,19.09,0,0,1,6,3.79A18.12,18.12,0,0,1,79.72,265.5Z"/><path class="cls-1" d="M22,243.86a.91.91,0,0,1,.38-.6,2,2,0,0,1,.81-.3l21.28-4.45a28.33,28.33,0,0,1,6.09-.75,8.08,8.08,0,0,1,4.14,1.2,13.85,13.85,0,0,1,3.72,3.82l1.39,2a1,1,0,0,1,.17.82,1,1,0,0,1-.43.71l-4,2.83a1.17,1.17,0,0,1-.84.22,1.06,1.06,0,0,1-.72-.46l-1-1.39a4.24,4.24,0,0,0-1.6-1.42,4.55,4.55,0,0,0-2.18-.36L39.07,266a.53.53,0,0,1-.21.31,1,1,0,0,1-.75.15,1,1,0,0,1-.68-.43l-3.72-5.25a1.44,1.44,0,0,1,0-1.56L40,247.43l-12.78,2.62a1.3,1.3,0,0,1-1.5-.54l-3.49-4.93A1,1,0,0,1,22,243.86Z"/><path class="cls-1" d="M45.64,225a.82.82,0,0,1-.48.5,1.34,1.34,0,0,1-.38.11l-29.81,1a1.71,1.71,0,0,1-1.83-1.15l-2.54-6.34a1.7,1.7,0,0,1,.53-2.09l22.23-19.89a1.11,1.11,0,0,1,.35-.18.87.87,0,0,1,.69,0,.89.89,0,0,1,.5.49L37,202.75a1.53,1.53,0,0,1-.34,1.74l-3.36,3,4.27,10.64,4.52-.12a1.52,1.52,0,0,1,1.45,1l2.11,5.28A.84.84,0,0,1,45.64,225ZM30.81,218.9l-2.89-7.22L19,219.44Z"/><path class="cls-1" d="M30.91,173.14a1,1,0,0,1-.72.42l-22,2.83,1,7.81,3.64-.47a53.33,53.33,0,0,1,11.58-.51A10.09,10.09,0,0,1,30.84,186q2.27,2.34,3,7.27a1,1,0,0,1-.25.82,1.09,1.09,0,0,1-.73.45l-4.82.62c-.6.08-1-.24-1.26-.94q-.69-2.25-4.24-2.77a38.24,38.24,0,0,0-9.75.29L4,192.84a1.06,1.06,0,0,1-.83-.22,1.16,1.16,0,0,1-.4-.77L0,170.29a1.09,1.09,0,0,1,.22-.84A1.1,1.1,0,0,1,1,169l28.16-3.61a1,1,0,0,1,.82.22,1.14,1.14,0,0,1,.4.77l.77,5.94A1.07,1.07,0,0,1,30.91,173.14Z"/><path class="cls-1" d="M29.92,158.34a1.16,1.16,0,0,1-.84.2L1,154.8a1.08,1.08,0,0,1-.76-.43,1.08,1.08,0,0,1-.22-.84l.79-5.9a1.08,1.08,0,0,1,.43-.76,1.08,1.08,0,0,1,.84-.22l17,2.26L3.36,134.65a1.69,1.69,0,0,1-.63-1.59l.71-5.33a1,1,0,0,1,.43-.73,1.11,1.11,0,0,1,.84-.2l28.14,3.74a1.07,1.07,0,0,1,.71.4,1.05,1.05,0,0,1,.23.83L33,137.71a1.19,1.19,0,0,1-.41.76,1,1,0,0,1-.83.22l-16.3-2.17,15,14.17a2.11,2.11,0,0,1,.53.66,1.58,1.58,0,0,1,.1.92l-.71,5.33A1,1,0,0,1,29.92,158.34Z"/><path class="cls-1" d="M36.83,119.87a9.9,9.9,0,0,1-4.5,2.77,8.43,8.43,0,0,1-4.46,0l-.08,0a.71.71,0,0,1-.44-.48.94.94,0,0,1,0-.68l2.21-5.52a1.61,1.61,0,0,1,.49-.7,2.12,2.12,0,0,1,.76-.31q2.37-.14,3.7-3.46a6.69,6.69,0,0,0,.56-3.64,2.64,2.64,0,0,0-1.7-2.1,2.7,2.7,0,0,0-2.66.23,6.15,6.15,0,0,0-2,2.89l-1.2,3a1,1,0,0,1-.61.58,1.17,1.17,0,0,1-.9,0L22.53,111a1.23,1.23,0,0,1-.65-.62,1.07,1.07,0,0,1,0-.84L23,106.61a5.13,5.13,0,0,0,.4-3,2.56,2.56,0,0,0-1.7-1.81,2.61,2.61,0,0,0-2.41.19,4.87,4.87,0,0,0-1.87,2.48,6.68,6.68,0,0,0-.57,3,2.6,2.6,0,0,0,1,1.92,1.77,1.77,0,0,1,.35.66,1.38,1.38,0,0,1-.12.76l-2.26,5.64a1,1,0,0,1-.5.55.7.7,0,0,1-.71,0,8.87,8.87,0,0,1-4.35-5.49q-1.17-3.78,1.16-9.59a16.44,16.44,0,0,1,3.5-5.55,10.11,10.11,0,0,1,4.55-2.79,7.14,7.14,0,0,1,4.62.22,8.29,8.29,0,0,1,3,2,6.06,6.06,0,0,1,1.51,3.46,7.33,7.33,0,0,1,4.07-1.93,8.76,8.76,0,0,1,4.2.58,7.84,7.84,0,0,1,4,3.33,10.32,10.32,0,0,1,1.34,5.48,19.19,19.19,0,0,1-1.53,6.93A18.12,18.12,0,0,1,36.83,119.87Z"/><path class="cls-1" d="M46.19,98.24a.92.92,0,0,1-.68-.14,1.1,1.1,0,0,1-.29-.27L28.3,73.27a1.7,1.7,0,0,1,0-2.16l4-5.56a1.72,1.72,0,0,1,2-.69l28.74,8a1.38,1.38,0,0,1,.35.19.88.88,0,0,1,.35.6.89.89,0,0,1-.14.69l-3.3,4.63a1.51,1.51,0,0,1-1.64.65l-4.37-1.18-6.65,9.33,2.54,3.74a1.52,1.52,0,0,1-.08,1.77l-3.3,4.63A.88.88,0,0,1,46.19,98.24Zm-2.84-15.8,4.52-6.34L36.53,72.8Z"/><path class="cls-1" d="M87.59,61a1,1,0,0,1-.76-.4L83.6,56.75,67.79,70a1,1,0,0,1-.81.26,1.19,1.19,0,0,1-.76-.42L48,48.12a1.11,1.11,0,0,1-.27-.8,1.05,1.05,0,0,1,.41-.74l4.59-3.85a1.1,1.1,0,0,1,.81-.29,1.05,1.05,0,0,1,.76.39l14.29,17,7.9-6.64-14.28-17a1.06,1.06,0,0,1-.26-.82,1.17,1.17,0,0,1,.42-.75L66.9,30.8a1.16,1.16,0,0,1,.82-.28,1,1,0,0,1,.75.39l14.29,17,1.57-1.33a1,1,0,0,1,.82-.25,1.19,1.19,0,0,1,.75.42l7.2,8.58A1,1,0,0,1,93,56.89l-4.59,3.85A1.09,1.09,0,0,1,87.59,61Z"/><path class="cls-1" d="M94.31,48.57a1.14,1.14,0,0,1-.62-.6L81.77,22.26a1.13,1.13,0,0,1,.55-1.51l5.4-2.5a1.06,1.06,0,0,1,.87,0,1.09,1.09,0,0,1,.64.59l7.19,15.51,3.63-20.86a1.68,1.68,0,0,1,1-1.38l4.88-2.27a1.05,1.05,0,0,1,.85,0,1.12,1.12,0,0,1,.62.61l11.94,25.74a1.08,1.08,0,0,1,0,.83,1,1,0,0,1-.57.63l-5.44,2.52a1.17,1.17,0,0,1-.86.06,1.05,1.05,0,0,1-.63-.58L105,24.67,101,44.9a2.1,2.1,0,0,1-.28.8,1.55,1.55,0,0,1-.72.58l-4.88,2.26A1,1,0,0,1,94.31,48.57Z"/><path class="cls-1" d="M126.29,34.8a1.16,1.16,0,0,1-.44-.74L121.1,6.12a1.1,1.1,0,0,1,.19-.85,1.07,1.07,0,0,1,.75-.46l5.86-1a1.13,1.13,0,0,1,1.31.93l2.86,16.86,9-19.18a1.65,1.65,0,0,1,1.33-1.07l5.3-.9a1,1,0,0,1,.83.19,1.16,1.16,0,0,1,.44.75l4.75,28a1.09,1.09,0,0,1-.17.8,1.08,1.08,0,0,1-.72.46l-5.91,1a1.13,1.13,0,0,1-.85-.16,1,1,0,0,1-.45-.73l-2.76-16.21L133.75,33a2.28,2.28,0,0,1-.48.7,1.56,1.56,0,0,1-.85.36l-5.3.9A1,1,0,0,1,126.29,34.8Z"/></g></g></svg>