<svg xmlns="http://www.w3.org/2000/svg" viewBox="0 0 380.01 380.47"><defs><style>.cls-1{fill:#fff;}</style></defs><title>round</title><g id="Layer_2" data-name="Layer 2"><g id="Layer_1-2" data-name="Layer 1"><path class="cls-1" d="M190.9,170.13a2.14,2.14,0,0,1-.43-1.72c0-.15.05-.37.1-.68s.09-.53.12-.69a2.09,2.09,0,0,1,.95-1.49,3.06,3.06,0,0,1,3.52.57,2.09,2.09,0,0,1,.44,1.71c0,.31-.07.54-.1.69l-.12.68a2.11,2.11,0,0,1-.95,1.49,2.58,2.58,0,0,1-1.85.26A2.68,2.68,0,0,1,190.9,170.13Zm2.57-.5a1.09,1.09,0,0,0,.38-.72q.09-.47.12-.66c0-.13.05-.34.09-.64a1.11,1.11,0,0,0-.14-.8.89.89,0,0,0-.61-.36,1,1,0,0,0-.71.14,1.09,1.09,0,0,0-.38.72c0,.15-.07.36-.11.64s-.08.51-.1.66a1.11,1.11,0,0,0,.14.8.89.89,0,0,0,.62.36A.91.91,0,0,0,193.47,169.63Z"/><path class="cls-1" d="M195.4,172.43a.22.22,0,0,1,0-.16l.94-1.82a.2.2,0,0,1,.27-.09l.13.06c.21.12.47,0,.75-.33a8.64,8.64,0,0,0,.95-1.54l.74-1.44a.19.19,0,0,1,.12-.1.19.19,0,0,1,.16,0l3.39,1.74a.19.19,0,0,1,.11.12.23.23,0,0,1,0,.16l-1.85,3.61.33.16a.24.24,0,0,1,.11.13.2.2,0,0,1,0,.15l-.93,1.82a.19.19,0,0,1-.12.1.18.18,0,0,1-.16,0l-1-.5a.18.18,0,0,1-.1-.12.22.22,0,0,1,0-.16l.42-.81-2.5-1.28-.42.81a.17.17,0,0,1-.12.11.19.19,0,0,1-.16,0l-1-.5A.16.16,0,0,1,195.4,172.43Zm4.37-.46,1.33-2.6-1.14-.59-.31.6a5.24,5.24,0,0,1-1.33,1.85Z"/><path class="cls-1" d="M201.82,174.74a.17.17,0,0,1,.07-.14l3.68-3.66a.2.2,0,0,1,.15-.06.2.2,0,0,1,.14.06l.77.78a.2.2,0,0,1,.06.14.2.2,0,0,1-.06.15l-1.34,1.33,1.32,1.35,1.35-1.34a.2.2,0,0,1,.15-.06.2.2,0,0,1,.14.06l.77.78a.2.2,0,0,1,.06.14.2.2,0,0,1-.06.15l-3.69,3.65a.16.16,0,0,1-.14.06.2.2,0,0,1-.15-.06l-.76-.78a.19.19,0,0,1-.07-.14.2.2,0,0,1,.06-.14l1.39-1.38-1.32-1.34-1.4,1.38a.16.16,0,0,1-.14.05.18.18,0,0,1-.14-.06l-.78-.78A.2.2,0,0,1,201.82,174.74Z"/><path class="cls-1" d="M206.57,179.48a2.12,2.12,0,0,1,1.12-1.37l.61-.32.62-.31a2.08,2.08,0,0,1,1.76-.13,2.63,2.63,0,0,1,1.34,1.32,2.66,2.66,0,0,1,.31,1.84,2.11,2.11,0,0,1-1.12,1.37l-.61.34-.62.3a2.13,2.13,0,0,1-1.76.14,2.68,2.68,0,0,1-1.31-1.33A2.74,2.74,0,0,1,206.57,179.48Zm1.93,1.77a1.18,1.18,0,0,0,.81-.13l.59-.29.57-.31a1.19,1.19,0,0,0,.57-.59,1,1,0,0,0-.62-1.19,1.11,1.11,0,0,0-.81.12l-.58.3c-.25.13-.45.23-.58.31a1.09,1.09,0,0,0-.56.59.86.86,0,0,0,.08.71A.91.91,0,0,0,208.5,181.25Z"/><path class="cls-1" d="M208.48,184.64a.21.21,0,0,1,.13-.09l5.07-1.07a.22.22,0,0,1,.16,0,.16.16,0,0,1,.09.12l.72,3.42a.2.2,0,0,1,0,.15.21.21,0,0,1-.13.09l-.82.17a.22.22,0,0,1-.16,0,.16.16,0,0,1-.09-.12l-.45-2.14-4.05.86a.22.22,0,0,1-.16,0,.22.22,0,0,1-.08-.14l-.23-1.07A.21.21,0,0,1,208.48,184.64Z"/><path class="cls-1" d="M209.73,189.74a2.16,2.16,0,0,1,1.66-.6l.69,0,.69,0a2.15,2.15,0,0,1,1.59.79,2.61,2.61,0,0,1,.47,1.82,2.64,2.64,0,0,1-.67,1.75,2.1,2.1,0,0,1-1.66.6l-.7,0-.68-.05a2.14,2.14,0,0,1-1.58-.78,2.67,2.67,0,0,1-.46-1.82A2.77,2.77,0,0,1,209.73,189.74Zm.77,2.51a1.11,1.11,0,0,0,.75.3l.66,0,.65,0a1.1,1.1,0,0,0,.79-.22.92.92,0,0,0,.29-.65.9.9,0,0,0-.22-.68,1.13,1.13,0,0,0-.75-.31l-.65,0-.66,0a1.15,1.15,0,0,0-.79.22,1,1,0,0,0-.07,1.34Z"/><path class="cls-1" d="M208.26,197.17a.18.18,0,0,1,.16,0l4.59,2.41a.21.21,0,0,1,.11.12.23.23,0,0,1,0,.16l-.42.8a.28.28,0,0,1-.29.17l-2.82.08,1.54,2.37a.3.3,0,0,1,0,.34l-.42.8a.22.22,0,0,1-.13.1.19.19,0,0,1-.16,0l-4.59-2.41a.14.14,0,0,1-.1-.12.16.16,0,0,1,0-.15l.47-.9a.18.18,0,0,1,.11-.1.22.22,0,0,1,.16,0l2.58,1.35-1-1.5a.33.33,0,0,1,0-.33l.2-.38a.35.35,0,0,1,.29-.17l1.8,0-2.58-1.35a.18.18,0,0,1-.09-.12.22.22,0,0,1,0-.16l.47-.89A.19.19,0,0,1,208.26,197.17Z"/><path class="cls-1" d="M205.19,202.71a.17.17,0,0,1,.12,0l.05.06,2.22,5a.31.31,0,0,1-.07.39l-.89.87a.31.31,0,0,1-.39.05l-4.91-2.39,0,0a.17.17,0,0,1,0-.24l.75-.72a.28.28,0,0,1,.31-.07l.75.36,1.51-1.46-.34-.76a.28.28,0,0,1,.08-.31l.75-.72A.16.16,0,0,1,205.19,202.71Zm0,2.94-1,1,1.93,1Z"/><path class="cls-1" d="M200.83,206.82a.15.15,0,0,1,.1.07.19.19,0,0,1,0,.1l-.37,3.1,2.56,1.47a.27.27,0,0,1,.07.08.19.19,0,0,1,0,.13.24.24,0,0,1-.08.09l-1.09.56a.32.32,0,0,1-.34,0l-1.44-.82-.19,1.66a.36.36,0,0,1-.17.29l-1,.53a.19.19,0,0,1-.13,0,.21.21,0,0,1-.1-.08.3.3,0,0,1,0-.1L199,211l-2.76-1.52a.23.23,0,0,1-.07-.07.15.15,0,0,1,0-.13.14.14,0,0,1,.08-.1l1.12-.58a.31.31,0,0,1,.32,0l1.59.85.21-1.78a.34.34,0,0,1,.18-.27l1.09-.56A.13.13,0,0,1,200.83,206.82Z"/><path class="cls-1" d="M195.71,209.39a.17.17,0,0,1,.08.11v.07l-.91,5.38a.33.33,0,0,1-.28.29l-1.23.22a.31.31,0,0,1-.35-.17l-2.75-4.71a.14.14,0,0,1,0-.07.15.15,0,0,1,0-.13.14.14,0,0,1,.1-.07l1-.18a.26.26,0,0,1,.3.12l.43.71,2.06-.37.14-.82a.28.28,0,0,1,.24-.22l1-.19Zm-1.64,2.44-1.4.25,1.07,1.88Z"/><path class="cls-1" d="M187.78,209.25a.16.16,0,0,1,0,.15l-.48,2a.2.2,0,0,1-.09.13.19.19,0,0,1-.15,0l-.14,0c-.24-.06-.46.11-.66.5a9.1,9.1,0,0,0-.56,1.72l-.38,1.57a.22.22,0,0,1-.1.13.25.25,0,0,1-.15,0l-3.71-.9a.22.22,0,0,1-.13-.1.21.21,0,0,1,0-.16l1-3.94-.36-.08a.26.26,0,0,1-.13-.1.19.19,0,0,1,0-.15l.48-2a.2.2,0,0,1,.09-.13.22.22,0,0,1,.16,0l1.06.26a.18.18,0,0,1,.13.09.22.22,0,0,1,0,.16l-.21.88,2.73.67.21-.89a.21.21,0,0,1,.09-.13.18.18,0,0,1,.16,0l1.07.25A.2.2,0,0,1,187.78,209.25Zm-4.14,1.46-.69,2.84,1.25.3.15-.65a5.34,5.34,0,0,1,.87-2.11Z"/><path class="cls-1" d="M180.38,208.59a2.1,2.1,0,0,1-.26,1.74c-.07.13-.19.33-.35.6l-.37.58a2.16,2.16,0,0,1-1.45,1,2.66,2.66,0,0,1-1.82-.45,2.62,2.62,0,0,1-1.22-1.42,2.1,2.1,0,0,1,.25-1.75l.35-.61.38-.57a2.1,2.1,0,0,1,1.44-1,3.19,3.19,0,0,1,3,1.88Zm-2.57-.52a1.12,1.12,0,0,0-.63.52c-.17.26-.29.44-.36.56s-.18.3-.32.56a1.13,1.13,0,0,0-.18.79,1,1,0,0,0,1.14.7,1.08,1.08,0,0,0,.63-.52l.34-.55c.15-.24.27-.43.34-.57a1.08,1.08,0,0,0,.18-.79,1,1,0,0,0-1.14-.7Z"/><path class="cls-1" d="M175.47,205.15a2.09,2.09,0,0,1-.75,1.59c-.1.1-.27.26-.52.48s-.43.37-.54.47a2.1,2.1,0,0,1-1.66.54,2.61,2.61,0,0,1-1.61-1,3.33,3.33,0,0,1-.68-1.1,2.17,2.17,0,0,1-.09-1.12,1.78,1.78,0,0,1,.55-1,.16.16,0,0,1,.12,0,.23.23,0,0,1,.12.06l.76.85a.25.25,0,0,1,.07.15.38.38,0,0,1-.06.18,1,1,0,0,0-.18.62,1.1,1.1,0,0,0,.28.56.88.88,0,0,0,1.38,0c.11-.09.28-.23.5-.43l.5-.46a.88.88,0,0,0,.13-1.37,1,1,0,0,0-.52-.34.93.93,0,0,0-.63.1.3.3,0,0,1-.18.05.26.26,0,0,1-.15-.1l-.75-.85a.17.17,0,0,1-.05-.12.14.14,0,0,1,.06-.12,1.72,1.72,0,0,1,1-.43,2.06,2.06,0,0,1,1.1.21,3.56,3.56,0,0,1,1,.8A2.66,2.66,0,0,1,175.47,205.15Z"/><path class="cls-1" d="M171.85,199.59a.23.23,0,0,1-.1.12l-3.7,1.77.61,1.27a.23.23,0,0,1,0,.16.2.2,0,0,1-.11.11l-.81.39a.18.18,0,0,1-.16,0,.17.17,0,0,1-.11-.11l-1.88-3.91a.18.18,0,0,1,0-.16.23.23,0,0,1,.1-.12l.81-.39a.3.3,0,0,1,.16,0,.23.23,0,0,1,.11.11l.61,1.27,3.69-1.77a.22.22,0,0,1,.16,0,.2.2,0,0,1,.11.11l.49,1A.22.22,0,0,1,171.85,199.59Z"/><path class="cls-1" d="M170.32,196.35a.19.19,0,0,1-.11.07.08.08,0,0,1-.07,0l-5.36-1a.32.32,0,0,1-.28-.28l-.21-1.23a.34.34,0,0,1,.18-.36l4.76-2.67.07,0a.19.19,0,0,1,.12,0,.12.12,0,0,1,.07.1l.17,1a.29.29,0,0,1-.13.3l-.72.4.34,2.07.81.16a.29.29,0,0,1,.22.24l.17,1A.14.14,0,0,1,170.32,196.35Zm-2.41-1.68-.23-1.41-1.9,1Z"/><path class="cls-1" d="M169.66,188.72a.19.19,0,0,1-.15,0l-4.07-.48-.16,1.4a.29.29,0,0,1-.08.14.19.19,0,0,1-.15,0l-.89-.11a.17.17,0,0,1-.14-.08.19.19,0,0,1,0-.15l.51-4.31a.22.22,0,0,1,.08-.14.19.19,0,0,1,.16,0l.89.1a.18.18,0,0,1,.13.08.19.19,0,0,1,0,.15l-.17,1.4,4.07.48a.25.25,0,0,1,.14.08.21.21,0,0,1,0,.15l-.13,1.11A.19.19,0,0,1,169.66,188.72Z"/><path class="cls-1" d="M170.09,184.13a2.13,2.13,0,0,1-1.77,0l-.63-.27-.64-.28a2.07,2.07,0,0,1-1.22-1.28,3.05,3.05,0,0,1,1.39-3.28,2.14,2.14,0,0,1,1.77,0l.65.26.63.28a2.16,2.16,0,0,1,1.22,1.27,2.67,2.67,0,0,1-.19,1.87A2.74,2.74,0,0,1,170.09,184.13Zm.13-2.61a1.13,1.13,0,0,0-.6-.55l-.61-.27-.6-.24a1.09,1.09,0,0,0-.82-.06.94.94,0,0,0-.49.51.91.91,0,0,0,0,.72,1.12,1.12,0,0,0,.61.55l.59.26.62.25a1.17,1.17,0,0,0,.81.06,1,1,0,0,0,.5-.52A.92.92,0,0,0,170.22,181.52Z"/><path class="cls-1" d="M174.7,177.09a.21.21,0,0,1-.15,0L173.26,176a1.31,1.31,0,0,1-.14.52,2.65,2.65,0,0,1-.37.55,2,2,0,0,1-1.36.85,2.16,2.16,0,0,1-1.51-.62l-1.35-1.12a.21.21,0,0,1-.07-.14.2.2,0,0,1,0-.15l.7-.84a.25.25,0,0,1,.14-.08.23.23,0,0,1,.15.05l1.29,1.08a.75.75,0,0,0,.56.22.88.88,0,0,0,.55-.37,1.43,1.43,0,0,0,.28-.51.36.36,0,0,0-.09-.42l-1.53-1.28a.17.17,0,0,1-.07-.13.2.2,0,0,1,0-.15l.7-.84a.25.25,0,0,1,.14-.08.23.23,0,0,1,.15.05l4,3.33a.21.21,0,0,1,.07.14.2.2,0,0,1-.05.15l-.7.84A.19.19,0,0,1,174.7,177.09Z"/><path class="cls-1" d="M176.66,175a.22.22,0,0,1-.13-.09l-2.82-4.36a.21.21,0,0,1,0-.15.18.18,0,0,1,.09-.13l.92-.6a.21.21,0,0,1,.15,0,.18.18,0,0,1,.13.09l1,1.59,1.59-1-1-1.59a.22.22,0,0,1,0-.16.2.2,0,0,1,.09-.13l.91-.59a.23.23,0,0,1,.16,0,.18.18,0,0,1,.13.09l2.82,4.36a.17.17,0,0,1,0,.15.2.2,0,0,1-.09.13l-.92.59a.21.21,0,0,1-.15,0,.22.22,0,0,1-.13-.08l-1.06-1.65-1.59,1,1.07,1.64a.21.21,0,0,1-.07.28l-.92.6A.21.21,0,0,1,176.66,175Z"/><path class="cls-1" d="M182.28,171.36a2.05,2.05,0,0,1-1.1-1.38c-.05-.14-.11-.36-.19-.66s-.15-.52-.18-.67a2.11,2.11,0,0,1,.24-1.76,3.1,3.1,0,0,1,3.44-.95,2.13,2.13,0,0,1,1.11,1.38c.09.3.16.52.2.67s.1.38.17.67a2.14,2.14,0,0,1-.24,1.75,3.15,3.15,0,0,1-3.45,1Zm2.13-1.52a1.14,1.14,0,0,0,.05-.81c-.08-.31-.13-.52-.17-.65s-.09-.33-.18-.62a1.16,1.16,0,0,0-.46-.67.91.91,0,0,0-.71-.07.93.93,0,0,0-.58.42,1.11,1.11,0,0,0-.05.82c0,.14.09.35.17.63s.13.49.18.63a1.15,1.15,0,0,0,.46.68,1,1,0,0,0,.72.06A.89.89,0,0,0,184.41,169.84Z"/><path class="cls-1" d="M191.47,157.15a.26.26,0,0,1-.05-.23l1.18-7.69a.37.37,0,0,1,.12-.21A.27.27,0,0,1,193,149l1.62.25a.28.28,0,0,1,.21.12.28.28,0,0,1,.05.23l-.43,2.81,2.8.44.43-2.82a.34.34,0,0,1,.13-.2.3.3,0,0,1,.23-.06l1.61.25a.33.33,0,0,1,.21.13.26.26,0,0,1,.05.23l-1.19,7.7a.28.28,0,0,1-.12.2.3.3,0,0,1-.23,0l-1.61-.24a.37.37,0,0,1-.21-.12.27.27,0,0,1-.05-.23l.44-2.9-2.8-.44-.44,2.91a.31.31,0,0,1-.13.2.3.3,0,0,1-.23.05l-1.62-.25A.31.31,0,0,1,191.47,157.15Z"/><path class="cls-1" d="M200.86,158.89a.25.25,0,0,1,0-.19.35.35,0,0,1,.06-.09l5.92-5.65a.46.46,0,0,1,.58-.1l1.68.83a.48.48,0,0,1,.28.52l-.91,8.14s0,.06,0,.1a.23.23,0,0,1-.15.12.21.21,0,0,1-.19,0l-1.39-.69a.39.39,0,0,1-.25-.41l.13-1.24-2.82-1.39-.9.85a.42.42,0,0,1-.49,0L201,159A.31.31,0,0,1,200.86,158.89Zm4.16-1.45,1.91.94.4-3.21Z"/><path class="cls-1" d="M213.47,167.12a.25.25,0,0,1,.08-.21l1.74-1.85a1.73,1.73,0,0,1-.77-.25,4.08,4.08,0,0,1-.8-.6,3.07,3.07,0,0,1-1.14-2.12,3.21,3.21,0,0,1,1.06-2.2l1.81-1.92a.29.29,0,0,1,.21-.09.31.31,0,0,1,.22.09l1.19,1.12a.3.3,0,0,1,.1.21.27.27,0,0,1-.08.22l-1.74,1.84a1.12,1.12,0,0,0-.38.82,1.38,1.38,0,0,0,.5.85,2.18,2.18,0,0,0,.75.47.54.54,0,0,0,.64-.1l2-2.17a.29.29,0,0,1,.22-.09.33.33,0,0,1,.22.09l1.18,1.12a.28.28,0,0,1,0,.43l-5.35,5.67a.26.26,0,0,1-.21.1.29.29,0,0,1-.22-.09l-1.19-1.12A.3.3,0,0,1,213.47,167.12Z"/><path class="cls-1" d="M216.61,170.41a.25.25,0,0,1,.11-.15l.1,0,8.07-1.39a.48.48,0,0,1,.54.24l.93,1.63a.48.48,0,0,1-.07.59L221,177.53l-.09.07a.25.25,0,0,1-.19,0,.22.22,0,0,1-.15-.11l-.78-1.35a.44.44,0,0,1,0-.49l.8-.95L219.06,172l-1.23.2a.41.41,0,0,1-.43-.22l-.77-1.36A.24.24,0,0,1,216.61,170.41Zm4.26,1.11,1.06,1.86,2.13-2.45Z"/><path class="cls-1" d="M222.63,185.12a.28.28,0,0,1,.19-.13l6-1.26-.44-2.12-1,.21a15.22,15.22,0,0,1-3.15.4,2.76,2.76,0,0,1-1.83-.62,3.55,3.55,0,0,1-1-1.92.33.33,0,0,1,.05-.23.37.37,0,0,1,.19-.14l1.31-.27c.16,0,.28,0,.36.23.16.4.57.62,1.22.66a10.76,10.76,0,0,0,2.66-.29l2.38-.5a.27.27,0,0,1,.23,0,.3.3,0,0,1,.12.2l1.24,5.83a.33.33,0,0,1-.05.24.26.26,0,0,1-.19.13l-7.62,1.61a.26.26,0,0,1-.23,0,.31.31,0,0,1-.13-.2l-.34-1.61A.29.29,0,0,1,222.63,185.12Z"/><path class="cls-1" d="M223.73,191a3.16,3.16,0,0,1,2.52-.8l1,.09,1,.11a3.21,3.21,0,0,1,2.33,1.29,4.61,4.61,0,0,1-.52,5.32,3.18,3.18,0,0,1-2.53.81l-1-.08-1-.12a3.19,3.19,0,0,1-2.32-1.27,4.75,4.75,0,0,1,.52-5.35Zm1,3.8a1.71,1.71,0,0,0,1.12.51l1,.12,1,.07a1.71,1.71,0,0,0,1.19-.28,1.53,1.53,0,0,0,.19-2,1.65,1.65,0,0,0-1.11-.5l-1-.11-1-.08a1.64,1.64,0,0,0-1.19.28,1.32,1.32,0,0,0-.48,1A1.36,1.36,0,0,0,224.71,194.83Z"/><path class="cls-1" d="M220.42,203.68a.26.26,0,0,1,.23,0l.78.44a.75.75,0,0,1,.38.56l.4,1.51q.19,1.41.33,2.16a6,6,0,0,0,.32,1.2,1.3,1.3,0,0,0,.49.63.79.79,0,0,0,1.21-.34.91.91,0,0,0,.11-.77,1.37,1.37,0,0,0-.45-.63.39.39,0,0,1,0-.5l.78-1.38a.28.28,0,0,1,.16-.12.25.25,0,0,1,.19,0,2.67,2.67,0,0,1,1,1.08,2.84,2.84,0,0,1,.32,1.51,3.63,3.63,0,0,1-.51,1.68,4.34,4.34,0,0,1-1.13,1.36,2.51,2.51,0,0,1-3.82-1.05,8.54,8.54,0,0,1-.52-2.16l-.38-1.36-1.49,2.65a.28.28,0,0,1-.18.14.24.24,0,0,1-.23,0l-1.11-.63a.35.35,0,0,1-.15-.17.34.34,0,0,1,0-.24l3.07-5.44A.28.28,0,0,1,220.42,203.68Z"/><path class="cls-1" d="M215.38,212.7a3.41,3.41,0,0,1,2.27,1l.84.81c.24.25.52.54.82.88a3.43,3.43,0,0,1,.8,1.45,2.85,2.85,0,0,1-.05,1.61,4.44,4.44,0,0,1-2.65,2.6,2.77,2.77,0,0,1-1.61,0,3.5,3.5,0,0,1-1.45-.83c-.16-.14-.45-.42-.85-.83s-.66-.69-.8-.85a3.15,3.15,0,0,1,.27-4.69A3.43,3.43,0,0,1,215.38,212.7ZM213.9,216a1.76,1.76,0,0,0,.51,1c.15.18.41.45.77.82s.63.63.79.77a1.93,1.93,0,0,0,.94.53,1,1,0,0,0,.86-.32c.51-.51.46-1.11-.17-1.8-.15-.16-.4-.43-.77-.8l-.79-.8c-.69-.64-1.29-.7-1.8-.2A1,1,0,0,0,213.9,216Z"/><path class="cls-1" d="M208.23,218a.27.27,0,0,1,.19.13l.8,1.29a.27.27,0,0,1,0,.23.28.28,0,0,1-.14.18l-1.34.84a.32.32,0,0,1-.23,0,.28.28,0,0,1-.2-.13l-.79-1.29a.27.27,0,0,1,0-.23.33.33,0,0,1,.14-.19L208,218A.25.25,0,0,1,208.23,218Zm2.22,3.57a.29.29,0,0,1,.19.13l.8,1.28a.32.32,0,0,1,0,.23.38.38,0,0,1-.14.19l-1.34.83a.35.35,0,0,1-.24.05.29.29,0,0,1-.19-.14l-.8-1.28a.31.31,0,0,1,0-.23.33.33,0,0,1,.14-.19l1.35-.84A.28.28,0,0,1,210.45,221.54Z"/><path class="cls-1" d="M202.87,221.09a2.77,2.77,0,0,1,1.41.46,2.06,2.06,0,0,1,.74.89.21.21,0,0,1,0,.19.22.22,0,0,1-.15.13l-1.56.55a.5.5,0,0,1-.23,0,.57.57,0,0,1-.21-.12c-.27-.32-.73-.36-1.38-.13a1.33,1.33,0,0,0-.77.56,1,1,0,0,0-.06.81c.2.56.68.71,1.43.45l1.27-.45a.29.29,0,0,1,.24,0,.26.26,0,0,1,.16.18l.23.66a.46.46,0,0,1-.06.46l-1.29,2.13,3.12-1.1a.31.31,0,0,1,.23,0,.23.23,0,0,1,.15.17l.4,1.12a.26.26,0,0,1,0,.23.27.27,0,0,1-.17.16l-5.28,1.85a.26.26,0,0,1-.23,0,.3.3,0,0,1-.15-.18l-.36-1a.49.49,0,0,1,.05-.44l1.14-2.11h-.09a3.1,3.1,0,0,1-1.86-.13,2.17,2.17,0,0,1-1.16-1.39,2.21,2.21,0,0,1,0-1.48,2.85,2.85,0,0,1,.89-1.3,4.74,4.74,0,0,1,1.63-.91A4.62,4.62,0,0,1,202.87,221.09Z"/><path class="cls-1" d="M194.24,224a3.4,3.4,0,0,1,1.07,2.23c0,.43.06.82.08,1.16s0,.76,0,1.2a3.49,3.49,0,0,1-.37,1.63,2.87,2.87,0,0,1-1.1,1.17,4.45,4.45,0,0,1-3.71.19,2.85,2.85,0,0,1-1.22-1,3.54,3.54,0,0,1-.54-1.57c0-.23-.05-.63-.08-1.2s0-.95,0-1.16a3.37,3.37,0,0,1,.83-2.33,4.07,4.07,0,0,1,5-.27ZM191,225.44a1.78,1.78,0,0,0-.24,1.05c0,.24,0,.61,0,1.13s.06.89.09,1.1a1.74,1.74,0,0,0,.35,1,1,1,0,0,0,.86.33c.72,0,1.07-.52,1.06-1.46,0-.21,0-.58,0-1.1s-.05-.89-.07-1.13c-.09-.93-.5-1.38-1.22-1.34A1,1,0,0,0,191,225.44Z"/><path class="cls-1" d="M174.38,220.09a.26.26,0,0,1,.15-.16.27.27,0,0,1,.2,0l1.77.68a.45.45,0,0,1,.31.37l.6,3.44.73.28,1.05-2.75a.27.27,0,0,1,.16-.17.33.33,0,0,1,.24,0l1.53.59a.28.28,0,0,1,.17.15.26.26,0,0,1,0,.23L178.53,230a.31.31,0,0,1-.16.18.26.26,0,0,1-.23,0l-1.54-.59a.27.27,0,0,1-.17-.16.29.29,0,0,1,0-.24l1-2.66-.63-.24-2.65,2.11a.49.49,0,0,1-.51.07l-1.72-.66a.22.22,0,0,1-.14-.13.21.21,0,0,1,0-.19.27.27,0,0,1,.09-.12l3.37-2.62-.87-4.56A.2.2,0,0,1,174.38,220.09Z"/><path class="cls-1" d="M171.71,218.88a3.14,3.14,0,0,1-.64,2.57c-.13.19-.33.46-.61.83l-.64.83a3.19,3.19,0,0,1-2.32,1.31,4.62,4.62,0,0,1-4.26-3.23,3.17,3.17,0,0,1,.64-2.58c.27-.38.47-.67.61-.85l.64-.81a3.16,3.16,0,0,1,2.3-1.31,4,4,0,0,1,2.64,1A4,4,0,0,1,171.71,218.88ZM168,217.73a1.63,1.63,0,0,0-1,.69l-.63.77-.56.79a1.68,1.68,0,0,0-.39,1.17,1.36,1.36,0,0,0,.57.9,1.38,1.38,0,0,0,1,.31,1.63,1.63,0,0,0,1-.69c.15-.17.34-.43.6-.76l.59-.8a1.74,1.74,0,0,0,.39-1.17A1.38,1.38,0,0,0,169,218,1.34,1.34,0,0,0,168,217.73Z"/><path class="cls-1" d="M165.06,212.5a.3.3,0,0,1-.13.2l-6.34,4.52a.32.32,0,0,1-.23.06.28.28,0,0,1-.2-.12l-.95-1.34a.3.3,0,0,1,.07-.44l2.32-1.65-1.65-2.3-2.31,1.65a.29.29,0,0,1-.24,0,.27.27,0,0,1-.2-.13l-.95-1.32a.3.3,0,0,1-.05-.24.27.27,0,0,1,.13-.2l6.34-4.52a.25.25,0,0,1,.22-.05.28.28,0,0,1,.2.13l.95,1.33a.31.31,0,0,1,.06.23.26.26,0,0,1-.12.19l-2.4,1.71,1.65,2.31,2.39-1.71a.28.28,0,0,1,.23-.05.3.3,0,0,1,.2.13l.95,1.34A.3.3,0,0,1,165.06,212.5Z"/><path class="cls-1" d="M159.53,203.82a.31.31,0,0,1-.17.15l-7.38,2.5a.26.26,0,0,1-.23,0,.27.27,0,0,1-.16-.17l-1.82-5.37a.29.29,0,0,1,0-.24.3.3,0,0,1,.18-.15l1.12-.38a.29.29,0,0,1,.24,0,.34.34,0,0,1,.15.18l1.22,3.6,1.44-.49L153,200.11a.28.28,0,0,1,0-.24.31.31,0,0,1,.18-.16l1-.35a.26.26,0,0,1,.23,0,.31.31,0,0,1,.16.18l1.13,3.35,1.48-.51L156,198.71a.29.29,0,0,1,0-.24.25.25,0,0,1,.18-.15l1.12-.39a.33.33,0,0,1,.24,0,.34.34,0,0,1,.15.18l1.85,5.46A.31.31,0,0,1,159.53,203.82Z"/><path class="cls-1" d="M158.47,189.16a.27.27,0,0,1-.21.1l-1.38,0,.17,5.66a.31.31,0,0,1-.31.31l-7.78.23a.29.29,0,0,1-.22-.08.26.26,0,0,1-.09-.21l-.05-1.65a.31.31,0,0,1,.29-.32l6.1-.18-.09-2.83-6.09.18a.25.25,0,0,1-.22-.08.29.29,0,0,1-.09-.22l-.05-1.63a.38.38,0,0,1,.08-.23.27.27,0,0,1,.21-.09l6.1-.18,0-.56a.29.29,0,0,1,.3-.31l3.07-.09a.28.28,0,0,1,.22.07.29.29,0,0,1,.09.22l.05,1.64A.28.28,0,0,1,158.47,189.16Z"/><path class="cls-1" d="M157.85,179.56a3.35,3.35,0,0,1-2.47,0c-.41-.15-.77-.29-1.09-.43l-1.09-.49a3.55,3.55,0,0,1-1.3-1,2.81,2.81,0,0,1-.57-1.5,4,4,0,0,1,.35-1.87,3.83,3.83,0,0,1,1.1-1.55,2.86,2.86,0,0,1,1.48-.65,3.66,3.66,0,0,1,1.65.21l1.12.45c.51.22.86.38,1.06.48a3.4,3.4,0,0,1,1.73,1.76,3.52,3.52,0,0,1-.18,2.67A3.47,3.47,0,0,1,157.85,179.56ZM158,176a1.75,1.75,0,0,0-.84-.68c-.21-.11-.55-.26-1-.46s-.82-.34-1-.41a1.78,1.78,0,0,0-1.06-.13,1,1,0,0,0-.67.63c-.28.66,0,1.19.84,1.6l1,.44,1,.43c.88.33,1.46.16,1.74-.5A1,1,0,0,0,158,176Z"/><path class="cls-1" d="M163.78,170.11a.29.29,0,0,1-.22-.06l-4.44-3.43v2a.38.38,0,0,1-.06.17.32.32,0,0,1-.27.12h-1.21a.48.48,0,0,1-.18-.07.31.31,0,0,1-.12-.27v-3.52a.5.5,0,0,1,.1-.27l1-1.25a.28.28,0,0,1,.2-.12.25.25,0,0,1,.23.06l6.17,4.77a.28.28,0,0,1,.12.2.39.39,0,0,1-.07.23l-1,1.3A.29.29,0,0,1,163.78,170.11Z"/><path class="cls-1" d="M164.47,163.12a.29.29,0,0,1-.21-.09l-1-1.14a.26.26,0,0,1-.07-.22.26.26,0,0,1,.1-.2l1.18-1.05a.3.3,0,0,1,.23-.08.26.26,0,0,1,.21.1l1,1.13a.32.32,0,0,1,.08.22.33.33,0,0,1-.12.21l-1.18,1.05A.28.28,0,0,1,164.47,163.12Zm2.78,3.15a.3.3,0,0,1-.2-.1l-1-1.13a.28.28,0,0,1-.08-.22.3.3,0,0,1,.1-.2l1.19-1.05a.31.31,0,0,1,.22-.09.3.3,0,0,1,.21.1l1,1.14a.27.27,0,0,1,.08.22.36.36,0,0,1-.11.21l-1.19,1A.32.32,0,0,1,167.25,166.27Z"/><path class="cls-1" d="M170.92,163.1a.28.28,0,0,1-.19-.14l-.43-.79a.72.72,0,0,1,0-.67l.44-1.49c.38-.88.67-1.55.85-2a5.79,5.79,0,0,0,.35-1.19,1.24,1.24,0,0,0-.09-.79.79.79,0,0,0-1.21-.35,1,1,0,0,0-.49.6,1.5,1.5,0,0,0,0,.78.37.37,0,0,1-.22.44l-1.39.77a.27.27,0,0,1-.2,0,.25.25,0,0,1-.15-.11,2.72,2.72,0,0,1-.31-1.47,2.86,2.86,0,0,1,.51-1.45,3.69,3.69,0,0,1,1.32-1.17,4.18,4.18,0,0,1,1.67-.56,2.34,2.34,0,0,1,2.41,1.26,2.57,2.57,0,0,1,.3,1.63,8.65,8.65,0,0,1-.69,2.11l-.38,1.35,2.65-1.47a.24.24,0,0,1,.23,0,.34.34,0,0,1,.18.14l.62,1.13a.28.28,0,0,1,0,.22.27.27,0,0,1-.15.18l-5.46,3.05A.33.33,0,0,1,170.92,163.1Z"/><path class="cls-1" d="M179.93,158a3.42,3.42,0,0,1-1.43-2c-.11-.42-.2-.8-.28-1.13s-.16-.74-.24-1.18a3.68,3.68,0,0,1,.08-1.66,3,3,0,0,1,.89-1.34,3.88,3.88,0,0,1,1.72-.81,3.94,3.94,0,0,1,1.9,0,2.8,2.8,0,0,1,1.39.82,3.45,3.45,0,0,1,.79,1.46c.07.22.17.61.29,1.17s.21.92.24,1.14a3.42,3.42,0,0,1-.42,2.43,3.48,3.48,0,0,1-2.27,1.42A3.52,3.52,0,0,1,179.93,158Zm3-2A1.73,1.73,0,0,0,183,155c0-.23-.11-.6-.22-1.11s-.21-.86-.27-1.07a1.81,1.81,0,0,0-.52-.93.94.94,0,0,0-.9-.18c-.71.15-1,.7-.8,1.62,0,.21.11.57.23,1.08s.2.87.26,1.09c.25.91.72,1.28,1.42,1.12A1,1,0,0,0,182.92,156Z"/><path class="cls-1" d="M192.5,138.66a.41.41,0,0,1-.08-.34l1.79-11.21a.43.43,0,0,1,.18-.3.46.46,0,0,1,.34-.08l2,.32a.65.65,0,0,1,.56.48l2.12,5.79,3.84-4.84a.65.65,0,0,1,.68-.28l2,.31a.43.43,0,0,1,.3.18.42.42,0,0,1,.08.34l-1.79,11.22a.43.43,0,0,1-.18.29.49.49,0,0,1-.34.07l-2.2-.36a.4.4,0,0,1-.28-.17.43.43,0,0,1-.08-.33l1-6.29-2.42,3.13a.68.68,0,0,1-.66.3l-.94-.15a.74.74,0,0,1-.54-.5l-1.3-3.71-1,6.29a.46.46,0,0,1-.17.29.5.5,0,0,1-.34.07l-2.18-.35A.45.45,0,0,1,192.5,138.66Z"/><path class="cls-1" d="M213.19,143.19a4.6,4.6,0,0,1,.48-3.83c.16-.29.41-.73.75-1.31s.6-1,.78-1.31a4.66,4.66,0,0,1,3.12-2.3,6.73,6.73,0,0,1,6.74,3.94,4.62,4.62,0,0,1-.48,3.85c-.32.6-.57,1-.74,1.33s-.44.73-.79,1.28a4.66,4.66,0,0,1-3.1,2.31,7,7,0,0,1-6.76-4Zm5.63,1a2.51,2.51,0,0,0,1.36-1.17c.36-.57.61-1,.76-1.24s.37-.66.68-1.24a2.44,2.44,0,0,0,.36-1.75,2.21,2.21,0,0,0-2.52-1.47,2.44,2.44,0,0,0-1.36,1.16l-.73,1.22c-.31.54-.55,1-.71,1.26a2.44,2.44,0,0,0-.36,1.75,2.21,2.21,0,0,0,2.52,1.48Z"/><path class="cls-1" d="M222.27,149.79a.36.36,0,0,1,.1-.26.52.52,0,0,1,.19-.12l6.7-1.33,1.32-6.33a.86.86,0,0,1,.11-.19.4.4,0,0,1,.26-.1.36.36,0,0,1,.26.1l1.9,1.89a.72.72,0,0,1,.18.72l-.74,3.55,3.6-.72a.71.71,0,0,1,.7.16l1.82,1.8a.36.36,0,0,1,.1.26.38.38,0,0,1-.1.26.4.4,0,0,1-.19.11l-6.31,1.32-1.29,6.76a.5.5,0,0,1-.11.19.34.34,0,0,1-.26.1.33.33,0,0,1-.26-.1l-2-2a.67.67,0,0,1-.19-.68l.7-3.88-3.84.77a.74.74,0,0,1-.69-.19l-1.9-1.88A.4.4,0,0,1,222.27,149.79Z"/><path class="cls-1" d="M233.17,160.27a4.61,4.61,0,0,1,2.27-3.13c.28-.17.7-.44,1.29-.78l1.31-.77a4.67,4.67,0,0,1,3.85-.5,6.72,6.72,0,0,1,4,6.7,4.63,4.63,0,0,1-2.28,3.14q-.85.56-1.29.81c-.3.18-.74.43-1.31.74a4.66,4.66,0,0,1-3.83.52,7,7,0,0,1-4-6.73Zm4.44,3.61a2.42,2.42,0,0,0,1.74-.37c.6-.33,1-.56,1.27-.71s.65-.4,1.2-.76a2.42,2.42,0,0,0,1.15-1.36,1.9,1.9,0,0,0-.26-1.53,2,2,0,0,0-1.23-1,2.46,2.46,0,0,0-1.75.37c-.28.16-.69.39-1.22.71s-1,.57-1.24.76a2.41,2.41,0,0,0-1.16,1.36,1.94,1.94,0,0,0,.28,1.54A2,2,0,0,0,237.61,163.88Z"/><path class="cls-1" d="M239,174a.42.42,0,0,1,.27-.21l8.58-2.58-.89-2.95a.47.47,0,0,1,0-.35.43.43,0,0,1,.27-.22l1.87-.56a.42.42,0,0,1,.35,0,.46.46,0,0,1,.22.27l2.74,9.1a.47.47,0,0,1,0,.35.4.4,0,0,1-.27.22l-1.87.56a.4.4,0,0,1-.34,0,.4.4,0,0,1-.21-.28l-.89-2.94L240.2,177a.44.44,0,0,1-.34,0,.48.48,0,0,1-.21-.27l-.7-2.33A.47.47,0,0,1,239,174Z"/><path class="cls-1" d="M241.31,182.85a.43.43,0,0,1,.31-.14l11.35-.49a.42.42,0,0,1,.32.11.38.38,0,0,1,.15.3l.1,2.4a.43.43,0,0,1-.43.47l-4.14.18.17,4.13,4.15-.18a.4.4,0,0,1,.33.12.41.41,0,0,1,.14.31l.11,2.38a.48.48,0,0,1-.12.33.46.46,0,0,1-.32.15l-11.34.49a.37.37,0,0,1-.32-.12.42.42,0,0,1-.14-.32l-.1-2.37a.47.47,0,0,1,.1-.33.44.44,0,0,1,.31-.15l4.29-.18-.18-4.13-4.29.19a.47.47,0,0,1-.32-.12.44.44,0,0,1-.13-.32l-.11-2.39A.43.43,0,0,1,241.31,182.85Z"/><path class="cls-1" d="M238.93,207.19a.43.43,0,0,1,.33-.05l11,2.88a.42.42,0,0,1,.31.53L250,213a.42.42,0,0,1-.2.28.49.49,0,0,1-.34,0l-11-2.88a.48.48,0,0,1-.27-.2.4.4,0,0,1,0-.34l.63-2.42A.43.43,0,0,1,238.93,207.19Zm2.78-10.61a.39.39,0,0,1,.33-.05l11,2.87a.39.39,0,0,1,.27.21.42.42,0,0,1,.05.33l-.61,2.32a.47.47,0,0,1-.2.28.44.44,0,0,1-.34.05l-3.6-1-.41,1.54a5.56,5.56,0,0,1-1.87,3.19,3.59,3.59,0,0,1-3.18.45,3.83,3.83,0,0,1-2.59-2,5.21,5.21,0,0,1-.18-3.7l1.13-4.3A.4.4,0,0,1,241.71,196.58Zm1.13,5.13a1.33,1.33,0,0,0,.15,1.15,1.67,1.67,0,0,0,1,.65,1.32,1.32,0,0,0,1.81-1l.38-1.47-3-.77Z"/><path class="cls-1" d="M236.64,213.09a.46.46,0,0,1,.34.07l9.58,6.05a.47.47,0,0,1,.21.29.46.46,0,0,1-.06.34l-1.28,2a.43.43,0,0,1-.28.21.51.51,0,0,1-.34-.06L239,218.34l3.31,7.8a.69.69,0,0,1,0,.68l-1.15,1.82a.43.43,0,0,1-.28.2.46.46,0,0,1-.34-.07l-9.6-6.06a.48.48,0,0,1-.2-.27.42.42,0,0,1,.06-.34l1.28-2a.45.45,0,0,1,.28-.21.43.43,0,0,1,.33,0l5.57,3.52-3.08-7.65a.88.88,0,0,1-.08-.33.64.64,0,0,1,.12-.35l1.15-1.82A.4.4,0,0,1,236.64,213.09Zm9.71,10a2.41,2.41,0,0,1,2,.33.33.33,0,0,1,.15.2.31.31,0,0,1-.05.26l-.78,1.24a.31.31,0,0,1-.22.16.3.3,0,0,1-.24-.05c-.52-.32-1-.2-1.31.37a.84.84,0,0,0,.23,1.33.39.39,0,0,1,.16.2.36.36,0,0,1,0,.26l-.79,1.24a.31.31,0,0,1-.21.16.37.37,0,0,1-.25-.05,2.37,2.37,0,0,1-1.14-1.64,3.41,3.41,0,0,1,.67-2.37A3.45,3.45,0,0,1,246.35,223.05Z"/><path class="cls-1" d="M225.13,228.33a.43.43,0,0,1,.29.17l6.92,9a.49.49,0,0,1,.1.34.4.4,0,0,1-.17.29l-3.93,3a5.57,5.57,0,0,1-3.46,1.35,3.63,3.63,0,0,1-2.87-1.61,3.51,3.51,0,0,1-.79-3.15,5.79,5.79,0,0,1,2.23-3l1.58-1.22-2.3-3a.46.46,0,0,1-.09-.32.42.42,0,0,1,.17-.3l2-1.53A.45.45,0,0,1,225.13,228.33Zm-.08,8.38a1.59,1.59,0,0,0-.67,1,1.41,1.41,0,0,0,.35,1.13,1.59,1.59,0,0,0,1,.64,1.48,1.48,0,0,0,1.18-.37l1.55-1.2-1.83-2.38Z"/><path class="cls-1" d="M210.72,250.55a.41.41,0,0,1-.24-.24L206,239.86a.42.42,0,0,1,0-.33.4.4,0,0,1,.24-.25l2.2-.94a.38.38,0,0,1,.33,0,.37.37,0,0,1,.24.23l1.47,3.42,1.29-.55.36-4.17a.83.83,0,0,1,.49-.73l2.25-1a.33.33,0,0,1,.29,0,.39.39,0,0,1,.21.19.56.56,0,0,1,0,.2l-.58,4.68a3.59,3.59,0,0,1,2,.66,3.94,3.94,0,0,1,1.37,1.74,4,4,0,0,1,.32,2.17,3.73,3.73,0,0,1-.94,2,5.78,5.78,0,0,1-2.18,1.5l-4.32,1.86A.45.45,0,0,1,210.72,250.55Zm1.95-3.45,1.66-.71a1.4,1.4,0,0,0,.81-.81,1.66,1.66,0,0,0-.09-1.19,1.52,1.52,0,0,0-.77-.85,1.45,1.45,0,0,0-1.14.09l-1.66.71Z"/><path class="cls-1" d="M203.16,238a.41.41,0,0,1,.16.3l.61,4.42a.44.44,0,0,1-.07.34.42.42,0,0,1-.3.17l-.31.05c-.53.07-.84.59-.92,1.55a17.75,17.75,0,0,0,.22,4l.48,3.5a.38.38,0,0,1-.09.33.45.45,0,0,1-.3.17l-8.27,1.14a.45.45,0,0,1-.51-.39l-1.22-8.79-.79.11a.45.45,0,0,1-.34-.08.47.47,0,0,1-.18-.3l-.61-4.42a.41.41,0,0,1,.09-.34.43.43,0,0,1,.3-.18l2.36-.32a.46.46,0,0,1,.34.08.51.51,0,0,1,.17.3l.27,2,6.09-.84-.28-2a.52.52,0,0,1,.09-.34.44.44,0,0,1,.3-.17l2.38-.33A.4.4,0,0,1,203.16,238Zm-7.26,6.29.88,6.35,2.77-.39-.2-1.45a11.84,11.84,0,0,1,.07-5Z"/><path class="cls-1" d="M189,240.45a.36.36,0,0,1,.06.27l-.75,3.48a.85.85,0,0,1-.22.42.56.56,0,0,1-.46.16l-2.12-.13a.31.31,0,0,1-.24-.12.38.38,0,0,1-.09-.25.59.59,0,0,1,.05-.19l1.57-3.39a.68.68,0,0,1,.67-.46l1.28.08A.34.34,0,0,1,189,240.45Z"/><path class="cls-1" d="M177.73,240.51a.38.38,0,0,1,0,.33l-3.84,10.69a.49.49,0,0,1-.22.27.4.4,0,0,1-.34,0l-9.24-3.31a.47.47,0,0,1-.28-.59l3.84-10.69a.44.44,0,0,1,.23-.25.47.47,0,0,1,.35,0l2.24.8a.46.46,0,0,1,.26.23.4.4,0,0,1,0,.34l-3,8.36,3.89,1.4,3-8.37a.42.42,0,0,1,.57-.25l2.26.81A.39.39,0,0,1,177.73,240.51Z"/><path class="cls-1" d="M165.82,236a.34.34,0,0,1,0,.28l-.1.12-9.76,6.87a.68.68,0,0,1-.86,0l-2.24-1.56a.68.68,0,0,1-.28-.82l3.06-11.53a.45.45,0,0,1,.07-.14.37.37,0,0,1,.24-.14.31.31,0,0,1,.27,0l1.87,1.3a.61.61,0,0,1,.27.65l-.45,1.76,3.76,2.62,1.49-1a.6.6,0,0,1,.7,0l1.87,1.3A.3.3,0,0,1,165.82,236Zm-6.3,1.21L157,235.44,155.69,240Z"/><path class="cls-1" d="M154.3,227.44a.4.4,0,0,1-.15.3l-8.59,7.43a.52.52,0,0,1-.33.12.44.44,0,0,1-.3-.15l-3.24-3.75a5.56,5.56,0,0,1-1.55-3.38,3.61,3.61,0,0,1,1.44-3,3.52,3.52,0,0,1,3.1-1,5.82,5.82,0,0,1,3.09,2.06l1.3,1.51,2.86-2.48a.43.43,0,0,1,.31-.1.4.4,0,0,1,.31.15l1.65,1.91A.42.42,0,0,1,154.3,227.44Zm-8.37.4a1.63,1.63,0,0,0-1-.61,1.45,1.45,0,0,0-1.11.42,1.55,1.55,0,0,0-.59,1,1.49,1.49,0,0,0,.44,1.16l1.28,1.48,2.28-2Z"/><path class="cls-1" d="M141.34,208.25a.43.43,0,0,1,.31,0,.41.41,0,0,1,.23.2l1.23,2.47a.64.64,0,0,1,0,.7l-2.74,4.29.51,1,3.83-1.92a.41.41,0,0,1,.34,0,.49.49,0,0,1,.26.23l1.07,2.15a.39.39,0,0,1,0,.33.41.41,0,0,1-.23.25L136,223a.48.48,0,0,1-.35,0,.43.43,0,0,1-.26-.22l-1.07-2.15a.41.41,0,0,1,0-.34.47.47,0,0,1,.23-.27l3.71-1.85-.44-.88-4.93-.35a.75.75,0,0,1-.61-.44l-1.19-2.39a.35.35,0,0,1,0-.28.38.38,0,0,1,.19-.22.42.42,0,0,1,.22,0l6.21.52,3.55-5.75A.34.34,0,0,1,141.34,208.25Z"/><path class="cls-1" d="M139.32,199.5a4,4,0,0,1-1,1.83,3.28,3.28,0,0,1-1.57.85h0a.31.31,0,0,1-.25-.09.35.35,0,0,1-.12-.24l-.29-2.36a.71.71,0,0,1,0-.34.78.78,0,0,1,.21-.25,1.84,1.84,0,0,0,.63-1.93,2.65,2.65,0,0,0-.5-1.38,1.06,1.06,0,0,0-1-.41,1.07,1.07,0,0,0-.89.59,2.42,2.42,0,0,0-.16,1.4l.16,1.29a.4.4,0,0,1-.11.32.46.46,0,0,1-.31.17l-1.48.18a.52.52,0,0,1-.34-.09.42.42,0,0,1-.18-.29l-.15-1.25a2,2,0,0,0-.42-1.11,1,1,0,0,0-.95-.31,1,1,0,0,0-.81.53,2,2,0,0,0-.18,1.23,2.68,2.68,0,0,0,.37,1.14,1.07,1.07,0,0,0,.71.49.72.72,0,0,1,.25.16.55.55,0,0,1,.11.29l.29,2.41a.45.45,0,0,1-.07.3.3.3,0,0,1-.25.13,3.54,3.54,0,0,1-2.58-1.09,5.86,5.86,0,0,1-1.44-3.59,6.6,6.6,0,0,1,.16-2.62,4.05,4.05,0,0,1,1.06-1.85,2.81,2.81,0,0,1,1.67-.81,3.27,3.27,0,0,1,1.43.13,2.41,2.41,0,0,1,1.2.93,2.89,2.89,0,0,1,1.06-1.46,3.33,3.33,0,0,1,1.58-.61,3.15,3.15,0,0,1,2,.41,4.14,4.14,0,0,1,1.52,1.67,7.51,7.51,0,0,1,.8,2.72A7.33,7.33,0,0,1,139.32,199.5Z"/><path class="cls-1" d="M138.45,189.68a.41.41,0,0,1-.27.08.39.39,0,0,1-.15,0l-10.6-5.48a.69.69,0,0,1-.42-.76l.35-2.71a.69.69,0,0,1,.6-.63l11.64-2.6h.16a.33.33,0,0,1,.24.15.33.33,0,0,1,.08.26l-.29,2.26a.61.61,0,0,1-.46.54l-1.76.41L137,185.7l1.6.85a.59.59,0,0,1,.3.64l-.29,2.25A.38.38,0,0,1,138.45,189.68Zm-4-5,.4-3.09-4.63,1Z"/><path class="cls-1" d="M140.73,175.51a.42.42,0,0,1-.33,0l-10.54-4.23a.42.42,0,0,1-.26-.23.4.4,0,0,1,0-.34l1.84-4.6a5.62,5.62,0,0,1,2.29-2.93,3.64,3.64,0,0,1,3.29-.07,3.51,3.51,0,0,1,2.29,2.31,5.78,5.78,0,0,1-.41,3.68l-.75,1.85,3.51,1.41a.42.42,0,0,1,.24.23.44.44,0,0,1,0,.34l-.94,2.34A.42.42,0,0,1,140.73,175.51Zm-4.19-7.25a1.61,1.61,0,0,0,.07-1.19,1.43,1.43,0,0,0-.88-.79,1.57,1.57,0,0,0-1.16-.06,1.47,1.47,0,0,0-.82.92L133,169l2.79,1.12Z"/><path class="cls-1" d="M141.82,149.06a.4.4,0,0,1,.33.09l9.19,6.7a.46.46,0,0,1,.17.28.43.43,0,0,1-.08.34L150,158.4a.42.42,0,0,1-.29.17.4.4,0,0,1-.32-.07l-3-2.2-.83,1.13,1.81,3.77a.8.8,0,0,1,0,.88l-1.44,2a.38.38,0,0,1-.25.16.43.43,0,0,1-.28-.06.74.74,0,0,1-.12-.16l-1.89-4.32a3.56,3.56,0,0,1-2.06.45,4,4,0,0,1-2.06-.8,4.07,4.07,0,0,1-1.38-1.7,3.73,3.73,0,0,1-.2-2.18,6,6,0,0,1,1.11-2.4l2.78-3.8A.46.46,0,0,1,141.82,149.06Zm.08,4-1.06,1.45a1.36,1.36,0,0,0-.28,1.12,1.6,1.6,0,0,0,.68,1,1.3,1.3,0,0,0,2-.31l1.06-1.46Z"/><path class="cls-1" d="M154.73,156a.42.42,0,0,1-.3-.17l-2.78-3.49a.42.42,0,0,1-.11-.33.41.41,0,0,1,.16-.29l.25-.2c.42-.34.42-.94,0-1.81a19.32,19.32,0,0,0-2.21-3.28l-2.21-2.76a.45.45,0,0,1-.1-.33.48.48,0,0,1,.18-.29l6.51-5.22a.47.47,0,0,1,.34-.1.42.42,0,0,1,.3.17l5.55,6.93.63-.51a.45.45,0,0,1,.33-.1.48.48,0,0,1,.31.17l2.79,3.49a.4.4,0,0,1,.09.33.42.42,0,0,1-.17.31L162.44,150a.43.43,0,0,1-.34.1.42.42,0,0,1-.3-.17l-1.25-1.55-4.79,3.83,1.24,1.56a.45.45,0,0,1-.07.64l-1.87,1.5A.4.4,0,0,1,154.73,156Zm3-9.12-4-5-2.19,1.75.92,1.15a11.67,11.67,0,0,1,2.5,4.32Z"/><path class="cls-1" d="M165.38,145.09a.44.44,0,0,1-.25-.23l-4.58-10.41a.37.37,0,0,1,0-.34.4.4,0,0,1,.23-.23l2.19-1a.48.48,0,0,1,.35,0,.45.45,0,0,1,.25.24l1.5,3.41,1.62-.72a5.5,5.5,0,0,1,3.65-.51,3.61,3.61,0,0,1,2.34,2.22,3.82,3.82,0,0,1,.05,3.25,5.16,5.16,0,0,1-2.78,2.44l-4.23,1.86A.42.42,0,0,1,165.38,145.09Zm3.48-4.15a1.31,1.31,0,0,0,.8-.83,1.62,1.62,0,0,0-.11-1.19,1.52,1.52,0,0,0-.79-.87,1.45,1.45,0,0,0-1.14.09l-1.55.69,1.23,2.8Z"/><path class="cls-1" d="M176.82,140.51a.49.49,0,0,1-.19-.28l-2-11.18a.5.5,0,0,1,.06-.34.41.41,0,0,1,.29-.18l8.13-1.46a.45.45,0,0,1,.34.07.48.48,0,0,1,.19.3l.3,1.7a.38.38,0,0,1-.07.33.43.43,0,0,1-.3.18l-5.44,1,.39,2.19,5.07-.91a.41.41,0,0,1,.34.07.43.43,0,0,1,.18.29l.29,1.57a.45.45,0,0,1-.08.34.41.41,0,0,1-.29.19l-5.07.91.41,2.24,5.58-1a.41.41,0,0,1,.34.07.43.43,0,0,1,.18.29l.31,1.71a.42.42,0,0,1-.07.33.43.43,0,0,1-.3.18l-8.27,1.48A.41.41,0,0,1,176.82,140.51Z"/><path class="cls-1" d="M192.73,114.94a.62.62,0,0,1-.13-.47l.25-1.91a1.59,1.59,0,0,1,.81-1.18l2.66-2c1.77-1,3.12-1.79,4-2.36a12.21,12.21,0,0,0,2.12-1.6,2.62,2.62,0,0,0,.86-1.48,1.68,1.68,0,0,0-1.64-2.13,2,2,0,0,0-1.6.4,3.16,3.16,0,0,0-.91,1.39.79.79,0,0,1-.94.48l-3.36-.45a.56.56,0,0,1-.37-.21.55.55,0,0,1-.12-.39,5.89,5.89,0,0,1,1.33-2.92,6.25,6.25,0,0,1,2.74-1.84,8.07,8.07,0,0,1,3.74-.32,9.31,9.31,0,0,1,3.6,1.17,5.06,5.06,0,0,1,2.51,5.25,5.32,5.32,0,0,1-1.56,3.15,18,18,0,0,1-3.87,2.75l-2.39,1.83,6.43.85a.59.59,0,0,1,.44.24.65.65,0,0,1,.12.48l-.36,2.72a.61.61,0,0,1-.24.42.57.57,0,0,1-.48.13l-13.25-1.74A.62.62,0,0,1,192.73,114.94Z"/><path class="cls-1" d="M214.35,118.83a5.58,5.58,0,0,1-1.6-2.85,5.07,5.07,0,0,1,.3-3,4.5,4.5,0,0,1,1.54-2,4.6,4.6,0,0,1,2.28-.89,3.93,3.93,0,0,1-.36-4,4.58,4.58,0,0,1,3-2.79,8,8,0,0,1,5.35.62,7.87,7.87,0,0,1,4.23,3.25,4.54,4.54,0,0,1,.21,4.08,4.09,4.09,0,0,1-3,2.65,4.21,4.21,0,0,1,1.06,2.2,4.74,4.74,0,0,1-.3,2.56,5.05,5.05,0,0,1-1.86,2.33,5.82,5.82,0,0,1-3.14.92,10.61,10.61,0,0,1-4.18-.88A10.28,10.28,0,0,1,214.35,118.83Zm7-.68a2.12,2.12,0,0,0,1.23-3.05,3.07,3.07,0,0,0-1.61-1.31,3.17,3.17,0,0,0-2.08-.18,2.09,2.09,0,0,0-1.23,3,3.1,3.1,0,0,0,1.62,1.32A3.15,3.15,0,0,0,221.3,118.15ZM224,111a1.78,1.78,0,0,0,1.06-2.62,2.78,2.78,0,0,0-1.43-1.17,2.72,2.72,0,0,0-1.86-.16,1.84,1.84,0,0,0-1.07,2.64,2.77,2.77,0,0,0,1.45,1.18A2.92,2.92,0,0,0,224,111Z"/><path class="cls-1" d="M258.3,127.32a.64.64,0,0,1-.18.46L246.77,140a.64.64,0,0,1-.91,0l-2.57-2.4a.59.59,0,0,1-.2-.44.62.62,0,0,1,.16-.46l3.72-4-1.5-1.4-5.8,2a1.18,1.18,0,0,1-1.26-.23l-2.63-2.44a.57.57,0,0,1-.05-.78.66.66,0,0,1,.25-.15l6.62-2a5.36,5.36,0,0,1-.31-3.08,6,6,0,0,1,1.53-2.87,5.9,5.9,0,0,1,2.71-1.71,5.51,5.51,0,0,1,3.21.09,8.71,8.71,0,0,1,3.29,2l5,4.69A.65.65,0,0,1,258.3,127.32Zm-5.77-.57-1.94-1.8a2,2,0,0,0-1.57-.61,2.4,2.4,0,0,0-1.54.83,2.2,2.2,0,0,0-.68,1.52,2.13,2.13,0,0,0,.79,1.49l1.93,1.8Z"/><path class="cls-1" d="M250,144.55a.63.63,0,0,1,.3-.4l14.18-8.71a.67.67,0,0,1,.49-.1.61.61,0,0,1,.41.29l1.84,3a.59.59,0,0,1,.08.5.62.62,0,0,1-.3.41l-5.18,3.19,3.17,5.15,5.18-3.18a.66.66,0,0,1,.51-.09.7.7,0,0,1,.41.31l1.82,3a.64.64,0,0,1,.09.5.6.6,0,0,1-.3.41l-14.18,8.72a.58.58,0,0,1-.49.08.7.7,0,0,1-.41-.31l-1.82-3a.69.69,0,0,1-.1-.5.63.63,0,0,1,.29-.41l5.36-3.29L258.16,145l-5.35,3.29a.64.64,0,0,1-.5.08.68.68,0,0,1-.4-.31l-1.84-3A.6.6,0,0,1,250,144.55Z"/><path class="cls-1" d="M260.25,162.84a.64.64,0,0,1,.38-.31l16-4.57a.69.69,0,0,1,.51,0,.59.59,0,0,1,.31.39l2.18,7.62a7.49,7.49,0,0,1,.05,5,4.71,4.71,0,0,1-3.21,2.57,3.53,3.53,0,0,1-2.23-.05,4.2,4.2,0,0,1-1.66-1,4.31,4.31,0,0,1-3.09,3.47,5,5,0,0,1-4.34-.53,7.45,7.45,0,0,1-2.72-4.31l-2.24-7.84A.68.68,0,0,1,260.25,162.84Zm5.36,6.86a2.07,2.07,0,0,0,1,1.33,2.13,2.13,0,0,0,2.76-.8,2,2,0,0,0,.13-1.64l-.94-3.3-3.87,1.1Zm7-2.26a2,2,0,0,0,.9,1.27,1.82,1.82,0,0,0,1.42.13,1.79,1.79,0,0,0,1.11-.84,2,2,0,0,0,.07-1.56l-.88-3.08-3.5,1Z"/><path class="cls-1" d="M271.05,190.22a.6.6,0,0,1,.47-.17l2.56.18a.56.56,0,0,1,.44.22.63.63,0,0,1,.15.48L274,201.3a.6.6,0,0,1-.21.44.57.57,0,0,1-.47.15l-2.56-.17a.63.63,0,0,1-.44-.21.6.6,0,0,1-.16-.47l.7-10.36A.64.64,0,0,1,271.05,190.22Z"/><path class="cls-1" d="M261.84,213.46a.64.64,0,0,1,.49,0l1.77.76a1.54,1.54,0,0,1,.92,1.09l1.2,3.11c.49,2,.89,3.49,1.19,4.52a13.34,13.34,0,0,0,.95,2.48,2.6,2.6,0,0,0,1.19,1.22,1.68,1.68,0,0,0,2.5-1,2,2,0,0,0,.05-1.65,3.18,3.18,0,0,0-1.09-1.26.78.78,0,0,1-.2-1l1.34-3.11a.54.54,0,0,1,.31-.3.49.49,0,0,1,.41,0,5.79,5.79,0,0,1,2.44,2.07,6.1,6.1,0,0,1,1,3.13,8,8,0,0,1-.7,3.69,9.15,9.15,0,0,1-2.11,3.14,5.22,5.22,0,0,1-2.73,1.41,5.58,5.58,0,0,1-5.61-2.78,18.14,18.14,0,0,1-1.6-4.47l-1.11-2.79-2.56,5.95a.65.65,0,0,1-.35.36.67.67,0,0,1-.5,0l-2.52-1.08a.68.68,0,0,1-.34-.35.58.58,0,0,1,0-.5l5.28-12.27A.62.62,0,0,1,261.84,213.46Z"/><path class="cls-1" d="M243.14,242.32a.61.61,0,0,1,.46.2l1.21,1.26a9.28,9.28,0,0,1,5.51-2.92,6.91,6.91,0,0,1,5.26,2l.67.67.64.7a6.6,6.6,0,0,1,1.79,5.32,9.25,9.25,0,0,1-3.05,5.45l1,1a.65.65,0,0,1,.2.46.59.59,0,0,1-.2.46l-2.53,2.44a.6.6,0,0,1-.47.19.65.65,0,0,1-.47-.2l-1-1a9.19,9.19,0,0,1-5.54,2.86,6.6,6.6,0,0,1-5.25-2c-.38-.34-.61-.56-.69-.65s-.29-.32-.62-.72a6.74,6.74,0,0,1-1.83-5.3,9.28,9.28,0,0,1,3.11-5.41l-1.21-1.25a.62.62,0,0,1-.19-.47.71.71,0,0,1,.22-.46l2.53-2.44A.7.7,0,0,1,243.14,242.32Zm-.37,9.81a3.26,3.26,0,0,0,.94,2.36,8.63,8.63,0,0,0,.58.65,7.43,7.43,0,0,0,.59.57,3.34,3.34,0,0,0,2.34,1,3.62,3.62,0,0,0,2.31-1.17L244,249.85A3.69,3.69,0,0,0,242.77,252.13Zm10.17.11a3.4,3.4,0,0,0,1.25-2.43,3.88,3.88,0,0,0-1.32-2.59l-.78-.81a3.24,3.24,0,0,0-2.33-1,3.57,3.57,0,0,0-2.3,1.17Z"/><path class="cls-1" d="M230,254.3a.62.62,0,0,1,.38.31L238,269.39a.66.66,0,0,1,.06.51.57.57,0,0,1-.32.38L227,275.83a.66.66,0,0,1-.9-.28l-1.17-2.26a.62.62,0,0,1,0-.5.68.68,0,0,1,.34-.37l7.2-3.72-1.49-2.9-6.7,3.46a.61.61,0,0,1-.51.05.63.63,0,0,1-.39-.33l-1.07-2.07a.65.65,0,0,1-.05-.51.63.63,0,0,1,.34-.39l6.69-3.46-1.53-3-7.38,3.81a.69.69,0,0,1-.51.05.68.68,0,0,1-.39-.34l-1.16-2.25a.59.59,0,0,1,0-.5.67.67,0,0,1,.34-.38l10.93-5.65A.6.6,0,0,1,230,254.3Z"/><path class="cls-1" d="M213.42,262.14a.6.6,0,0,1,.28.4l3.65,16.24a.67.67,0,0,1-.08.5.58.58,0,0,1-.4.29l-7.74,1.73a7.37,7.37,0,0,1-5-.24,4.66,4.66,0,0,1-2.38-3.35,3.55,3.55,0,0,1,.17-2.22,4.34,4.34,0,0,1,1.13-1.6,4,4,0,0,1-2.06-1.1,4.12,4.12,0,0,1-1.22-2.18,5,5,0,0,1,.78-4.3,7.37,7.37,0,0,1,4.45-2.47l8-1.79A.69.69,0,0,1,213.42,262.14Zm-7.16,5a2,2,0,0,0-.74,3.7,2.08,2.08,0,0,0,1.63.23l3.35-.75-.88-3.93Zm1.85,7.15a2,2,0,0,0-1.32.82,2,2,0,0,0,.56,2.57,2,2,0,0,0,1.55.17l3.13-.7-.8-3.56Z"/><path class="cls-1" d="M176.48,264.35a.59.59,0,0,1,.12.48l-.78,5.36a3.74,3.74,0,0,1,1.65-.5,9.11,9.11,0,0,1,2.14.07,6.54,6.54,0,0,1,4.59,2.32,6.87,6.87,0,0,1,.85,5.14l-.82,5.58a.59.59,0,0,1-.26.43.69.69,0,0,1-.49.11l-3.45-.51a.68.68,0,0,1-.45-.25.57.57,0,0,1-.12-.48l.79-5.35a2.43,2.43,0,0,0-.35-1.91A2.93,2.93,0,0,0,178,274a4.76,4.76,0,0,0-1.89.08,1.18,1.18,0,0,0-1,1l-.93,6.3a.58.58,0,0,1-.25.42.67.67,0,0,1-.5.11l-3.45-.5a.66.66,0,0,1-.44-.25.63.63,0,0,1-.13-.48l2.42-16.5a.62.62,0,0,1,.26-.42.67.67,0,0,1,.5-.11l3.45.5A.68.68,0,0,1,176.48,264.35Z"/><path class="cls-1" d="M162.78,260.49a.62.62,0,0,1,0,.5l-5.12,12.09,4.16,1.76a.65.65,0,0,1,.36.35.55.55,0,0,1,0,.5l-1.12,2.64a.61.61,0,0,1-.36.36.65.65,0,0,1-.51,0l-12.82-5.43a.63.63,0,0,1-.37-.36.69.69,0,0,1,0-.51l1.12-2.65a.59.59,0,0,1,.36-.35.67.67,0,0,1,.5,0l4.16,1.76,5.12-12.09a.6.6,0,0,1,.35-.35.65.65,0,0,1,.51,0l3.28,1.39A.67.67,0,0,1,162.78,260.49Z"/><path class="cls-1" d="M151.82,252.93a.54.54,0,0,1-.13.4l-3.5,3.85a1.12,1.12,0,0,1-.59.37.8.8,0,0,1-.7-.14l-2.59-1.71a.53.53,0,0,1-.21-.33.46.46,0,0,1,.07-.38.58.58,0,0,1,.2-.21l4.48-3.15a1,1,0,0,1,1.19-.08l1.56,1A.46.46,0,0,1,151.82,252.93Z"/><path class="cls-1" d="M136.33,243.56a.62.62,0,0,1-.25.43l-12.94,10.47a.65.65,0,0,1-.48.16.6.6,0,0,1-.44-.24l-9-11.18a.67.67,0,0,1-.14-.49.63.63,0,0,1,.24-.45l12.94-10.47a.62.62,0,0,1,.48-.14.7.7,0,0,1,.44.26l2.19,2.71a.65.65,0,0,1,.16.48.6.6,0,0,1-.24.44l-10.12,8.19,3.8,4.71,10.13-8.2a.66.66,0,0,1,.48-.14.7.7,0,0,1,.44.26l2.21,2.73A.61.61,0,0,1,136.33,243.56Z"/><path class="cls-1" d="M122.23,223.05a.63.63,0,0,1-.34.36l-12,5.35,1.84,4.12a.65.65,0,0,1,0,.51.58.58,0,0,1-.34.36l-2.63,1.17a.61.61,0,0,1-.51,0,.64.64,0,0,1-.37-.35l-5.68-12.71a.67.67,0,0,1,0-.52.64.64,0,0,1,.35-.37l2.62-1.17a.62.62,0,0,1,.5,0,.67.67,0,0,1,.36.36l1.84,4.12,12-5.35a.62.62,0,0,1,.5,0,.69.69,0,0,1,.36.37l1.45,3.25A.65.65,0,0,1,122.23,223.05Z"/><path class="cls-1" d="M119.37,210.06a.5.5,0,0,1-.36.2l-5.19.43a1.21,1.21,0,0,1-.68-.13.86.86,0,0,1-.42-.59l-.72-3a.47.47,0,0,1,.07-.38.48.48,0,0,1,.31-.23.72.72,0,0,1,.29,0l5.42.76a1,1,0,0,1,.92.75l.44,1.83A.48.48,0,0,1,119.37,210.06Z"/><path class="cls-1" d="M113.28,191a6.76,6.76,0,0,1-5.31,1.89l-2.26-.12c-1-.07-1.82-.13-2.3-.18a6.74,6.74,0,0,1-5-2.57A8.48,8.48,0,0,1,97,184.21a10.53,10.53,0,0,1,1-4,6.57,6.57,0,0,1,2.33-2.72,5.76,5.76,0,0,1,3.4-.89.52.52,0,0,1,.37.19.56.56,0,0,1,.13.41L104,180.8a.78.78,0,0,1-.18.52,1.13,1.13,0,0,1-.54.26,3,3,0,0,0-1.82,1,3.28,3.28,0,0,0-.62,1.9q-.19,2.88,3,3.2c.46,0,1.16.1,2.12.16s1.68.1,2.18.11q3.23.1,3.41-2.78a3.47,3.47,0,0,0-.38-2,3,3,0,0,0-1.67-1.2.93.93,0,0,1-.51-.31.89.89,0,0,1-.11-.55l.24-3.63a.54.54,0,0,1,.17-.39.53.53,0,0,1,.4-.14,5.66,5.66,0,0,1,3.26,1.31,6.66,6.66,0,0,1,2,3,10.59,10.59,0,0,1,.48,4.13A8.67,8.67,0,0,1,113.28,191Z"/><path class="cls-1" d="M116.58,172.75a.58.58,0,0,1-.48,0l-15.79-5.26a.66.66,0,0,1-.39-.32.62.62,0,0,1,0-.5l3.93-11.77a.64.64,0,0,1,.33-.39.61.61,0,0,1,.51,0l2.56.86a.65.65,0,0,1,.42.84L105,164l2.7.9,1.09-3.26a7.56,7.56,0,0,1,2.94-4.18,4.85,4.85,0,0,1,4.36-.44,5.41,5.41,0,0,1,2.49,1.65,5.32,5.32,0,0,1,1.17,2.81,8.38,8.38,0,0,1-.45,3.67l-2.41,7.22A.58.58,0,0,1,116.58,172.75Zm-.68-8.27a2,2,0,0,0-.1-1.68,2.26,2.26,0,0,0-1.3-1,2,2,0,0,0-2.64,1.37l-1,2.84,4,1.35Z"/><path class="cls-1" d="M124.76,156.94a.51.51,0,0,1-.41-.09l-4.1-3.22a1.18,1.18,0,0,1-.41-.55.83.83,0,0,1,.09-.71l1.52-2.71a.5.5,0,0,1,.31-.24.52.52,0,0,1,.39,0,.82.82,0,0,1,.22.19l3.47,4.24a1,1,0,0,1,.16,1.18l-.92,1.63A.46.46,0,0,1,124.76,156.94Z"/><path class="cls-1" d="M133,140.81a.55.55,0,0,1-.44-.19L121.1,128.56a.67.67,0,0,1-.2-.47.62.62,0,0,1,.21-.46l5.74-5.45a7.43,7.43,0,0,1,4.43-2.38,4.7,4.7,0,0,1,3.77,1.66,3.56,3.56,0,0,1,1,2,4.13,4.13,0,0,1-.15,2,4.16,4.16,0,0,1,2.33-.12,4.23,4.23,0,0,1,2.18,1.25,4.94,4.94,0,0,1,1.53,4.09,7.34,7.34,0,0,1-2.55,4.41l-5.91,5.61A.58.58,0,0,1,133,140.81Zm-1.66-13.11a2,2,0,0,0,.71-1.38,1.78,1.78,0,0,0-.55-1.32,1.71,1.71,0,0,0-1.25-.6,2,2,0,0,0-1.42.66l-2.32,2.2L129,129.9Zm5.26,5.19a2.05,2.05,0,0,0,.72-1.49,2.12,2.12,0,0,0-2-2.07,2.05,2.05,0,0,0-1.52.64l-2.49,2.37,2.78,2.92Z"/><path class="cls-1" d="M148.65,125.76a6.75,6.75,0,0,1-4.42-3.5c-.23-.39-.6-1.05-1.1-2s-.86-1.61-1.07-2a6.8,6.8,0,0,1-.48-5.59,8.56,8.56,0,0,1,4.18-4.32,10.81,10.81,0,0,1,4-1.29,6.58,6.58,0,0,1,3.53.53,5.71,5.71,0,0,1,2.56,2.41.52.52,0,0,1,0,.42.55.55,0,0,1-.28.32l-3.2,1.73a.78.78,0,0,1-.53.13,1.25,1.25,0,0,1-.51-.32,3.08,3.08,0,0,0-1.79-1,3.32,3.32,0,0,0-1.94.49c-1.7.91-2.07,2.34-1.11,4.27.21.41.54,1,1,1.88s.8,1.48,1.06,1.9q1.62,2.81,4.17,1.42a3.38,3.38,0,0,0,1.46-1.38,3,3,0,0,0,.13-2,1,1,0,0,1,0-.59.88.88,0,0,1,.4-.39l3.2-1.73a.59.59,0,0,1,.43,0,.5.5,0,0,1,.33.26,5.65,5.65,0,0,1,.61,3.45A6.56,6.56,0,0,1,157.8,122a10.68,10.68,0,0,1-3.25,2.6A8.61,8.61,0,0,1,148.65,125.76Z"/><path class="cls-1" d="M181,114.88a.58.58,0,0,1-.06.45.55.55,0,0,1-.35.25l-4,.92a.93.93,0,0,1-1-.29l-5.18-5.37-1.62.37,1.43,6.12a.62.62,0,0,1-.08.5.69.69,0,0,1-.42.28l-3.42.8a.63.63,0,0,1-.49-.07.61.61,0,0,1-.28-.41l-3.79-16.21a.66.66,0,0,1,.07-.5.58.58,0,0,1,.4-.29l3.42-.8a.65.65,0,0,1,.51.08.62.62,0,0,1,.29.42l1.39,5.91,1.39-.32,2.18-6.91a1.11,1.11,0,0,1,.83-.72l3.82-.89a.49.49,0,0,1,.41.06.48.48,0,0,1,.24.34.44.44,0,0,1,0,.32l-2.84,8.67,7,7A.41.41,0,0,1,181,114.88Z"/><path class="cls-1" d="M195.06,81.43a1,1,0,0,1-.18-.83L200,52.87a1.1,1.1,0,0,1,.46-.73,1.11,1.11,0,0,1,.85-.18l4.83.89a1.63,1.63,0,0,1,1.37,1.23l4.92,14.51,9.82-11.8a1.62,1.62,0,0,1,1.71-.65l4.83.89a1,1,0,0,1,.73.46,1.07,1.07,0,0,1,.18.85l-5.11,27.74a1,1,0,0,1-.47.71,1.11,1.11,0,0,1-.84.15l-5.43-1a1,1,0,0,1-.69-.46,1.07,1.07,0,0,1-.18-.81l2.87-15.55-6.18,7.61a1.7,1.7,0,0,1-1.67.71L209.68,77a1.83,1.83,0,0,1-1.32-1.26l-3-9.3L202.48,82a1,1,0,0,1-.46.71,1.07,1.07,0,0,1-.84.16l-5.39-1A1.12,1.12,0,0,1,195.06,81.43Z"/><path class="cls-1" d="M228.16,88.21a.9.9,0,0,1,.06-.69,1.42,1.42,0,0,1,.22-.32l22.21-19.62a1.69,1.69,0,0,1,2.13-.28l6,3.24a1.7,1.7,0,0,1,.92,1.94l-4.43,29.3a1.08,1.08,0,0,1-.15.37.94.94,0,0,1-1.23.36l-5-2.7a1.48,1.48,0,0,1-.84-1.55l.64-4.45-10-5.44-3.39,2.95a1.51,1.51,0,0,1-1.76.14l-5-2.7A.92.92,0,0,1,228.16,88.21Zm15.25-4.69,6.79,3.7,1.9-11.58Z"/><path class="cls-1" d="M256,103.76a.84.84,0,0,1,.25-.64,1.12,1.12,0,0,1,.46-.28l16.66-3.24,3.36-15.69a1.12,1.12,0,0,1,.28-.46,1,1,0,0,1,1.29,0l4.69,4.7a1.78,1.78,0,0,1,.43,1.79l-1.88,8.81L290.46,97a1.78,1.78,0,0,1,1.75.4l4.48,4.49a.87.87,0,0,1,.25.65.83.83,0,0,1-.25.64,1,1,0,0,1-.46.28l-15.7,3.21-3.28,16.77a1,1,0,0,1-.28.46.83.83,0,0,1-.64.25.87.87,0,0,1-.65-.25l-4.85-4.86a1.71,1.71,0,0,1-.45-1.69l1.79-9.65-9.56,1.87a1.74,1.74,0,0,1-1.69-.46l-4.7-4.71A.9.9,0,0,1,256,103.76Z"/><path class="cls-1" d="M282,129.09q.93-4.56,5.95-7.53c.69-.41,1.78-1,3.26-1.82s2.59-1.39,3.34-1.76q5.13-2.58,9.59-.88t7.36,7.06q2.88,5.29,1.88,10t-5.95,7.56c-1.45.86-2.55,1.48-3.29,1.88s-1.87,1-3.32,1.71c-3.48,1.72-6.66,2-9.55.9s-5.3-3.49-7.26-7.1S281.37,132.14,282,129.09Zm10.66,9.4a6.11,6.11,0,0,0,4.37-.74q2.25-1.12,3.21-1.65c.63-.34,1.65-.93,3.05-1.75a6,6,0,0,0,3-3.26,5.49,5.49,0,0,0-3.46-6.38,6.05,6.05,0,0,0-4.37.74c-.73.36-1.77.91-3.11,1.64s-2.43,1.33-3.15,1.76a6,6,0,0,0-3,3.26,5.48,5.48,0,0,0,3.46,6.38Z"/><path class="cls-1" d="M292.92,156.1a1,1,0,0,1,.67-.48l27.61-5.75a1.13,1.13,0,0,1,.85.14,1,1,0,0,1,.48.7l2.74,13.14c.75,3.6.57,6.44-.54,8.5a7.92,7.92,0,0,1-5.75,4,5.94,5.94,0,0,1-3.75-.35,7.12,7.12,0,0,1-2.67-1.95,7,7,0,0,1-1.92,3.46,7.13,7.13,0,0,1-3.73,2,8.4,8.4,0,0,1-7.27-1.44c-2-1.55-3.34-4.09-4.07-7.6l-2.82-13.53A1,1,0,0,1,292.92,156.1Zm8.21,12.25a3.45,3.45,0,0,0,1.49,2.37,3.31,3.31,0,0,0,2.55.42,3.4,3.4,0,0,0,2.21-1.43,3.49,3.49,0,0,0,.43-2.75l-1.19-5.71-6.68,1.4Zm12.17-2.94a3.38,3.38,0,0,0,1.35,2.25,3.06,3.06,0,0,0,2.39.39,3,3,0,0,0,2-1.28,3.4,3.4,0,0,0,.32-2.62l-1.11-5.31-6,1.25Z"/><path class="cls-1" d="M300.3,189.51q3.29-3.3,9.11-3c.81,0,2,.12,3.73.26s2.92.26,3.76.36q5.7.65,8.5,4.52t2.29,9.93q-.49,6-3.89,9.38T314.67,214c-1.68-.08-2.94-.16-3.77-.23s-2.11-.2-3.72-.39q-5.79-.7-8.48-4.48T296.51,199Q297,192.82,300.3,189.51Zm3.77,13.7a6.1,6.1,0,0,0,4.07,1.78c1.66.19,2.86.32,3.58.38s1.89.13,3.52.21a6.06,6.06,0,0,0,4.29-1.09A4.83,4.83,0,0,0,321.2,201a4.9,4.9,0,0,0-1.07-3.75,6,6,0,0,0-4.06-1.77c-.8-.1-2-.21-3.5-.34s-2.76-.21-3.6-.25a6.05,6.05,0,0,0-4.3,1.08A4.9,4.9,0,0,0,303,199.5,4.82,4.82,0,0,0,304.07,203.21Z"/><path class="cls-1" d="M291.42,228.37a1.07,1.07,0,0,1,.83.1l25,13.08a1.15,1.15,0,0,1,.57.64,1,1,0,0,1-.08.85l-11.31,21.59a1.07,1.07,0,0,1-.66.56,1,1,0,0,1-.86-.08l-25-13.08a1,1,0,0,1-.55-.66,1.12,1.12,0,0,1,.11-.85l2.74-5.23a1.13,1.13,0,0,1,.64-.58,1.06,1.06,0,0,1,.85.08L303.26,255,308,246,288.46,235.7a1,1,0,0,1-.54-.65,1.12,1.12,0,0,1,.11-.85l2.76-5.27A1.07,1.07,0,0,1,291.42,228.37Z"/><path class="cls-1" d="M275,260.36q4.63-.44,8.93,3.51c.6.55,1.5,1.41,2.69,2.59s2.08,2.08,2.66,2.69q4,4.16,3.62,8.92t-4.62,9.09q-4.25,4.3-9,4.7c-3.18.26-6.16-.91-9-3.52-1.23-1.13-2.15-2-2.75-2.59s-1.48-1.51-2.59-2.69q-4-4.24-3.63-8.87t4.69-9Q270.33,260.79,275,260.36Zm-5.9,12.92a6.08,6.08,0,0,0,2,4c1.15,1.22,2,2.09,2.5,2.59s1.37,1.32,2.57,2.42a6,6,0,0,0,4,1.92,4.81,4.81,0,0,0,3.51-1.6,4.87,4.87,0,0,0,1.59-3.56,6.08,6.08,0,0,0-2-4c-.55-.59-1.38-1.42-2.47-2.5s-2-1.93-2.6-2.5a6,6,0,0,0-4-1.93,5.48,5.48,0,0,0-5.1,5.16Z"/><path class="cls-1" d="M235.72,287.69a1.08,1.08,0,0,1,.65.51l10.46,19.44,6.89-3.71L252,300.72a53.18,53.18,0,0,1-4.6-10.55,10,10,0,0,1,.27-7c.9-2,2.8-3.74,5.68-5.36a1.21,1.21,0,0,1,1.53.46l2.28,4.25a1.12,1.12,0,0,1-.42,1.51c-1.23,1-1.58,2.59-1.05,4.91a37.34,37.34,0,0,0,3.73,9l4.16,7.73a1,1,0,0,1,.08.84,1.11,1.11,0,0,1-.56.65l-19,10.24a1.08,1.08,0,0,1-.86.09,1.11,1.11,0,0,1-.67-.55l-13.37-24.83a1,1,0,0,1-.08-.85,1.11,1.11,0,0,1,.56-.65l5.24-2.82A1,1,0,0,1,235.72,287.69Z"/><path class="cls-1" d="M222.34,293.29a1.06,1.06,0,0,1,.48.68l5.72,27.61a1.12,1.12,0,0,1-.14.85,1,1,0,0,1-.7.48l-20.08,4.16a1.13,1.13,0,0,1-.86-.16,1.11,1.11,0,0,1-.48-.72l-.87-4.21a1,1,0,0,1,.16-.83,1.11,1.11,0,0,1,.73-.46l13.44-2.79-1.12-5.4-12.51,2.59a1.1,1.1,0,0,1-.85-.16,1,1,0,0,1-.48-.72l-.8-3.87a1.05,1.05,0,0,1,.15-.85,1.12,1.12,0,0,1,.72-.49l12.51-2.58-1.14-5.54-13.79,2.86a1.1,1.1,0,0,1-.85-.16,1.12,1.12,0,0,1-.49-.72l-.87-4.21a1,1,0,0,1,.16-.83,1.1,1.1,0,0,1,.73-.46l20.42-4.23A1,1,0,0,1,222.34,293.29Z"/><path class="cls-1" d="M183.59,298.5a1,1,0,0,1,.17.83L178.33,327a1.12,1.12,0,0,1-.48.73,1.1,1.1,0,0,1-.85.16l-4.82-.94a1.63,1.63,0,0,1-1.35-1.24l-4.76-14.58-9.95,11.69a1.64,1.64,0,0,1-1.72.64l-4.82-.95a1.12,1.12,0,0,1-.89-1.33l5.43-27.67a1,1,0,0,1,.47-.7,1.14,1.14,0,0,1,.85-.15l5.41,1.07a1,1,0,0,1,.69.46,1,1,0,0,1,.17.81l-3,15.52,6.26-7.54a1.71,1.71,0,0,1,1.68-.69l2.3.46a1.81,1.81,0,0,1,1.3,1.27l2.91,9.34,3-15.52a1,1,0,0,1,.47-.71,1.15,1.15,0,0,1,.84-.14l5.38,1.05A1.2,1.2,0,0,1,183.59,298.5Z"/><path class="cls-1" d="M150.56,291.34a.91.91,0,0,1-.06.69,1.67,1.67,0,0,1-.23.32l-22.44,19.36a1.7,1.7,0,0,1-2.13.25l-5.91-3.31a1.71,1.71,0,0,1-.91-1.95l4.77-29.25a1.54,1.54,0,0,1,.15-.36.86.86,0,0,1,.56-.41.84.84,0,0,1,.68.06L130,279.5a1.51,1.51,0,0,1,.83,1.55l-.7,4.44,9.94,5.56,3.42-2.91a1.5,1.5,0,0,1,1.76-.11l4.93,2.75A.89.89,0,0,1,150.56,291.34Zm-15.3,4.51-6.75-3.78-2,11.56Z"/><path class="cls-1" d="M122.92,275.46a.89.89,0,0,1-.26.64,1.17,1.17,0,0,1-.46.27l-16.7,3.05L102,295.07a1.13,1.13,0,0,1-.29.46.88.88,0,0,1-.64.24.91.91,0,0,1-.65-.26l-4.64-4.76a1.8,1.8,0,0,1-.4-1.79l2-8.79-9,1.64a1.81,1.81,0,0,1-1.75-.42l-4.43-4.54a1,1,0,0,1,0-1.3,1.17,1.17,0,0,1,.46-.27l15.74-3,3.47-16.74a1.17,1.17,0,0,1,.29-.45.84.84,0,0,1,.64-.24.89.89,0,0,1,.65.25l4.79,4.92a1.74,1.74,0,0,1,.44,1.69l-1.91,9.63,9.58-1.75a1.73,1.73,0,0,1,1.69.48l4.64,4.76A.88.88,0,0,1,122.92,275.46Z"/><path class="cls-1" d="M97.2,249.83q-1,4.56-6,7.46c-.7.41-1.8,1-3.28,1.79s-2.61,1.36-3.37,1.72q-5.15,2.54-9.59.77t-7.28-7.14q-2.82-5.34-1.77-10t6-7.49c1.46-.84,2.56-1.45,3.3-1.84s1.88-1,3.35-1.67q5.25-2.52,9.55-.79t7.19,7.19Q98.19,245.28,97.2,249.83Zm-10.55-9.51a6,6,0,0,0-4.38.69c-1.51.73-2.59,1.27-3.23,1.6s-1.66.92-3.07,1.72a6.06,6.06,0,0,0-3,3.23,4.84,4.84,0,0,0,.47,3.83A4.9,4.9,0,0,0,76.32,254a6,6,0,0,0,4.37-.69c.74-.36,1.78-.89,3.14-1.61s2.44-1.3,3.17-1.72a6,6,0,0,0,3-3.22,4.92,4.92,0,0,0-.5-3.87A4.84,4.84,0,0,0,86.65,240.32Z"/><path class="cls-1" d="M86.6,222.73a1,1,0,0,1-.68.47l-27.67,5.43a1.08,1.08,0,0,1-.85-.14,1,1,0,0,1-.47-.7l-2.59-13.18q-1.06-5.42.63-8.49a8,8,0,0,1,5.8-3.89,6,6,0,0,1,3.75.4,7.18,7.18,0,0,1,2.65,2,6.93,6.93,0,0,1,2-3.44,7.12,7.12,0,0,1,3.76-2,8.43,8.43,0,0,1,7.25,1.52q2.94,2.37,4,7.65l2.67,13.56A1.07,1.07,0,0,1,86.6,222.73Zm-20.27-9.54A3.37,3.37,0,0,0,65,210.92a3.09,3.09,0,0,0-2.39-.41,3,3,0,0,0-2,1.25,3.43,3.43,0,0,0-.35,2.62l1,5.33,6.05-1.19Zm12.2-2.8A3.45,3.45,0,0,0,77.07,208a3.32,3.32,0,0,0-2.55-.45A3.38,3.38,0,0,0,72.29,209a3.52,3.52,0,0,0-.45,2.75L73,217.42l6.69-1.32Z"/><path class="cls-1" d="M79.59,189.21q-3.32,3.27-9.14,2.93c-.81,0-2-.15-3.72-.31s-2.93-.29-3.76-.39q-5.7-.72-8.45-4.62t-2.18-10q.57-6,4-9.33t9.17-3c1.67.1,2.93.19,3.77.27s2.1.23,3.71.44q5.78.76,8.43,4.57t2.07,10Q82.91,185.93,79.59,189.21ZM76,175.47a6,6,0,0,0-4-1.82c-1.67-.22-2.86-.36-3.59-.43s-1.89-.15-3.51-.24a6,6,0,0,0-4.31,1,4.83,4.83,0,0,0-1.7,3.46,4.91,4.91,0,0,0,1,3.76,6.09,6.09,0,0,0,4,1.83c.81.1,2,.23,3.5.37s2.76.25,3.6.3a6.09,6.09,0,0,0,4.31-1,5.5,5.5,0,0,0,.68-7.22Z"/><path class="cls-1" d="M88.92,150.47a1.09,1.09,0,0,1-.84-.1L63.25,137a1.11,1.11,0,0,1-.56-.65,1,1,0,0,1,.08-.84L74.33,114a1.09,1.09,0,0,1,.66-.55,1.1,1.1,0,0,1,.87.09L100.69,127a1,1,0,0,1,.53.66,1.11,1.11,0,0,1-.11.85l-2.8,5.21a1.15,1.15,0,0,1-.65.56,1,1,0,0,1-.84-.08L77.38,123.68l-4.86,9L92,143.17a1.05,1.05,0,0,1,.53.66,1.11,1.11,0,0,1-.11.85l-2.82,5.25A1.08,1.08,0,0,1,88.92,150.47Z"/><path class="cls-1" d="M105.73,118.67q-4.64.38-8.89-3.61c-.59-.56-1.48-1.43-2.66-2.63s-2.06-2.1-2.63-2.72c-2.6-2.8-3.78-5.78-3.51-9s1.83-6.18,4.72-9,5.88-4.36,9-4.59,6.16,1,8.93,3.62c1.22,1.15,2.13,2,2.72,2.62s1.46,1.53,2.56,2.72q3.95,4.29,3.54,8.92t-4.8,9C111.83,116.85,108.83,118.42,105.73,118.67Zm6-12.86a6.09,6.09,0,0,0-1.93-4c-1.14-1.23-2-2.11-2.48-2.62s-1.35-1.33-2.53-2.44a6.08,6.08,0,0,0-4-2,5.5,5.5,0,0,0-5.16,5.11,6,6,0,0,0,1.93,4c.55.59,1.36,1.44,2.44,2.53s2,2,2.57,2.53a6.08,6.08,0,0,0,4,2,4.94,4.94,0,0,0,3.56-1.6A4.85,4.85,0,0,0,111.78,105.81Z"/><path class="cls-1" d="M145.28,91.79a1,1,0,0,1-.64-.52L134.4,71.71l-6.93,3.63,1.7,3.24a53.26,53.26,0,0,1,4.47,10.6,10.09,10.09,0,0,1-.34,7c-.93,1.94-2.85,3.7-5.74,5.28a1.06,1.06,0,0,1-.86.06A1.1,1.1,0,0,1,126,101l-2.24-4.27a1.14,1.14,0,0,1,.44-1.51c1.24-.94,1.61-2.58,1.11-4.9a37.2,37.2,0,0,0-3.63-9l-4.07-7.77a1,1,0,0,1-.07-.85,1.15,1.15,0,0,1,.57-.64l19.13-10a1,1,0,0,1,.86-.08,1.06,1.06,0,0,1,.67.56l13.08,25a1,1,0,0,1,.07.84,1.09,1.09,0,0,1-.57.64l-5.27,2.77A1.08,1.08,0,0,1,145.28,91.79Z"/><path class="cls-1" d="M158.72,86.34a1,1,0,0,1-.47-.68L152.85,58a1.19,1.19,0,0,1,.14-.85,1,1,0,0,1,.71-.46l20.13-3.94a1.11,1.11,0,0,1,.85.17,1.09,1.09,0,0,1,.47.73l.83,4.22a1,1,0,0,1-.17.83,1.15,1.15,0,0,1-.73.45L161.6,61.76l1.06,5.42,12.54-2.45a1.07,1.07,0,0,1,.85.17,1.09,1.09,0,0,1,.47.72l.76,3.88a1.12,1.12,0,0,1-.89,1.33l-12.54,2.45,1.08,5.54,13.82-2.7a1.1,1.1,0,0,1,.85.17,1.05,1.05,0,0,1,.47.73l.83,4.22a1,1,0,0,1-.17.83,1.15,1.15,0,0,1-.73.45l-20.47,4A1,1,0,0,1,158.72,86.34Z"/><path class="cls-1" d="M212.15,39.11a1.18,1.18,0,0,1-.23-1l.6-3.44q-7.59-1.32-11.21-5.47t-3-10.86l.28-1.88.37-1.86q1.49-6.41,6.5-9.19T217.86,4l.5-2.83a1.35,1.35,0,0,1,.51-.88,1.24,1.24,0,0,1,1-.22l6.93,1.21a1.3,1.3,0,0,1,1.08,1.54l-.49,2.83q7.4,1.29,11.17,5.59t3,10.83c-.1,1-.18,1.65-.22,1.89s-.18.85-.43,1.85q-1.6,6.55-6.42,9.23T222,36.35l-.6,3.44a1.17,1.17,0,0,1-.54.84,1.31,1.31,0,0,1-1,.2L213,39.62A1.26,1.26,0,0,1,212.15,39.11Zm4.45-27.57c-2.3-.39-4.1-.11-5.41.86s-2.19,2.7-2.63,5.2l-.38,2.22a6.51,6.51,0,0,0,1.09,5,7.29,7.29,0,0,0,4.62,2.34Zm11.84,16.57a6.55,6.55,0,0,0,2.7-4.3c.07-.23.19-.8.35-1.71a14.82,14.82,0,0,0,.23-1.62,6.72,6.72,0,0,0-1.15-5A7.24,7.24,0,0,0,226,13.17l-2.7,15.58A7.38,7.38,0,0,0,228.44,28.11Z"/><path class="cls-1" d="M244.39,45.18a1.23,1.23,0,0,1,0-1L258.6,14.05a1.33,1.33,0,0,1,.73-.71,1.21,1.21,0,0,1,1,.05L282.25,23.7a1.3,1.3,0,0,1,.64,1.77l-2.16,4.6a1.24,1.24,0,0,1-.74.68,1.37,1.37,0,0,1-1-.08L264.3,23.76l-2.78,5.9,13.66,6.42a1.37,1.37,0,0,1,.7.76,1.3,1.3,0,0,1-.06,1l-2,4.23a1.27,1.27,0,0,1-.75.69,1.25,1.25,0,0,1-1-.05L258.4,36.31l-2.84,6,15.05,7.08a1.29,1.29,0,0,1,.7.75,1.32,1.32,0,0,1-.06,1l-2.16,4.6a1.22,1.22,0,0,1-.74.67,1.32,1.32,0,0,1-1-.08L245,45.91A1.24,1.24,0,0,1,244.39,45.18Z"/><path class="cls-1" d="M278.47,60q-1.1-5.37,2.93-10.89.81-1.12,2.75-3.58c1.32-1.67,2.28-2.87,2.91-3.6q4.32-5.09,9.89-5.3t11.25,4.26a21.34,21.34,0,0,1,5.51,6.24A13.25,13.25,0,0,1,315.54,54a11.44,11.44,0,0,1-2.4,6.6,1,1,0,0,1-.74.4,1.09,1.09,0,0,1-.81-.25l-5.73-4.51a1.62,1.62,0,0,1-.65-.87,2.3,2.3,0,0,1,.19-1.2,6.11,6.11,0,0,0,.46-4.11,6.74,6.74,0,0,0-2.42-3.18q-4.56-3.6-8.72,1.36c-.6.7-1.5,1.81-2.68,3.31S290,54.23,289.38,55q-3.84,5.2.71,8.8a6.82,6.82,0,0,0,3.68,1.59A5.85,5.85,0,0,0,297.64,64a2,2,0,0,1,1.1-.48,1.73,1.73,0,0,1,1,.45l5.72,4.51a1.13,1.13,0,0,1,.44.74,1,1,0,0,1-.22.81,11.36,11.36,0,0,1-5.86,3.87,13.15,13.15,0,0,1-7.16-.16,21.44,21.44,0,0,1-7.36-3.89Q279.56,65.33,278.47,60Z"/><path class="cls-1" d="M307.85,90.32a1.23,1.23,0,0,1,.48-.88L328.84,73l-5.66-7a1.39,1.39,0,0,1-.31-1,1.23,1.23,0,0,1,.48-.88l4.49-3.6a1.3,1.3,0,0,1,1-.29,1.25,1.25,0,0,1,.89.5l17.44,21.74a1.32,1.32,0,0,1,.29,1,1.31,1.31,0,0,1-.5.89l-4.48,3.6a1.25,1.25,0,0,1-1,.27,1.34,1.34,0,0,1-.87-.51l-5.65-7L314.46,97.09a1.22,1.22,0,0,1-1,.28,1.37,1.37,0,0,1-.87-.52l-4.47-5.57A1.33,1.33,0,0,1,307.85,90.32Z"/><path class="cls-1" d="M323.43,110.63a1.29,1.29,0,0,1,.71-.72l30.16-14a1.31,1.31,0,0,1,1.77.65l2.95,6.33a1.34,1.34,0,0,1,.05,1,1.32,1.32,0,0,1-.7.75l-18.2,8.46,24.49,4.24a2,2,0,0,1,1.62,1.17l2.66,5.73a1.21,1.21,0,0,1,0,1,1.35,1.35,0,0,1-.71.72l-30.21,14a1.3,1.3,0,0,1-1,.05,1.18,1.18,0,0,1-.73-.67l-3-6.38a1.32,1.32,0,0,1-.07-1,1.19,1.19,0,0,1,.67-.74l17.51-8.13-23.75-4.59a2.6,2.6,0,0,1-.95-.33,1.84,1.84,0,0,1-.67-.84l-2.66-5.73A1.17,1.17,0,0,1,323.43,110.63Z"/><path class="cls-1" d="M339.45,148.26a1.24,1.24,0,0,1,.81-.54l32.77-6a1.33,1.33,0,0,1,1,.18,1.21,1.21,0,0,1,.55.84l2.85,15.6c.79,4.27.5,7.62-.87,10a9.36,9.36,0,0,1-6.9,4.5,7,7,0,0,1-4.43-.52,8.3,8.3,0,0,1-3.09-2.38,8.65,8.65,0,0,1-6.83,6.32,10,10,0,0,1-8.54-1.91q-3.45-2.84-4.59-9.1l-2.95-16.05A1.24,1.24,0,0,1,339.45,148.26ZM348.8,163a4.09,4.09,0,0,0,1.69,2.85,4,4,0,0,0,3,.57,4,4,0,0,0,2.65-1.63,4.06,4.06,0,0,0,.58-3.24l-1.24-6.77-7.92,1.46Zm14.46-3.12a4,4,0,0,0,1.53,2.7,3.65,3.65,0,0,0,2.81.52,3.46,3.46,0,0,0,2.37-1.45,4,4,0,0,0,.46-3.08l-1.16-6.31-7.17,1.31Z"/><path class="cls-1" d="M345.28,181.87a1,1,0,0,1,.76-.29,1.47,1.47,0,0,1,.46.08l32.14,13.88a2,2,0,0,1,1.36,2.14l-.47,8a2,2,0,0,1-1.61,2l-33.55,10a1.56,1.56,0,0,1-.46,0,1.15,1.15,0,0,1-1-1.14l.4-6.66a1.79,1.79,0,0,1,1.23-1.68l5.08-1.55.79-13.42-4.86-2.14a1.78,1.78,0,0,1-1-1.81l.39-6.66A1,1,0,0,1,345.28,181.87ZM358,195.81l-.54,9.12,13.34-3.79Z"/><path class="cls-1" d="M335,244.35a1.19,1.19,0,0,1,1-.09l24.82,8,2.84-8.8-4.11-1.32A62.82,62.82,0,0,1,347,236.91a11.83,11.83,0,0,1-5.48-6.16q-1.25-3.62.46-9.21a1.41,1.41,0,0,1,1.68-.86l5.42,1.75c.69.22,1,.76.88,1.63-.26,1.82.77,3.5,3.12,5.05a44.73,44.73,0,0,0,10.5,4.57l9.87,3.18a1.21,1.21,0,0,1,.76.65,1.35,1.35,0,0,1,.05,1L366.4,262.8a1.27,1.27,0,0,1-.66.79,1.29,1.29,0,0,1-1,.07L333,253.44a1.18,1.18,0,0,1-.76-.65,1.35,1.35,0,0,1-.05-1l2.16-6.69A1.23,1.23,0,0,1,335,244.35Z"/><path class="cls-1" d="M328.34,260.5a1.23,1.23,0,0,1,1,.15l28.34,17.61a1.18,1.18,0,0,1,.58.81,1.25,1.25,0,0,1-.16.95l-3.72,6a1.31,1.31,0,0,1-.8.61,1.18,1.18,0,0,1-1-.16l-9.29-5.77-2.73,4.41q-3.58,5.75-8,7.29t-9.31-1.5a11.12,11.12,0,0,1-5.53-7.78c-.55-3.24.36-6.75,2.7-10.53l7.16-11.51A1.21,1.21,0,0,1,328.34,260.5Zm-1.57,15.8a4,4,0,0,0-.58,3.36,5,5,0,0,0,2.25,2.69,4.47,4.47,0,0,0,3.36.79,4.29,4.29,0,0,0,2.6-2.1l2.63-4.23-7.63-4.74Z"/><path class="cls-1" d="M300.73,299.42a1.2,1.2,0,0,1,.88.47l20.94,25.91a1.27,1.27,0,0,1,.3,1,1.25,1.25,0,0,1-.5.89l-4.51,3.65a1.9,1.9,0,0,1-2.14.28l-16.81-6.74,3,17.88a1.93,1.93,0,0,1-.72,2l-4.51,3.64a1.28,1.28,0,0,1-1,.3,1.32,1.32,0,0,1-.9-.49l-20.94-25.91a1.19,1.19,0,0,1-.29-1,1.33,1.33,0,0,1,.52-.88l5.07-4.1a1.23,1.23,0,0,1,.94-.26,1.21,1.21,0,0,1,.86.46l11.75,14.53-2.08-11.39a2,2,0,0,1,.65-2.05l2.16-1.74a2.19,2.19,0,0,1,2.14-.22l10.66,4.46L294.5,305.64a1.24,1.24,0,0,1-.28-1,1.36,1.36,0,0,1,.51-.88l5-4.07A1.36,1.36,0,0,1,300.73,299.42Z"/><path class="cls-1" d="M253.8,369.73a1,1,0,0,1-.6-.57,2.19,2.19,0,0,1-.17-1l-.47-25.52a32.1,32.1,0,0,1,.47-7.18,9.39,9.39,0,0,1,2.28-4.52,16.43,16.43,0,0,1,5.22-3.45l2.57-1.17a1.3,1.3,0,0,1,1.7.63l2.39,5.23a1.32,1.32,0,0,1,.07,1,1.21,1.21,0,0,1-.68.74l-1.82.83a4.93,4.93,0,0,0-2,1.52,5.39,5.39,0,0,0-.89,2.44l21.23,16.21a.59.59,0,0,1,.31.31,1.24,1.24,0,0,1-.63,1.59L275.92,360a1.67,1.67,0,0,1-1.8-.36l-12.26-9.81.21,15.31a1.51,1.51,0,0,1-.95,1.62l-6.44,2.94A1.14,1.14,0,0,1,253.8,369.73Z"/><path class="cls-1" d="M229.46,340.43a11.66,11.66,0,0,1,5.61,2.64,9.77,9.77,0,0,1,2.83,4.4l0,.1a.9.9,0,0,1-.19.75,1.12,1.12,0,0,1-.67.42l-6.85,1.39a1.73,1.73,0,0,1-1,0,2.23,2.23,0,0,1-.79-.55c-1.1-1.48-3-2-5.78-1.39a7.78,7.78,0,0,0-3.93,1.79,3.09,3.09,0,0,0-1,3,3.14,3.14,0,0,0,1.93,2.46,7.12,7.12,0,0,0,4.14.13l3.73-.75a1.19,1.19,0,0,1,1,.23,1.4,1.4,0,0,1,.57.88l.86,4.27a1.33,1.33,0,0,1-.18,1,1.17,1.17,0,0,1-.8.58l-3.62.74a5.89,5.89,0,0,0-3.16,1.5,3,3,0,0,0-.68,2.83,3,3,0,0,0,1.74,2.25,5.73,5.73,0,0,0,3.63.23,7.75,7.75,0,0,0,3.27-1.34,3.08,3.08,0,0,0,1.25-2.19,1.81,1.81,0,0,1,.43-.77,1.53,1.53,0,0,1,.81-.37l7-1.42a1.25,1.25,0,0,1,.87.14.81.81,0,0,1,.45.69,10.39,10.39,0,0,1-2.58,7.81q-3,3.58-10.16,5a19.33,19.33,0,0,1-7.7.14,12,12,0,0,1-5.67-2.68,8.41,8.41,0,0,1-2.76-4.68,9.57,9.57,0,0,1,.07-4.23,7.13,7.13,0,0,1,2.41-3.71A8.54,8.54,0,0,1,210,359a10.05,10.05,0,0,1-2.13-4.49,9.24,9.24,0,0,1,.71-6,12.14,12.14,0,0,1,4.52-4.84,22.73,22.73,0,0,1,7.78-3A21.39,21.39,0,0,1,229.46,340.43Z"/><path class="cls-1" d="M186.1,345.27a1.22,1.22,0,0,1,.27.93l-3.9,33.09a1.33,1.33,0,0,1-.47.9,1.15,1.15,0,0,1-1,.27l-15.75-1.85q-6.48-.76-9.32-3.79a9.34,9.34,0,0,1-2.27-7.92,7,7,0,0,1,1.8-4.08,8.52,8.52,0,0,1,3.18-2.26,8.26,8.26,0,0,1-3.16-3.44,8.43,8.43,0,0,1-.86-4.94,9.94,9.94,0,0,1,4.33-7.6q3.73-2.46,10-1.71l16.21,1.91A1.23,1.23,0,0,1,186.1,345.27ZM168,364.61a4,4,0,0,0-3,.68,3.61,3.61,0,0,0-1.33,2.53,3.46,3.46,0,0,0,.69,2.69,4,4,0,0,0,2.81,1.34l6.37.75.86-7.24Zm1.27-14.73a4.07,4.07,0,0,0-3.22.78,4.26,4.26,0,0,0-.65,5.71,4.11,4.11,0,0,0,2.92,1.51l6.83.81.95-8Z"/><path class="cls-1" d="M149.4,340.11a1.36,1.36,0,0,1,0,1l-12,31a1.34,1.34,0,0,1-.71.75,1.29,1.29,0,0,1-1,0l-6.51-2.53a1.32,1.32,0,0,1-.76-1.72l7.27-18.71L115,363.83a2,2,0,0,1-2,.27l-5.89-2.28a1.21,1.21,0,0,1-.72-.7,1.31,1.31,0,0,1,0-1l12.07-31.05a1.28,1.28,0,0,1,.66-.71,1.2,1.2,0,0,1,1,0l6.56,2.54a1.36,1.36,0,0,1,.75.68,1.2,1.2,0,0,1,0,1l-7,18,20.31-13.14a2.65,2.65,0,0,1,.91-.42,1.93,1.93,0,0,1,1.07.14l5.89,2.29A1.21,1.21,0,0,1,149.4,340.11Z"/><path class="cls-1" d="M107.46,321.56a11.56,11.56,0,0,1,1.91,5.9,9.77,9.77,0,0,1-1.28,5.08l-.06.08a.85.85,0,0,1-.67.37,1.14,1.14,0,0,1-.77-.2l-5.69-4.05a1.88,1.88,0,0,1-.66-.75,2.5,2.5,0,0,1-.14-.95c.33-1.83-.65-3.55-2.93-5.18a7.77,7.77,0,0,0-4-1.64,3.1,3.1,0,0,0-2.86,1.36,3.17,3.17,0,0,0-.47,3.1,7.2,7.2,0,0,0,2.73,3.11l3.1,2.2a1.18,1.18,0,0,1,.49.86,1.38,1.38,0,0,1-.25,1l-2.53,3.55a1.35,1.35,0,0,1-.88.57,1.21,1.21,0,0,1-1-.19l-3-2.14a5.89,5.89,0,0,0-3.25-1.27,3,3,0,0,0-2.54,1.44,3.05,3.05,0,0,0-.45,2.8,5.74,5.74,0,0,0,2.32,2.81,7.63,7.63,0,0,0,3.21,1.46,3.06,3.06,0,0,0,2.46-.58,1.82,1.82,0,0,1,.84-.21,1.55,1.55,0,0,1,.83.34l5.82,4.13a1.25,1.25,0,0,1,.49.73.85.85,0,0,1-.2.81,10.43,10.43,0,0,1-7.46,3.44q-4.65.29-10.63-4a19,19,0,0,1-5.36-5.52,11.9,11.9,0,0,1-1.93-6,8.41,8.41,0,0,1,1.54-5.21,9.71,9.71,0,0,1,3.12-2.84,7.05,7.05,0,0,1,4.37-.77,8.51,8.51,0,0,1-1.08-5.18,10.07,10.07,0,0,1,1.82-4.63,9.28,9.28,0,0,1,4.89-3.6,12.11,12.11,0,0,1,6.63,0,22.71,22.71,0,0,1,7.48,3.65A21.47,21.47,0,0,1,107.46,321.56Z"/><path class="cls-1" d="M37.39,303.78a1,1,0,0,1,.37-.74,2.19,2.19,0,0,1,.9-.46l24.25-7.94a33.31,33.31,0,0,1,7-1.66,9.4,9.4,0,0,1,5,.86,16.37,16.37,0,0,1,4.83,4l1.88,2.11a1.28,1.28,0,0,1,.31.93,1.23,1.23,0,0,1-.42.88l-4.3,3.82a1.33,1.33,0,0,1-.95.36,1.21,1.21,0,0,1-.9-.43L74,304a4.8,4.8,0,0,0-2-1.45,5.34,5.34,0,0,0-2.59-.13l-9.27,25a.54.54,0,0,1-.2.39,1.13,1.13,0,0,1-.86.28,1.16,1.16,0,0,1-.84-.42l-5-5.64a1.7,1.7,0,0,1-.19-1.83l5.78-14.6-14.57,4.7a1.53,1.53,0,0,1-1.83-.43l-4.7-5.3A1.14,1.14,0,0,1,37.39,303.78Z"/><path class="cls-1" d="M62.52,278.79a1,1,0,0,1-.5.65,1.44,1.44,0,0,1-.43.17l-34.65,5a2,2,0,0,1-2.28-1.1l-3.79-7.06a2,2,0,0,1,.35-2.51l23.33-26.1a1.44,1.44,0,0,1,.38-.26,1.05,1.05,0,0,1,.82-.06,1,1,0,0,1,.64.5l3.16,5.88a1.78,1.78,0,0,1-.17,2.07l-3.51,4,6.36,11.85,5.26-.72a1.78,1.78,0,0,1,1.82,1L62.46,278A1,1,0,0,1,62.52,278.79Zm-18.1-5.23-4.32-8.05-9.37,10.22Z"/><path class="cls-1" d="M38.56,220.19a1.28,1.28,0,0,1-.78.59L12.45,227l2.18,9,4.19-1a63.16,63.16,0,0,1,13.44-2.11,11.88,11.88,0,0,1,7.89,2.38q2.94,2.43,4.43,8.09a1.29,1.29,0,0,1-.18,1,1.32,1.32,0,0,1-.8.62l-5.54,1.34c-.69.17-1.23-.14-1.6-.93-.73-1.69-2.49-2.58-5.3-2.67a44.67,44.67,0,0,0-11.34,1.6L9.75,246.68a1.26,1.26,0,0,1-1-.16,1.34,1.34,0,0,1-.57-.84l-6-24.78a1.32,1.32,0,0,1,1-1.62L35.5,211.4a1.22,1.22,0,0,1,1,.15,1.39,1.39,0,0,1,.57.84l1.66,6.83A1.24,1.24,0,0,1,38.56,220.19Z"/><path class="cls-1" d="M35.52,203.1a1.39,1.39,0,0,1-1,.34l-33.25-.73a1.33,1.33,0,0,1-.95-.4,1.31,1.31,0,0,1-.36-1l.15-7a1.3,1.3,0,0,1,.41-.94,1.33,1.33,0,0,1,1-.37l20.06.44L1.47,178.89a1.92,1.92,0,0,1-.94-1.76l.14-6.32a1.17,1.17,0,0,1,.4-.91,1.35,1.35,0,0,1,1-.34l33.3.73a1.26,1.26,0,0,1,1.26,1.31l-.16,7a1.32,1.32,0,0,1-.37.94,1.22,1.22,0,0,1-.94.36l-19.29-.42L35.12,194.1a2.66,2.66,0,0,1,.71.71,1.94,1.94,0,0,1,.23,1.06l-.14,6.31A1.23,1.23,0,0,1,35.52,203.1Z"/><path class="cls-1" d="M38.56,157.34a11.6,11.6,0,0,1-4.88,3.82,9.76,9.76,0,0,1-5.21.54l-.1,0a.9.9,0,0,1-.58-.5,1.17,1.17,0,0,1-.07-.8l1.85-6.73a1.77,1.77,0,0,1,.49-.88,2.39,2.39,0,0,1,.84-.46c1.83-.31,3.11-1.82,3.86-4.52a7.79,7.79,0,0,0,.17-4.32,3.09,3.09,0,0,0-2.26-2.22,3.14,3.14,0,0,0-3.07.62,7.25,7.25,0,0,0-2,3.63l-1,3.66a1.21,1.21,0,0,1-.63.76,1.39,1.39,0,0,1-1,.11l-4.21-1.16a1.4,1.4,0,0,1-.84-.63,1.21,1.21,0,0,1-.15-1l1-3.57a5.88,5.88,0,0,0,.08-3.49,3,3,0,0,0-2.22-1.89,3,3,0,0,0-2.78.54A5.7,5.7,0,0,0,13.94,142a7.53,7.53,0,0,0-.28,3.52,3.07,3.07,0,0,0,1.39,2.11,2,2,0,0,1,.49.72,1.55,1.55,0,0,1,0,.9l-1.9,6.88a1.25,1.25,0,0,1-.51.71.88.88,0,0,1-.83.09,10.43,10.43,0,0,1-5.79-5.83c-1.24-2.84-1.21-6.63.09-11.34a19.3,19.3,0,0,1,3.34-6.93A12,12,0,0,1,14.86,129a8.39,8.39,0,0,1,5.42-.34,9.63,9.63,0,0,1,3.75,2,7.2,7.2,0,0,1,2.22,3.83,8.48,8.48,0,0,1,4.49-2.78,10,10,0,0,1,5,.12,9.23,9.23,0,0,1,5.06,3.36,12,12,0,0,1,2.28,6.22,22.62,22.62,0,0,1-.86,8.28A21.24,21.24,0,0,1,38.56,157.34Z"/><path class="cls-1" d="M46.63,130.9a1.07,1.07,0,0,1-.81-.07,1.5,1.5,0,0,1-.38-.27L22.5,104.11a2,2,0,0,1-.3-2.52l3.89-7a2,2,0,0,1,2.3-1.07L63,99.07a1.65,1.65,0,0,1,.43.18,1.15,1.15,0,0,1,.41,1.46l-3.24,5.83a1.78,1.78,0,0,1-1.84,1l-5.24-.81-6.54,11.76,3.45,4a1.79,1.79,0,0,1,.14,2.08l-3.24,5.83A1.08,1.08,0,0,1,46.63,130.9Zm-5.37-18.06,4.44-8L32,102.48Z"/><path class="cls-1" d="M90.05,82.09a1.15,1.15,0,0,1-.93-.35l-4.28-4.08L68.13,95.2a1.21,1.21,0,0,1-.92.41,1.36,1.36,0,0,1-.93-.4l-24.12-23a1.24,1.24,0,0,1,0-1.82L47,65.32a1.34,1.34,0,0,1,.91-.44,1.22,1.22,0,0,1,.94.36l18.87,18,8.36-8.77-18.87-18a1.19,1.19,0,0,1-.41-.91,1.38,1.38,0,0,1,.4-.94l4.81-5a1.32,1.32,0,0,1,.92-.44,1.2,1.2,0,0,1,.93.36l18.88,18,1.66-1.75a1.2,1.2,0,0,1,.92-.4,1.34,1.34,0,0,1,.94.39l9.51,9.07a1.27,1.27,0,0,1,.42.9,1.24,1.24,0,0,1-.38.91l-4.85,5.09A1.27,1.27,0,0,1,90.05,82.09Z"/><path class="cls-1" d="M96.27,66.73a1.3,1.3,0,0,1-.8-.62L78.19,37.68a1.32,1.32,0,0,1,.45-1.83l6-3.63a1.29,1.29,0,0,1,1-.16,1.32,1.32,0,0,1,.83.61L96.86,49.82,98.35,25a2,2,0,0,1,1-1.74L104.73,20a1.18,1.18,0,0,1,1-.15,1.3,1.3,0,0,1,.8.62l17.31,28.47a1.26,1.26,0,0,1,.16,1,1.19,1.19,0,0,1-.59.81l-6,3.65a1.33,1.33,0,0,1-1,.19,1.23,1.23,0,0,1-.81-.59l-10-16.49-1.92,24.11a2.66,2.66,0,0,1-.22,1,1.87,1.87,0,0,1-.77.76l-5.39,3.28A1.18,1.18,0,0,1,96.27,66.73Z"/><path class="cls-1" d="M131.72,46.48a1.31,1.31,0,0,1-.6-.81l-9.23-32a1.29,1.29,0,0,1,.11-1,1.24,1.24,0,0,1,.8-.63l6.71-1.94a1.29,1.29,0,0,1,1,.11,1.24,1.24,0,0,1,.63.8l5.57,19.29,7.94-23.56a2,2,0,0,1,1.41-1.42l6.07-1.75a1.18,1.18,0,0,1,1,.11,1.33,1.33,0,0,1,.61.81l9.24,32a1.29,1.29,0,0,1-.1,1,1.21,1.21,0,0,1-.78.63l-6.76,2a1.35,1.35,0,0,1-1-.08,1.2,1.2,0,0,1-.62-.78l-5.36-18.55-8.17,22.77a2.46,2.46,0,0,1-.47.88,1.78,1.78,0,0,1-.94.54l-6.06,1.75A1.2,1.2,0,0,1,131.72,46.48Z"/></g></g></svg>